<svg xmlns="http://www.w3.org/2000/svg" width="123.89" height="124" viewBox="0 0 123.89 124">
  <g id="accept" transform="translate(-0.45 511.566)">
    <path id="Path_196" data-name="Path 196" d="M57.553-511.526a62.761,62.761,0,0,0-38.884,17.915A63.477,63.477,0,0,0,.778-457.49,84.287,84.287,0,0,0,1.02-440.4,62.078,62.078,0,0,0,28.462-397.66a67.8,67.8,0,0,0,20.969,8.751,62.419,62.419,0,0,0,31.83-1.6c5.309-1.7,11.879-4.8,14.763-6.982A6.062,6.062,0,0,0,93.14-408.3c-1.479-.194-2.909.242-5.236,1.648a50.358,50.358,0,0,1-35.563,5.988A50.748,50.748,0,0,1,24.147-417.49a50.364,50.364,0,0,1-11.1-24.485,65.681,65.681,0,0,1-.024-15.273c3.127-17.963,14.667-32.291,31.272-38.787a49.612,49.612,0,0,1,40.048,1.673c14.473,7.03,24.315,20.121,27.321,36.412.461,2.5.533,3.782.558,9.673a51.288,51.288,0,0,0,.291,7.418,7.368,7.368,0,0,0,2.836,2.958,6.91,6.91,0,0,0,5.382,0,6.656,6.656,0,0,0,3.176-3.879c.339-1.164.412-2.424.436-7.345a51.073,51.073,0,0,0-1.333-13.745,62.068,62.068,0,0,0-46.181-47.1,51.808,51.808,0,0,0-13.091-1.576C60.947-511.574,58.159-511.574,57.553-511.526Z" transform="translate(0)" fill="rgba(255,115,0,0.3)"/>
    <path id="Path_197" data-name="Path 197" d="M183.363-349.495c-.945.315-3.224,2.5-16.17,15.418l-15.1,15.054-5.745-5.721c-6.182-6.158-6.958-6.715-9.139-6.739a5.754,5.754,0,0,0-4.194,1.552A5.263,5.263,0,0,0,131-325.544c0,2.642.291,3.006,9.357,12.048,6.061,6.036,8.509,8.291,9.309,8.654a6.231,6.231,0,0,0,4.848,0c1.624-.727,35.685-34.739,36.509-36.46a5.993,5.993,0,0,0-2.909-8.024A6.3,6.3,0,0,0,183.363-349.495Z" transform="translate(-98.901 -122.492)" fill="#ff7300"/>
  </g>
</svg>
