<svg xmlns="http://www.w3.org/2000/svg" width="28.063" height="28.076" viewBox="0 0 28.063 28.076"><defs><style>.a{fill:#bdbaba;}</style></defs><g transform="translate(0 0)"><path class="a" d="M13.925-511.829c-.115.027-12.456,5.573-12.944,5.814A1.242,1.242,0,0,0,.2-504.934a1.308,1.308,0,0,0,.784,1.272c.274.115,26.207.115,26.481,0a1.308,1.308,0,0,0,.784-1.272,1.333,1.333,0,0,0-.433-.872c-.165-.132-12.3-5.628-13.087-5.929A1.268,1.268,0,0,0,13.925-511.829Z" transform="translate(-0.194 511.859)"/><path class="a" d="M30.431-339.883a.639.639,0,0,0-.466.631.478.478,0,0,0,.186.4.493.493,0,0,0,.466.186h.28v11.507l-.351.022a1.278,1.278,0,0,0-1.048.614,1.289,1.289,0,0,0,.23,1.58c.357.34-.554.318,12.039.318h11.48l.247-.132a1.27,1.27,0,0,0-.6-2.391h-.274v-11.518h.269a.613.613,0,0,0,.208-1.2C52.925-339.932,30.629-339.943,30.431-339.883Zm6.829,6.977v5.759H33.475v-11.518H37.26Zm6.406.011.011,5.748H39.838v-11.518l1.909.011,1.9.016Zm6.373-.011v5.759H46.2v-5.721c0-3.148.016-5.743.038-5.759s.883-.038,1.92-.038H50.04Z" transform="translate(-27.725 349.353)"/><path class="a" d="M1.2-46.6A1.3,1.3,0,0,0,.173-45.214a1.184,1.184,0,0,0,.406.79c.395.384-.636.357,13.6.357,9.2,0,12.928-.016,13.1-.06a1.277,1.277,0,0,0,.921-1.229,1.234,1.234,0,0,0-.757-1.163c-.208-.093-.817-.1-13.136-.1C7.2-46.63,1.3-46.619,1.2-46.6Z" transform="translate(-0.166 72.143)"/></g></svg>