<svg xmlns="http://www.w3.org/2000/svg" width="17.993" height="20.496" viewBox="0 0 17.993 20.496">
  <g id="bin" transform="translate(-31.254 511.888)">
    <path id="Path_188" data-name="Path 188" d="M37.493-511.848a1.849,1.849,0,0,0-1.245.965,2.191,2.191,0,0,0-.2,1.037v.356H34.49c-.889,0-1.645.016-1.769.04a1.809,1.809,0,0,0-1.445,1.505,1.785,1.785,0,0,0,.925,1.833l.276.144.024.232c.016.124.26,3.054.544,6.513s.536,6.353.556,6.437a1.876,1.876,0,0,0,1.341,1.329c.364.088,10.251.088,10.616,0a1.876,1.876,0,0,0,1.341-1.329c.02-.084.268-2.982.556-6.437s.528-6.389.544-6.513l.024-.232.276-.144a1.785,1.785,0,0,0,.925-1.833,1.809,1.809,0,0,0-1.445-1.505c-.124-.024-.881-.04-1.769-.04H44.454v-.356a4.293,4.293,0,0,0-.04-.568,1.821,1.821,0,0,0-1.437-1.437C42.712-511.9,37.749-511.9,37.493-511.848Zm5.44,1.237c.24.124.32.312.32.761v.36h-6v-.36c0-.44.08-.636.312-.757.144-.076.24-.08,2.682-.084C42.7-510.692,42.78-510.688,42.932-510.611Zm4.8,2.4a.632.632,0,0,1,.32.52.632.632,0,0,1-.32.52c-.156.08-.22.08-7.485.08s-7.329,0-7.485-.08a.632.632,0,0,1-.32-.52.641.641,0,0,1,.312-.516c.144-.08.26-.08,7.485-.084C47.52-508.29,47.58-508.29,47.736-508.21Zm-.945,2.49c-.008.1-.252,2.99-.536,6.429-.56,6.781-.516,6.4-.773,6.589l-.112.084H35.131l-.112-.084c-.256-.192-.212.192-.773-6.589-.284-3.438-.528-6.333-.536-6.429l-.024-.168H46.815Z" transform="translate(0 0)" fill="#f33"/>
    <path id="Path_189" data-name="Path 189" d="M151.116-331.784a.52.52,0,0,0-.232.248l-.084.172.3,4.94c.34,5.528.3,5.2.62,5.364a.576.576,0,0,0,.568,0,.526.526,0,0,0,.24-.252l.084-.172-.3-4.94c-.34-5.528-.3-5.2-.62-5.364A.581.581,0,0,0,151.116-331.784Z" transform="translate(-114.76 -172.819)" fill="#f33"/>
    <path id="Path_190" data-name="Path 190" d="M241.312-331.7a.574.574,0,0,0-.232.236c-.08.156-.08.228-.08,5.124s0,4.968.08,5.124a.632.632,0,0,0,.52.32.632.632,0,0,0,.52-.32c.08-.156.08-.224.08-5.124s0-4.968-.08-5.124A.585.585,0,0,0,241.312-331.7Z" transform="translate(-201.35 -172.903)" fill="#f33"/>
    <path id="Path_191" data-name="Path 191" d="M316.717-331.714c-.308.164-.272-.148-.612,5.36l-.3,4.94.084.172a.526.526,0,0,0,.24.252.576.576,0,0,0,.568,0c.316-.164.28.164.62-5.364l.3-4.94-.084-.172A.587.587,0,0,0,316.717-331.714Z" transform="translate(-273.156 -172.889)" fill="#f33"/>
  </g>
</svg>
