<svg xmlns="http://www.w3.org/2000/svg" width="80.78" height="71.355" viewBox="0 0 80.78 71.355">
  <g id="cart" transform="translate(0 482)">
    <path id="Path_192" data-name="Path 192" d="M0-478.761v3.239l5.167.032,5.167.047,4.314,21.491c2.354,11.82,4.3,21.538,4.314,21.6,0,.079,11.33.126,25.173.126H69.292l5.72-14.9c3.145-8.185,5.736-14.98,5.768-15.107.063-.332-5.736-2.576-5.942-2.307-.079.111-2.354,5.942-5.057,12.973l-4.914,12.784h-40.6l-4.314-21.491c-2.354-11.82-4.3-21.538-4.314-21.617,0-.063-3.524-.111-7.822-.111H0Z" fill="#ff7300"/>
    <path id="Path_193" data-name="Path 193" d="M205.553-474.5c-4.978.98-9.1,4.646-11.14,9.924A18.5,18.5,0,0,0,193.2-457.8a19.549,19.549,0,0,0,1,7.711c1.754,5.262,5.309,8.881,10.113,10.3a17.657,17.657,0,0,0,6.463.253c6.431-1.217,11.172-6.732,12.247-14.253a31.88,31.88,0,0,0-.063-6.716c-1.043-6.858-5.278-12.073-11.188-13.748A17.416,17.416,0,0,0,205.553-474.5Zm4.788,7.4c1.865.7,3.65,3.034,4.456,5.815a22.611,22.611,0,0,1,.332,7.048c-.569,3.492-2.212,6.115-4.488,7.174a5.858,5.858,0,0,1-7.064-1.533c-3.634-3.982-3.508-13.274.253-17.05A5.878,5.878,0,0,1,210.341-467.1Z" transform="translate(-162.651 -6.174)" fill="#ff7300" opacity="0.5"/>
    <path id="Path_194" data-name="Path 194" d="M137.553-152.56a9.856,9.856,0,0,0-7.348,10.034,9.819,9.819,0,0,0,7.158,8.8,10.727,10.727,0,0,0,5.562-.158,9.346,9.346,0,0,0,3.982-2.576,9.224,9.224,0,0,0,2.655-7.1,9.721,9.721,0,0,0-6.495-8.77A12.713,12.713,0,0,0,137.553-152.56Zm3.84,6.605a3.2,3.2,0,0,1,.616,5.23,3.484,3.484,0,0,1-2.117.885,3.643,3.643,0,0,1-2.244-1.027,2.975,2.975,0,0,1-.7-3.524A3.176,3.176,0,0,1,141.393-145.954Z" transform="translate(-109.615 -277.215)" fill="#ff7300"/>
    <path id="Path_195" data-name="Path 195" d="M315.714-152.475a10.165,10.165,0,0,0-6.953,6.637,11.146,11.146,0,0,0,.032,5.768,9.429,9.429,0,0,0,2.528,3.951,8.942,8.942,0,0,0,6.89,2.75,7.112,7.112,0,0,0,2.892-.427,9.346,9.346,0,0,0,3.982-2.576,9.512,9.512,0,0,0,2.686-6.621,9.714,9.714,0,0,0-6.242-9.118,6.912,6.912,0,0,0-3.081-.537A10.7,10.7,0,0,0,315.714-152.475Zm3.856,6.605a3.2,3.2,0,0,1,.616,5.23,3.225,3.225,0,0,1-5.373-2.513,3.616,3.616,0,0,1,1.975-2.86A3.63,3.63,0,0,1,319.57-145.87Z" transform="translate(-259.665 -277.299)" fill="#ff7300"/>
  </g>
</svg>
