<svg xmlns="http://www.w3.org/2000/svg" width="28.075" height="28.076" viewBox="0 0 28.075 28.076"><defs><style>.a{fill:#bdbaba;}</style></defs><g transform="translate(0 0)"><path class="a" d="M186.646-490.542a5.7,5.7,0,0,0-.807.2,32.589,32.589,0,0,0-3.619,1.693A6.247,6.247,0,0,0,181-487.42c0,.024,2.129.048,4.731.048h4.731l.173.173a.5.5,0,0,1,.173.389,4.574,4.574,0,0,1-.455,1.358,2.107,2.107,0,0,1-.939.861c-.138.048-1.25.275-2.476.508s-2.315.449-2.422.5a1.562,1.562,0,0,0-.413.323,1.339,1.339,0,0,0,.257,2.034l.251.167,3.828.018c4.462.018,4.133.054,5.748-.658.891-.395.987-.449.945-.556-.024-.066-.054-1.6-.06-3.409l-.024-3.29-3.6-.8c-1.98-.437-3.786-.8-4.019-.819A4.8,4.8,0,0,0,186.646-490.542Z" transform="translate(-171.46 490.577)"/><path class="a" d="M437.769-479.832a1.138,1.138,0,0,0-.5.461l-.179.287-.018,3.027c-.024,3.511-.024,3.529.4,3.954a1.466,1.466,0,0,0,1.22.419,1.386,1.386,0,0,0,1.537-1.035c.048-.215.06-1.244.048-3.338l-.018-3.027-.179-.287a1.138,1.138,0,0,0-.5-.461,1.47,1.47,0,0,0-.9-.167A1.47,1.47,0,0,0,437.769-479.832Z" transform="translate(-412.205 480.633)"/><path class="a" d="M118.182-415.833a1.138,1.138,0,0,0-.5.461l-.179.287v6.113l.15.269a1.81,1.81,0,0,0,.407.449l.263.179,7,.018c4.935.012,7.076,0,7.237-.048a1.367,1.367,0,0,0,.766-.688,1.541,1.541,0,0,0,.114-.622v-.383l-.251.048c-.144.024-.443.066-.676.1-.586.072-7.094.066-7.536-.006a2.63,2.63,0,0,1-1.465-4.414c.556-.568.855-.664,3.439-1.142,2.225-.413,2.518-.5,2.59-.712.018-.054-1.262-.072-5.509-.072H118.5Z" transform="translate(-111.758 420.461)"/><path class="a" d="M117.863-251.022a1.487,1.487,0,0,0-.861.9,19.491,19.491,0,0,0,0,3.457c.036,0,.353-.1.706-.209a8.519,8.519,0,0,1,1.154-.269c.909-.114,1.316-.03,3.822.784,1.226.4,2.41.819,2.632.933a3.6,3.6,0,0,1,1.13,1.035l.1.144,1.758-.251c.969-.144,1.818-.269,1.9-.287l.138-.03-.018-2.71-.018-2.716-.179-.263a1.81,1.81,0,0,0-.449-.407l-.269-.15-2.076-.018-2.081-.018v1.441a10.378,10.378,0,0,1-.06,1.561c-.12.221-.371.144-.951-.305a6.866,6.866,0,0,0-.58-.419c-.012,0-.275.185-.586.419-.556.419-.79.5-.927.341a7.944,7.944,0,0,1-.078-1.543l-.018-1.459-1.974-.012C118.849-251.076,118.006-251.058,117.863-251.022Z" transform="translate(-111.217 265.424)"/><path class="a" d="M22.248-164.9a1.208,1.208,0,0,0-.616.592c-.132.239-.132.275-.132,3.439s0,3.2.132,3.439c.287.538.61.688,1.453.688s1.166-.15,1.453-.688c.132-.239.132-.275.132-3.439s0-3.2-.132-3.439c-.287-.538-.61-.688-1.465-.688A2.591,2.591,0,0,0,22.248-164.9Z" transform="translate(-21.5 184.474)"/><path class="a" d="M99.021-163.871c-.066.018-.772.245-1.567.5L96-162.89v6.268l.167-.024c.09-.018.473-.084.849-.15,1.148-.2,1.107-.209,2.56.508,1.693.837,2.375,1.011,3.391.873.622-.09,8.434-2.68,8.834-2.931a1.783,1.783,0,0,0,.664-2.076,1.857,1.857,0,0,0-1-1c-.449-.156-.784-.132-3.176.227-1.214.179-2.243.329-2.279.329s-.084-.132-.108-.293a1.835,1.835,0,0,0-.646-1.041,11.242,11.242,0,0,0-2.183-.825c-2.536-.843-2.721-.891-3.391-.885A5.6,5.6,0,0,0,99.021-163.871Z" transform="translate(-91.544 183.446)"/></g></svg>