<svg xmlns="http://www.w3.org/2000/svg" width="17.195" height="17.191" viewBox="0 0 17.195 17.191"><defs><style>.a{fill:#fff;}</style></defs><g transform="translate(-15.975 495.901)"><path class="a" d="M17.5-488.212a1.975,1.975,0,0,1-1.483-1.512c-.054-.29-.054-4.338,0-4.628a1.954,1.954,0,0,1,1.537-1.519c.161-.025,1.11-.036,3.016-.029,2.744.011,2.783.011,2.88.086a.976.976,0,0,1,.172.172c.075.1.075.136.086,2.88.007,1.906,0,2.855-.029,3.016a1.954,1.954,0,0,1-1.519,1.537C21.89-488.159,17.756-488.162,17.5-488.212Zm4.545-1.146a.855.855,0,0,0,.48-.48c.032-.111.043-.749.043-2.536v-2.386H20.181c-1.787,0-2.425.011-2.536.043a.855.855,0,0,0-.48.48c-.061.211-.061,4.187,0,4.4a.879.879,0,0,0,.458.476C17.81-489.3,21.847-489.3,22.044-489.359Z" transform="translate(0 9.462)"/><path class="a" d="M281.657-488.207a1.971,1.971,0,0,1-1.487-1.533c-.025-.161-.036-1.107-.029-3.012l.011-2.78.1-.133c.186-.247.047-.236,3.095-.236,1.809,0,2.826.014,2.966.039a1.968,1.968,0,0,1,1.515,1.515c.025.136.039.971.039,2.314s-.014,2.178-.039,2.314a1.968,1.968,0,0,1-1.515,1.515C286.048-488.154,281.914-488.157,281.657-488.207Zm4.545-1.146a.855.855,0,0,0,.48-.48,21.149,21.149,0,0,0,.043-2.221c0-2.009,0-2.078-.075-2.235a.6.6,0,0,0-.372-.38l-.179-.086H281.28v2.386c0,1.787.011,2.425.043,2.536a.879.879,0,0,0,.458.476C281.968-489.3,286.005-489.3,286.2-489.353Z" transform="translate(-254.702 9.457)"/><path class="a" d="M17.5-223.924a1.975,1.975,0,0,1-1.483-1.512c-.054-.29-.054-4.338,0-4.628a1.968,1.968,0,0,1,1.515-1.515c.29-.054,4.338-.054,4.628,0a1.968,1.968,0,0,1,1.515,1.515c.025.14.039,1.157.039,2.966,0,3.048.011,2.909-.236,3.095l-.133.1-2.833,0C18.834-223.892,17.606-223.9,17.5-223.924Zm5.068-3.51c0-2.346,0-2.414-.075-2.572a.6.6,0,0,0-.373-.38l-.179-.086H19.866a21.147,21.147,0,0,0-2.221.043.855.855,0,0,0-.48.48c-.061.211-.061,4.187,0,4.4a.879.879,0,0,0,.458.476c.086.025.878.039,2.536.043l2.407,0Z" transform="translate(0 -264.282)"/><path class="a" d="M280.316-224.347a.6.6,0,0,1-.3-.319c-.054-.14-.054-5.52,0-5.813a1.968,1.968,0,0,1,1.515-1.515c.29-.054,4.338-.054,4.628,0a1.968,1.968,0,0,1,1.515,1.515c.054.29.054,4.338,0,4.628a1.968,1.968,0,0,1-1.515,1.515C285.818-224.276,280.456-224.286,280.316-224.347Zm5.728-1.139a.855.855,0,0,0,.48-.48,21.156,21.156,0,0,0,.043-2.221c0-2.009,0-2.078-.075-2.235a.6.6,0,0,0-.373-.38l-.179-.086h-2.074a21.147,21.147,0,0,0-2.221.043.855.855,0,0,0-.48.48c-.032.111-.043.749-.043,2.536v2.386h2.386C285.3-225.443,285.933-225.454,286.044-225.486Z" transform="translate(-254.544 -263.866)"/></g></svg>