<svg xmlns="http://www.w3.org/2000/svg" width="279.525" height="263.5" viewBox="0 0 279.525 263.5">
  <g id="Delivery" transform="translate(0 0.001)">
    <g id="Background_Complete" data-name="Background Complete" transform="translate(14.166 -0.001)">
      <path id="Path_460" data-name="Path 460" d="M178.844,88.379A7.849,7.849,0,0,0,171.218,96a7.767,7.767,0,0,0,1.472,4.751h0l.07.106h0l5.537,7.526a1.173,1.173,0,0,0,1.942-.035l5-7.438a8.476,8.476,0,0,0,1.6-4.734,7.819,7.819,0,0,0-8-7.8Zm.182,12.442a4.446,4.446,0,1,1,3.15-1.3,4.452,4.452,0,0,1-3.15,1.3Z" transform="translate(-90.356 -47.387)" fill="#e0e0e0"/>
      <path id="Path_461" data-name="Path 461" d="M344.283,51.34c.458-3.3-4.206-6.018-7.708-6.3-1.672-.135-3.408.117-4.992-.434-3.426-1.173-4.8-5.625-8.142-7.039-2.5-1.056-5.385-.117-7.808,1.1s-4.822,2.757-7.532,2.933c-2.346.147-4.916-.727-6.975.428-1.537.856-2.346,2.628-3.76,3.672a8.839,8.839,0,0,1-4.91,1.332,13.831,13.831,0,0,0-5.068.827c-1.549.716-2.857,2.346-2.534,4.059Z" transform="translate(-137.314 -26.192)" fill="#ebebeb"/>
      <path id="Path_462" data-name="Path 462" d="M189.2,26.073c.241-1.76-2.241-3.2-4.106-3.355a10.528,10.528,0,0,1-2.657-.229c-1.824-.639-2.552-2.992-4.335-3.748a5.123,5.123,0,0,0-4.153.587,10.959,10.959,0,0,1-4.012,1.56c-1.249.076-2.616-.387-3.713.223-.815.458-1.244,1.4-2,1.959a4.757,4.757,0,0,1-2.61.7,7.45,7.45,0,0,0-2.7.446,2.129,2.129,0,0,0-1.349,2.159Z" transform="translate(-84.71 -18.499)" fill="#f5f5f5"/>
      <path id="Path_463" data-name="Path 463" d="M84.329,76.978c.358-2.6-3.308-4.734-6.06-4.957a15.577,15.577,0,0,1-3.924-.34c-2.692-.939-3.772-4.423-6.4-5.532-1.965-.821-4.229-.088-6.136.868s-3.8,2.17-5.925,2.305c-1.854.117-3.86-.587-5.485.334-1.208.675-1.842,2.071-2.933,2.886a6.851,6.851,0,0,1-3.883,1.05,10.439,10.439,0,0,0-3.977.651,3.149,3.149,0,0,0-1.994,3.191Z" transform="translate(-35.108 -38.051)" fill="#f5f5f5"/>
      <path id="Path_464" data-name="Path 464" d="M456.692,74.965s-.34-.088-.944-.211a7.679,7.679,0,0,0-2.593-.07,7.074,7.074,0,0,0-3.473,1.519,7.244,7.244,0,0,0-2.446,3.9v.047l-.147.587-.223-.546a7.784,7.784,0,0,0-2.933-3.555,7.543,7.543,0,0,0-3.584-1.214,9.972,9.972,0,0,0-3.52.446,3.079,3.079,0,0,1,.892-.387,7.485,7.485,0,0,1,2.64-.334,7.726,7.726,0,0,1,3.766,1.173,8,8,0,0,1,3.1,3.707h-.37v-.047a7.432,7.432,0,0,1,2.6-4.106,7.1,7.1,0,0,1,3.66-1.513,7,7,0,0,1,2.663.194A2.932,2.932,0,0,1,456.692,74.965Z" transform="translate(-200.162 -41.569)" fill="#e0e0e0"/>
      <path id="Path_465" data-name="Path 465" d="M24.15,122.394,45.144,236.4l43.684,7.919,39.138-25.183,41.865,10.107,43.4-27.852L191.981,93.24l-43.215,21.546-37.29-8.1L70.884,128.184Z" transform="translate(-24.15 -38.545)" fill="#fff" stroke="#e0e0e0" stroke-miterlimit="10" stroke-width="1"/>
      <path id="Path_466" data-name="Path 466" d="M31.84,129.218,51.667,237.34l40.047,6.06,39.026-25.91,40.986,9.755,40.6-24.537L193.2,100.95l-40.569,20.724-38.011-6.582-41.5,20.255-18.572-2.757Z" transform="translate(-27.329 -41.733)" fill="#ebebeb"/>
      <path id="Path_467" data-name="Path 467" d="M76.859,155.465l.117,40.657,139.939,35.923-6.969,4.6L77.885,202.322l-1.138,58.836-8.517-1.291L69.591,154.89Z" transform="translate(-42.373 -64.031)" fill="#fafafa"/>
      <path id="Path_468" data-name="Path 468" d="M35.56,165.63l21.024,4.722-.727,6.681-19.545-5.062Z" transform="translate(-28.867 -68.471)" fill="#fafafa"/>
      <path id="Path_469" data-name="Path 469" d="M44.16,213.97l15.052-3.32-.094,7.649-13.873,3.109Z" transform="translate(-32.422 -87.083)" fill="#fafafa"/>
      <path id="Path_470" data-name="Path 470" d="M53.61,267.85l9.069.792-.059,4.376-8.294-.27Z" transform="translate(-36.329 -110.729)" fill="#fafafa"/>
      <path id="Path_471" data-name="Path 471" d="M82.75,294.586l11.6,1.754,2.681-23.405,18.22,1.854L117,296.316l7.7-5.115-.158-44.886L83.888,235.75Z" transform="translate(-48.375 -97.459)" fill="#e0e0e0"/>
      <path id="Path_472" data-name="Path 472" d="M158.462,253.708l-.229,24.115-.158,16.829-4.112,2.734-.422-46.676Z" transform="translate(-77.64 -103.644)" fill="#fafafa"/>
      <path id="Path_473" data-name="Path 473" d="M180.573,301,161.5,296.93l-.053,5.649,13.122,2.4Z" transform="translate(-80.91 -122.751)" fill="#fafafa"/>
      <path id="Path_474" data-name="Path 474" d="M117.364,148.472,114.29,196.6l6.91,1.772,3.9-53.674Z" transform="translate(-61.414 -59.819)" fill="#fafafa"/>
      <path id="Path_475" data-name="Path 475" d="M164.12,212.095,165.293,152l4.159,1.66-.323,20.906,43.226,12.518,10.271-41.525,7.907-4.423-12.653,47.239-9.8,36.844s-5.708-1.326-5.508-2.264,7.813-28.292,7.813-28.292l-41.93-13.6L167.7,215.62Z" transform="translate(-87.422 -69.199)" fill="#fafafa"/>
      <path id="Path_476" data-name="Path 476" d="M239.72,169.468l29.054,8.494,13.492-57.6-2.552-12.694-15,62.631-23.874-7.332Z" transform="translate(-113.267 -44.511)" fill="#fafafa"/>
      <path id="Path_477" data-name="Path 477" d="M212.2,286.194l4.845-24.074,5.743,1.373-5.109,24.356Z" transform="translate(-101.89 -108.361)" fill="#fafafa"/>
      <path id="Path_478" data-name="Path 478" d="M305.843,202.1,293.97,260.672l10.506-6.623,10.342-38.815-1.49-10.148Z" transform="translate(-135.694 -83.548)" fill="#e0e0e0"/>
      <path id="Path_479" data-name="Path 479" d="M73.119,155.27l18.6,108.051-40.047-6.06L31.84,149.14Z" transform="translate(-27.329 -61.654)" opacity="0.1"/>
      <path id="Path_480" data-name="Path 480" d="M147.59,132.322l4.1,1.637,101.3,40.469-2.968-15.774-87.55-33.594Z" transform="translate(-75.18 -51.7)" fill="#e0e0e0"/>
      <path id="Path_481" data-name="Path 481" d="M172.96,125.06l16.12,102.4,40.986,9.755-19.094-105.57Z" transform="translate(-85.669 -51.7)" opacity="0.1"/>
      <path id="Path_482" data-name="Path 482" d="M404.4,408.435H348.38l3.156-3.115h54.712Z" transform="translate(-158.188 -167.56)" fill="#e0e0e0"/>
    </g>
    <g id="Floor" transform="translate(11.239 263.03)">
      <path id="Path_483" data-name="Path 483" d="M282.517,467.053c0,.082-56.9.153-127.063.153s-127.075-.07-127.075-.153,56.9-.153,127.075-.153S282.517,466.959,282.517,467.053Z" transform="translate(-28.38 -466.9)" fill="#263238"/>
    </g>
    <g id="Birds" transform="translate(42 15.492)">
      <path id="Path_484" data-name="Path 484" d="M121.512,114.676c0,.041-.669-.229-1.912-.5a15.251,15.251,0,0,0-5.35-.211,14.383,14.383,0,0,0-7.209,3.115,14.929,14.929,0,0,0-5.092,8.077v.088l-.147.587-.223-.551a16.084,16.084,0,0,0-6.118-7.332,15.551,15.551,0,0,0-7.438-2.481,16.507,16.507,0,0,0-5.315.487,19.4,19.4,0,0,0-1.889.587,2.588,2.588,0,0,1,.458-.223,11.053,11.053,0,0,1,1.408-.54,15.874,15.874,0,0,1,5.373-.587,15.686,15.686,0,0,1,7.626,2.458,16.3,16.3,0,0,1,6.259,7.508l-.37.035v-.094a15.181,15.181,0,0,1,5.238-8.271,14.542,14.542,0,0,1,7.4-3.1,14.829,14.829,0,0,1,5.42.328,10.622,10.622,0,0,1,1.408.452,2.423,2.423,0,0,1,.469.176Z" transform="translate(-80.82 -73.31)" fill="#263238"/>
      <path id="Path_485" data-name="Path 485" d="M232.791,79.456s-.375-.106-1.062-.252a8.658,8.658,0,0,0-2.933-.082,7.86,7.86,0,0,0-3.918,1.713,8.166,8.166,0,0,0-2.769,4.4v.047l-.147.587-.223-.551a8.752,8.752,0,0,0-3.314-4.006,8.535,8.535,0,0,0-4.053-1.373,9.081,9.081,0,0,0-2.933.241c-.675.164-1.038.311-1.05.282s.082-.059.252-.141a5.548,5.548,0,0,1,.757-.287,8.688,8.688,0,0,1,7.2.974,9.04,9.04,0,0,1,3.484,4.171h-.37v-.053a8.412,8.412,0,0,1,2.933-4.593,8.089,8.089,0,0,1,4.106-1.707,8.171,8.171,0,0,1,3,.211,5.427,5.427,0,0,1,.774.264C232.709,79.4,232.8,79.438,232.791,79.456Z" transform="translate(-134.384 -58.907)" fill="#263238"/>
      <path id="Path_486" data-name="Path 486" d="M168.949,44.91s-.364.422-1.027,1.173a25.222,25.222,0,0,0-2.511,3.391,24.672,24.672,0,0,0-3.725,13.193,1.544,1.544,0,0,0,0,.164H161.3a21.58,21.58,0,0,0-2.411-7.139,22.461,22.461,0,0,0-6.857-7.661,15.112,15.112,0,0,1-1.261-.88,1.76,1.76,0,0,1,.358.176,9.265,9.265,0,0,1,.991.587,19.944,19.944,0,0,1,3.291,2.634,21.739,21.739,0,0,1,6.277,12.242H161.3v-.164a24.273,24.273,0,0,1,3.883-13.345,21.775,21.775,0,0,1,2.634-3.344c.34-.375.639-.628.827-.81A2.54,2.54,0,0,1,168.949,44.91Z" transform="translate(-109.738 -44.91)" fill="#263238"/>
    </g>
    <g id="Buildings" transform="translate(121.907 32.726)">
      <rect id="Rectangle_153" data-name="Rectangle 153" width="157.548" height="3.649" transform="translate(0 176.724)" fill="#e0e0e0"/>
      <path id="Path_487" data-name="Path 487" d="M219.74,379.316v-3.549h.047c9.292-.07,39.93-.117,76.258-.117l56.384.047,17.082.053,4.646.035h0l-4.646.035-17.082.053-56.384.053c-36.3,0-66.937-.053-76.228-.123l.047-.047v3.291A.421.421,0,0,1,219.74,379.316Z" transform="translate(-218.156 -198.873)" fill="#263238"/>
      <path id="Path_488" data-name="Path 488" d="M251.6,376a8.887,8.887,0,0,1,0,3.461A8.887,8.887,0,0,1,251.6,376Z" transform="translate(-231.257 -199.018)" fill="#263238"/>
      <path id="Path_489" data-name="Path 489" d="M286.82,376a8.886,8.886,0,0,1,0,3.461A8.887,8.887,0,0,1,286.82,376Z" transform="translate(-245.817 -199.018)" fill="#263238"/>
      <path id="Path_490" data-name="Path 490" d="M322.04,376a8.887,8.887,0,0,1,0,3.461A8.887,8.887,0,0,1,322.04,376Z" transform="translate(-260.377 -199.018)" fill="#263238"/>
      <path id="Path_491" data-name="Path 491" d="M357.26,376a8.887,8.887,0,0,1,0,3.461A8.887,8.887,0,0,1,357.26,376Z" transform="translate(-274.937 -199.018)" fill="#263238"/>
      <path id="Path_492" data-name="Path 492" d="M392.48,376a8.886,8.886,0,0,1,0,3.461A8.887,8.887,0,0,1,392.48,376Z" transform="translate(-289.497 -199.018)" fill="#263238"/>
      <path id="Path_493" data-name="Path 493" d="M427.7,376a8.887,8.887,0,0,1,0,3.461A8.887,8.887,0,0,1,427.7,376Z" transform="translate(-304.057 -199.018)" fill="#263238"/>
      <path id="Path_494" data-name="Path 494" d="M462.88,376a8.886,8.886,0,0,1,0,3.461,8.888,8.888,0,0,1,0-3.461Z" transform="translate(-318.601 -199.018)" fill="#263238"/>
      <rect id="Rectangle_154" data-name="Rectangle 154" width="41.748" height="176.548" transform="translate(27.758)" fill="#455a64"/>
      <rect id="Rectangle_155" data-name="Rectangle 155" width="12.688" height="24.449" transform="translate(35.489 8.811)" fill="#fff"/>
      <path id="Path_495" data-name="Path 495" d="M288.88,113.765c-.094,0-.17-5.479-.17-12.231s.076-12.225.17-12.225.164,5.473.164,12.225S288.956,113.765,288.88,113.765Z" transform="translate(-246.669 -80.499)" fill="#263238"/>
      <path id="Path_496" data-name="Path 496" d="M290.228,103.655a59.244,59.244,0,0,1-6.341.17,59.341,59.341,0,0,1-6.347-.17,59.339,59.339,0,0,1,6.347-.17A59.244,59.244,0,0,1,290.228,103.655Z" transform="translate(-242.051 -86.351)" fill="#263238"/>
      <path id="Path_497" data-name="Path 497" d="M290.274,118.565a60.415,60.415,0,0,1-6.4.17,60.265,60.265,0,0,1-6.394-.17,60.26,60.26,0,0,1,6.394-.17,60.416,60.416,0,0,1,6.4.17Z" transform="translate(-242.026 -92.514)" fill="#263238"/>
      <rect id="Rectangle_156" data-name="Rectangle 156" width="12.688" height="24.449" transform="translate(35.542 41.074)" fill="#fff"/>
      <path id="Path_498" data-name="Path 498" d="M288.93,168.769c-.094,0-.17-5.473-.17-12.225s.076-12.225.17-12.225.17,5.473.17,12.225S289.024,168.769,288.93,168.769Z" transform="translate(-246.689 -103.241)" fill="#263238"/>
      <path id="Path_499" data-name="Path 499" d="M290.318,158.655a59.441,59.441,0,0,1-6.347.17,59.247,59.247,0,0,1-6.341-.17,59.239,59.239,0,0,1,6.341-.17,59.433,59.433,0,0,1,6.347.17Z" transform="translate(-242.088 -109.088)" fill="#263238"/>
      <path id="Path_500" data-name="Path 500" d="M290.354,173.565a60.256,60.256,0,0,1-6.394.17,60.331,60.331,0,0,1-6.4-.17,60.323,60.323,0,0,1,6.4-.17,60.264,60.264,0,0,1,6.394.17Z" transform="translate(-242.059 -115.252)" fill="#263238"/>
      <rect id="Rectangle_157" data-name="Rectangle 157" width="12.688" height="24.449" transform="translate(35.542 73.055)" fill="#fff"/>
      <path id="Path_501" data-name="Path 501" d="M288.93,223.279c-.094,0-.17-5.473-.17-12.225s.076-12.225.17-12.225.17,5.473.17,12.225S289.024,223.279,288.93,223.279Z" transform="translate(-246.689 -125.775)" fill="#263238"/>
      <path id="Path_502" data-name="Path 502" d="M290.318,213.175a59.437,59.437,0,0,1-6.347.17,59.247,59.247,0,0,1-6.341-.17,59.247,59.247,0,0,1,6.341-.17A59.437,59.437,0,0,1,290.318,213.175Z" transform="translate(-242.088 -131.626)" fill="#263238"/>
      <path id="Path_503" data-name="Path 503" d="M290.354,228.085a60.268,60.268,0,0,1-6.394.17,60.331,60.331,0,0,1-6.4-.17,60.331,60.331,0,0,1,6.4-.17,60.268,60.268,0,0,1,6.394.17Z" transform="translate(-242.059 -137.79)" fill="#263238"/>
      <rect id="Rectangle_158" data-name="Rectangle 158" width="12.688" height="24.449" transform="translate(35.542 105.957)" fill="#fff"/>
      <path id="Path_504" data-name="Path 504" d="M288.93,279.375c-.094,0-.17-5.473-.17-12.225s.076-12.231.17-12.231.17,5.473.17,12.231S289.024,279.375,288.93,279.375Z" transform="translate(-246.689 -148.963)" fill="#263238"/>
      <path id="Path_505" data-name="Path 505" d="M290.318,269.27a59.437,59.437,0,0,1-6.347.17,59.247,59.247,0,0,1-6.341-.17,62.279,62.279,0,0,1,6.341-.164,62.439,62.439,0,0,1,6.347.164Z" transform="translate(-242.088 -154.82)" fill="#263238"/>
      <path id="Path_506" data-name="Path 506" d="M290.354,284.175a60.268,60.268,0,0,1-6.394.17,60.331,60.331,0,0,1-6.4-.17,60.315,60.315,0,0,1,6.4-.17A60.244,60.244,0,0,1,290.354,284.175Z" transform="translate(-242.059 -160.978)" fill="#263238"/>
      <rect id="Rectangle_159" data-name="Rectangle 159" width="30.421" height="176.548" transform="translate(56.841)" fill="#455a64"/>
      <g id="Group_4592" data-name="Group 4592" transform="translate(56.841)" opacity="0.3">
        <rect id="Rectangle_160" data-name="Rectangle 160" width="30.421" height="176.548"/>
      </g>
      <rect id="Rectangle_161" data-name="Rectangle 161" width="12.688" height="24.449" transform="translate(65.476 8.811)" fill="#fff"/>
      <path id="Path_507" data-name="Path 507" d="M339.97,113.765c-.094,0-.17-5.479-.17-12.231s.076-12.225.17-12.225.17,5.473.17,12.225S340.064,113.765,339.97,113.765Z" transform="translate(-267.789 -80.499)" fill="#263238"/>
      <path id="Path_508" data-name="Path 508" d="M341.348,103.655a118.38,118.38,0,0,1-12.688,0,118.38,118.38,0,0,1,12.688,0Z" transform="translate(-263.184 -86.351)" fill="#263238"/>
      <path id="Path_509" data-name="Path 509" d="M341.394,118.565a120.351,120.351,0,0,1-12.794,0,120.362,120.362,0,0,1,12.794,0Z" transform="translate(-263.159 -92.514)" fill="#263238"/>
      <rect id="Rectangle_162" data-name="Rectangle 162" width="12.688" height="24.449" transform="translate(65.529 41.994)" fill="#fff"/>
      <path id="Path_510" data-name="Path 510" d="M340.05,170.335c-.094,0-.17-5.479-.17-12.231s.076-12.225.17-12.225.17,5.473.17,12.225S340.144,170.335,340.05,170.335Z" transform="translate(-267.822 -103.886)" fill="#263238"/>
      <path id="Path_511" data-name="Path 511" d="M341.438,160.225a118.386,118.386,0,0,1-12.688,0,118.386,118.386,0,0,1,12.688,0Z" transform="translate(-263.221 -109.737)" fill="#263238"/>
      <path id="Path_512" data-name="Path 512" d="M341.474,175.135a120.362,120.362,0,0,1-12.794,0,120.357,120.357,0,0,1,12.794,0Z" transform="translate(-263.192 -115.901)" fill="#263238"/>
      <rect id="Rectangle_163" data-name="Rectangle 163" width="12.688" height="24.449" transform="translate(65.529 73.055)" fill="#fff"/>
      <path id="Path_513" data-name="Path 513" d="M340.05,223.279c-.094,0-.17-5.473-.17-12.225s.076-12.225.17-12.225.17,5.473.17,12.225S340.144,223.279,340.05,223.279Z" transform="translate(-267.822 -125.775)" fill="#263238"/>
      <path id="Path_514" data-name="Path 514" d="M341.438,213.175a118.386,118.386,0,0,1-12.688,0,118.386,118.386,0,0,1,12.688,0Z" transform="translate(-263.221 -131.626)" fill="#263238"/>
      <path id="Path_515" data-name="Path 515" d="M341.474,228.085a120.362,120.362,0,0,1-12.794,0,120.341,120.341,0,0,1,12.794,0Z" transform="translate(-263.192 -137.79)" fill="#263238"/>
      <rect id="Rectangle_164" data-name="Rectangle 164" width="12.688" height="24.449" transform="translate(66.045 106.491)" fill="#fff"/>
      <path id="Path_516" data-name="Path 516" d="M340.934,280.279c-.094,0-.164-5.473-.164-12.225s.07-12.225.164-12.225.17,5.473.17,12.225S341.028,280.279,340.934,280.279Z" transform="translate(-268.19 -149.339)" fill="#263238"/>
      <path id="Path_517" data-name="Path 517" d="M342.318,270.175a118.385,118.385,0,0,1-12.688,0,118.374,118.374,0,0,1,12.688,0Z" transform="translate(-263.585 -155.19)" fill="#263238"/>
      <path id="Path_518" data-name="Path 518" d="M342.358,285.085a120.252,120.252,0,0,1-12.788,0,120.241,120.241,0,0,1,12.788,0Z" transform="translate(-263.56 -161.354)" fill="#263238"/>
      <rect id="Rectangle_165" data-name="Rectangle 165" width="12.688" height="24.449" transform="translate(35.542 139.639)" fill="#fff"/>
      <path id="Path_519" data-name="Path 519" d="M288.93,336.765c-.094,0-.17-5.479-.17-12.231s.076-12.225.17-12.225.17,5.473.17,12.225S289.024,336.765,288.93,336.765Z" transform="translate(-246.689 -172.688)" fill="#263238"/>
      <path id="Path_520" data-name="Path 520" d="M290.318,326.685a59.421,59.421,0,0,1-6.347.17,59.247,59.247,0,0,1-6.341-.17,59.255,59.255,0,0,1,6.341-.17A59.436,59.436,0,0,1,290.318,326.685Z" transform="translate(-242.088 -178.552)" fill="#263238"/>
      <path id="Path_521" data-name="Path 521" d="M290.354,341.6a60.261,60.261,0,0,1-6.394.17,60.322,60.322,0,0,1-6.4-.17,60.322,60.322,0,0,1,6.4-.17,60.261,60.261,0,0,1,6.394.17Z" transform="translate(-242.059 -184.716)" fill="#263238"/>
      <rect id="Rectangle_166" data-name="Rectangle 166" width="12.688" height="24.449" transform="translate(65.529 140.689)" fill="#fff"/>
      <path id="Path_522" data-name="Path 522" d="M340.05,338.579c-.094,0-.17-5.473-.17-12.225s.076-12.225.17-12.225.17,5.473.17,12.225S340.144,338.579,340.05,338.579Z" transform="translate(-267.822 -173.441)" fill="#263238"/>
      <path id="Path_523" data-name="Path 523" d="M341.438,328.475a118.386,118.386,0,0,1-12.688,0,118.386,118.386,0,0,1,12.688,0Z" transform="translate(-263.221 -179.292)" fill="#263238"/>
      <path id="Path_524" data-name="Path 524" d="M341.474,343.385a120.319,120.319,0,0,1-12.794,0,120.341,120.341,0,0,1,12.794,0Z" transform="translate(-263.192 -185.456)" fill="#263238"/>
      <rect id="Rectangle_167" data-name="Rectangle 167" width="14.794" height="21.381" transform="translate(122.833 97.956) rotate(180)" fill="#fb7712"/>
      <rect id="Rectangle_169" data-name="Rectangle 169" width="14.794" height="21.381" transform="translate(109.524 97.956) rotate(180)" fill="#fe9900"/>
      <path id="Path_525" data-name="Path 525" d="M384.513,225.272v-3.385c0-2.176-.029-5.232-.053-8.8V213h6.769l.106.111h0v12.254h-.106l-4.933-.041h.053l4.88-.041-.082.076V213.188h0c-.094-.1.129.123.106.1h-6.74l.1-.1c0,3.52-.035,6.57-.047,8.734,0,1.068,0,1.924-.029,2.528v.68A1.087,1.087,0,0,1,384.513,225.272Z" transform="translate(-286.252 -131.633)" fill="#263238"/>
      <path id="Path_526" data-name="Path 526" d="M386.493,224.612a.29.29,0,0,1,.246.17.381.381,0,0,1-.035.358.385.385,0,1,1-.5-.551c.188-.1.317,0,.293,0a.289.289,0,0,0-.211.1.194.194,0,0,0,.059.346c.182.07.282-.094.252-.235S386.487,224.642,386.493,224.612Z" transform="translate(-286.889 -136.406)" fill="#263238"/>
      <rect id="Rectangle_170" data-name="Rectangle 170" width="61.352" height="82.693" transform="translate(141.006 176.683) rotate(180)" fill="#fe9900"/>
      <path id="Path_527" data-name="Path 527" d="M406.32,298.717l32.908.041V216.03H406.32Z" transform="translate(-289.477 -122.034)" fill="#fb7712"/>
      <rect id="Rectangle_171" data-name="Rectangle 171" width="11.222" height="11.222" transform="translate(95.381 150.081) rotate(180)" fill="#ebebeb"/>
      <path id="Path_529" data-name="Path 529" d="M369.266,322.965c-.059,0-.106-2.9-.106-6.453s.047-6.453.106-6.453.106,2.9.106,6.453S369.324,322.965,369.266,322.965Z" transform="translate(-279.927 -171.758)" fill="#455a64"/>
      <path id="Path_530" data-name="Path 530" d="M356.92,317.346c0-.059,3.261-.106,7.286-.106s7.291.047,7.291.106-3.261.106-7.291.106S356.92,317.4,356.92,317.346Z" transform="translate(-274.867 -174.726)" fill="#455a64"/>
      <rect id="Rectangle_172" data-name="Rectangle 172" width="11.222" height="11.222" transform="translate(111.389 150.081) rotate(180)" fill="#ebebeb"/>
      <path id="Path_531" data-name="Path 531" d="M396.551,322.965c-.059,0-.111-2.9-.111-6.453s.053-6.453.111-6.453.106,2.9.106,6.453S396.61,322.965,396.551,322.965Z" transform="translate(-291.204 -171.758)" fill="#455a64"/>
      <path id="Path_532" data-name="Path 532" d="M384.2,317.346c0-.059,3.261-.106,7.286-.106s7.291.047,7.291.106-3.261.106-7.291.106S384.2,317.4,384.2,317.346Z" transform="translate(-286.144 -174.726)" fill="#455a64"/>
      <rect id="Rectangle_173" data-name="Rectangle 173" width="11.222" height="11.222" transform="translate(95.381 132.354) rotate(180)" fill="#ebebeb"/>
      <path id="Path_533" data-name="Path 533" d="M369.266,292.745c-.059,0-.106-2.9-.106-6.453s.047-6.453.106-6.453.106,2.9.106,6.453S369.324,292.745,369.266,292.745Z" transform="translate(-279.927 -159.265)" fill="#455a64"/>
      <path id="Path_534" data-name="Path 534" d="M356.92,287.126c0-.059,3.261-.106,7.286-.106s7.291.047,7.291.106-3.261.106-7.291.106S356.92,287.184,356.92,287.126Z" transform="translate(-274.867 -162.233)" fill="#455a64"/>
      <rect id="Rectangle_174" data-name="Rectangle 174" width="11.222" height="11.222" transform="translate(111.389 132.354) rotate(180)" fill="#ebebeb"/>
      <path id="Path_535" data-name="Path 535" d="M396.551,292.745c-.059,0-.111-2.9-.111-6.453s.053-6.453.111-6.453.106,2.9.106,6.453S396.61,292.745,396.551,292.745Z" transform="translate(-291.204 -159.265)" fill="#455a64"/>
      <path id="Path_536" data-name="Path 536" d="M384.2,287.126c0-.059,3.261-.106,7.286-.106s7.291.047,7.291.106-3.261.106-7.291.106S384.2,287.184,384.2,287.126Z" transform="translate(-286.144 -162.233)" fill="#455a64"/>
      <rect id="Rectangle_175" data-name="Rectangle 175" width="11.222" height="11.222" transform="translate(95.381 114.586) rotate(180)" fill="#ebebeb"/>
      <path id="Path_537" data-name="Path 537" d="M369.266,262.455c-.059,0-.106-2.9-.106-6.453s.047-6.453.106-6.453.106,2.9.106,6.453S369.324,262.455,369.266,262.455Z" transform="translate(-279.927 -146.743)" fill="#455a64"/>
      <path id="Path_538" data-name="Path 538" d="M356.92,256.836c0-.059,3.261-.106,7.286-.106s7.291.047,7.291.106-3.261.106-7.291.106S356.92,256.888,356.92,256.836Z" transform="translate(-274.867 -149.711)" fill="#455a64"/>
      <rect id="Rectangle_176" data-name="Rectangle 176" width="11.222" height="11.222" transform="translate(111.389 114.586) rotate(180)" fill="#ebebeb"/>
      <path id="Path_539" data-name="Path 539" d="M396.551,262.455c-.059,0-.111-2.9-.111-6.453s.053-6.453.111-6.453.106,2.9.106,6.453S396.61,262.455,396.551,262.455Z" transform="translate(-291.204 -146.743)" fill="#455a64"/>
      <path id="Path_540" data-name="Path 540" d="M384.2,256.836c0-.059,3.261-.106,7.286-.106s7.291.047,7.291.106-3.261.106-7.291.106S384.2,256.888,384.2,256.836Z" transform="translate(-286.144 -149.711)" fill="#455a64"/>
      <g id="Group_4595" data-name="Group 4595" transform="translate(127.714 103.364)" opacity="0.7">
        <rect id="Rectangle_177" data-name="Rectangle 177" width="11.222" height="11.222" transform="translate(11.222 11.222) rotate(180)" fill="#fff"/>
      </g>
      <path id="Path_541" data-name="Path 541" d="M444.246,262.455c-.059,0-.106-2.9-.106-6.453s.047-6.453.106-6.453.106,2.9.106,6.453S444.3,262.455,444.246,262.455Z" transform="translate(-310.924 -146.743)" fill="#263238"/>
      <path id="Path_542" data-name="Path 542" d="M431.16,256.836c0-.059,3.267-.106,7.291-.106s7.286.047,7.286.106-3.261.106-7.286.106S431.16,256.888,431.16,256.836Z" transform="translate(-305.558 -149.711)" fill="#263238"/>
      <g id="Group_4596" data-name="Group 4596" transform="translate(127.714 121.302)" opacity="0.7">
        <rect id="Rectangle_178" data-name="Rectangle 178" width="11.222" height="11.222" transform="translate(11.222 11.222) rotate(180)" fill="#fff"/>
      </g>
      <path id="Path_543" data-name="Path 543" d="M444.246,293.045c-.059,0-.106-2.9-.106-6.453s.047-6.453.106-6.453.106,2.9.106,6.453S444.3,293.045,444.246,293.045Z" transform="translate(-310.924 -159.389)" fill="#263238"/>
      <path id="Path_544" data-name="Path 544" d="M431.16,287.426c0-.059,3.267-.106,7.291-.106s7.286.047,7.286.106-3.261.106-7.286.106S431.16,287.484,431.16,287.426Z" transform="translate(-305.558 -162.357)" fill="#263238"/>
      <g id="Group_4597" data-name="Group 4597" transform="translate(127.714 139.252)" opacity="0.7">
        <rect id="Rectangle_179" data-name="Rectangle 179" width="11.222" height="11.222" transform="translate(11.222 11.222) rotate(180)" fill="#fff"/>
      </g>
      <path id="Path_545" data-name="Path 545" d="M444.246,323.625c-.059,0-.106-2.9-.106-6.453s.047-6.453.106-6.453.106,2.9.106,6.453S444.3,323.625,444.246,323.625Z" transform="translate(-310.924 -172.031)" fill="#263238"/>
      <path id="Path_546" data-name="Path 546" d="M431.16,318.016c0-.059,3.267-.106,7.291-.106s7.286.047,7.286.106-3.261.106-7.286.106S431.16,318.074,431.16,318.016Z" transform="translate(-305.558 -175.003)" fill="#263238"/>
      <path id="Path_547" data-name="Path 547" d="M374.44,360.416v-1.543c0-1.015,0-2.464-.029-4.27,0-3.654,0-8.746-.041-14.583v-.1H386.1v.1c0,5.866,0,11.022-.035,14.712v5.884a.671.671,0,0,1,0-.1v-5.784c0-3.69,0-8.828-.035-14.712l.1.106h-11.5l.106-.106c0,5.866-.029,10.928-.041,14.583,0,1.807,0,3.256-.029,4.27v1.443C374.669,360.392,374.44,360.416,374.44,360.416Z" transform="translate(-282.081 -184.102)" fill="#263238"/>
      <rect id="Rectangle_180" data-name="Rectangle 180" width="3.918" height="9.38" transform="translate(102.414 166.511) rotate(180)" fill="#e0e0e0"/>
      <path id="Path_548" data-name="Path 548" d="M388.872,351.556H384.93V342.17h3.942Zm-3.924,0h3.9V342.17h-3.877Z" transform="translate(-286.446 -185.032)" fill="#263238"/>
      <rect id="Rectangle_181" data-name="Rectangle 181" width="3.918" height="9.38" transform="translate(97.727 166.511) rotate(180)" fill="#e0e0e0"/>
      <path id="Path_549" data-name="Path 549" d="M380.882,351.556H376.94V342.17h3.942Zm-3.924,0h3.9V342.17h-3.883Z" transform="translate(-283.143 -185.032)" fill="#263238"/>
      <path id="Path_550" data-name="Path 550" d="M376.449,359.774c0,.029-.194.029-.282.252a.464.464,0,0,0,0,.375.381.381,0,0,0,.375.188.393.393,0,0,0,.282-.317.358.358,0,0,0-.129-.34c-.188-.153-.364-.117-.37-.147s.182-.141.458.029a.5.5,0,0,1,.235.481.54.54,0,0,1-1.05.176.587.587,0,0,1,.041-.534.422.422,0,0,1,.287-.211C376.408,359.739,376.449,359.756,376.449,359.774Z" transform="translate(-282.722 -192.289)" fill="#263238"/>
      <path id="Path_551" data-name="Path 551" d="M356.259,338.668a1.034,1.034,0,0,1,0-.129V336.65h6.576l.041.041h0v2.041h-.029l-.041.041v-2h0c.082.088,0,0,.041.047H356.3v1.848C356.3,338.779,356.259,338.668,356.259,338.668Z" transform="translate(-274.593 -182.75)" fill="#263238"/>
      <path id="Path_552" data-name="Path 552" d="M399.679,331.548a1.213,1.213,0,0,1,0-.135V329.5h6.576s-.041-.047.041.041h0V331.6h-.035l-.041.047V329.63h0l.041.041h-6.546v1.871C399.714,331.654,399.679,331.548,399.679,331.548Z" transform="translate(-292.543 -179.79)" fill="#263238"/>
      <path id="Path_553" data-name="Path 553" d="M406.64,303.578V301.56h6.546l.047.041h0v2.041H413.2l-.041.041v-2h0c.088.088,0,0,.041.047h-6.546l.029-.029v1.877Z" transform="translate(-295.421 -168.244)" fill="#263238"/>
      <path id="Path_554" data-name="Path 554" d="M366.51,273.478V271.46h6.552l.041.041h0v2.035h-.035l-.041.047v-2.012h0l.047.041h-6.523v1.871C366.516,273.425,366.51,273.478,366.51,273.478Z" transform="translate(-278.831 -155.801)" fill="#263238"/>
      <path id="Path_555" data-name="Path 555" d="M398.279,241.338a1.035,1.035,0,0,1,0-.129V239.32h6.546l.041.041h0V241.4h-.035l-.041.041v-2h0c.082.088,0,0,.041.047h-6.546v1.848C398.284,241.449,398.279,241.338,398.279,241.338Z" transform="translate(-291.964 -142.514)" fill="#263238"/>
      <path id="Path_556" data-name="Path 556" d="M359.749,276.775a1.034,1.034,0,0,1,0-.129v-1.912h6.576l.047.047h0v2.041h-.029l-.041.041v-2h0l.041.041h-6.517v1.871Z" transform="translate(-276.035 -157.15)" fill="#263238"/>
      <path id="Path_557" data-name="Path 557" d="M411.43,306.948V304.93h6.546l.047.041h0v2.041h-.029l-.041.041v-2.082h0l.041.041h-6.546l.029-.029v1.877C411.477,306.977,411.43,306.948,411.43,306.948Z" transform="translate(-297.401 -169.637)" fill="#263238"/>
      <path id="Path_558" data-name="Path 558" d="M406.64,244.778V242.76h6.546l.047.041h0v2.041H413.2l-.041.041v-2h0l.041.041h-6.546l.029-.029v1.766A.353.353,0,0,0,406.64,244.778Z" transform="translate(-295.421 -143.936)" fill="#263238"/>
      <path id="Path_559" data-name="Path 559" d="M352.639,342.108a1.035,1.035,0,0,1,0-.129V340.09h6.576l.041.041h0v2.041h-.029l-.041.041v-2h0l.047.047h-6.546v1.848Z" transform="translate(-273.096 -184.173)" fill="#263238"/>
    </g>
    <g id="Address" transform="translate(201.496 31.649)">
      <path id="Path_560" data-name="Path 560" d="M400.346,95.8H343.81v39.349h21.141l7.215,7.843,7.18-7.843h21Z" transform="translate(-343.628 -71.253)" fill="#fff"/>
      <path id="Path_561" data-name="Path 561" d="M409.432,114.2v2.745c0,1.818,0,4.476.029,7.884,0,6.851.035,16.695.065,28.743v.117H388.409l.1-.047-7.174,7.849-.106.117-.106-.117-7.221-7.843.111.047H352.72V114.05h.164l40.88.07,11.562.035h-.018l-11.591.041-40.792.065.135-.135v39.349l-.153-.152h21.211l.041.047,7.209,7.849h-.211l7.18-7.843.041-.041h21.059l-.117.123c0-11.99.047-21.81.065-28.644,0-3.42,0-6.089.029-7.913v-2.077C409.415,114.343,409.432,114.2,409.432,114.2Z" transform="translate(-352.72 -89.65)" fill="#263238"/>
      <path id="Path_562" data-name="Path 562" d="M392.536,72.458a12.037,12.037,0,0,0-9.485,19.088h0l.117.158h0l8.535,11.574a1.83,1.83,0,0,0,2.992-.065L402.4,91.757a13.057,13.057,0,0,0,2.458-7.286,12.037,12.037,0,0,0-12.324-12.014Zm.287,20.789a9.051,9.051,0,1,1,9.051-9.051,9.051,9.051,0,0,1-9.051,9.051Z" transform="translate(-364.315 -72.454)" fill="#ff725e"/>
      <g id="Group_4598" data-name="Group 4598" transform="translate(16.452)" opacity="0.3">
        <path id="Path_563" data-name="Path 563" d="M392.536,72.458a12.037,12.037,0,0,0-9.485,19.088h0l.117.158h0l8.535,11.574a1.83,1.83,0,0,0,2.992-.065L402.4,91.757a13.057,13.057,0,0,0,2.458-7.286,12.037,12.037,0,0,0-12.324-12.014Zm.287,20.789a9.051,9.051,0,1,1,9.051-9.051,9.051,9.051,0,0,1-9.051,9.051Z" transform="translate(-380.767 -72.454)"/>
      </g>
      <path id="Path_564" data-name="Path 564" d="M391.316,72.458a12.037,12.037,0,0,0-9.485,19.088h0l.117.158h0l8.535,11.574a1.836,1.836,0,0,0,3-.065l7.7-11.456a13.013,13.013,0,0,0,2.458-7.286,12.037,12.037,0,0,0-12.324-12.014Zm.287,19.158a6.857,6.857,0,1,1,6.851-6.857A6.857,6.857,0,0,1,391.6,91.616Z" transform="translate(-363.81 -72.454)" fill="#fe9900"/>
      <text id="ADDRESS:" transform="translate(5.508 41.839)" fill="#263238" font-size="2" font-family="Montserrat-ExtraBold, Montserrat" font-weight="800"><tspan x="0" y="0">ADDRES</tspan><tspan y="0" letter-spacing="-0.01em">S</tspan><tspan y="0">:</tspan></text>
      <text id="POST_CODE_:" data-name="POST CODE :" transform="translate(5.508 56.463)" fill="#263238" font-size="2" font-family="Montserrat-ExtraBold, Montserrat" font-weight="800"><tspan x="0" y="0">PO</tspan><tspan y="0" letter-spacing="-0.01em">S</tspan><tspan y="0">T </tspan><tspan y="0" letter-spacing="-0.02em">C</tspan><tspan y="0">ODE :</tspan></text>
      <text id="CITY:" transform="translate(5.508 46.35)" fill="#263238" font-size="2" font-family="Montserrat-ExtraBold, Montserrat" font-weight="800"><tspan x="0" y="0">CI</tspan><tspan y="0" letter-spacing="-0.02em">T</tspan><tspan y="0" letter-spacing="-0.04em">Y</tspan><tspan y="0">:</tspan></text>
      <text id="DELIVERY_ADDRESS" data-name="DELIVERY ADDRESS" transform="translate(6.247 35.967)" fill="#263238" font-size="4" font-family="Montserrat-ExtraBold, Montserrat" font-weight="800"><tspan x="0" y="0">DELI</tspan><tspan y="0" letter-spacing="-0.02em">V</tspan><tspan y="0">E</tspan><tspan y="0" letter-spacing="-0.01em">R</tspan><tspan y="0">Y ADDRESS</tspan></text>
      <path id="Path_565" data-name="Path 565" d="M417.9,142.563c0,.082-5.584.153-12.477.153s-12.483-.07-12.483-.153,5.59-.153,12.483-.153S417.9,142.475,417.9,142.563Z" transform="translate(-369.347 -101.374)"/>
      <path id="Path_566" data-name="Path 566" d="M401.029,151.083c0,.082-4.617.153-10.312.153s-10.307-.07-10.307-.153,4.617-.153,10.307-.153S401.029,151,401.029,151.083Z" transform="translate(-364.167 -104.896)"/>
      <text id="COUNTRY:" transform="translate(5.508 51.207)" fill="#263238" font-size="2" font-family="Montserrat-ExtraBold, Montserrat" font-weight="800"><tspan x="0" y="0" letter-spacing="-0.01em">C</tspan><tspan y="0">OUNT</tspan><tspan y="0" letter-spacing="-0.01em">R</tspan><tspan y="0" letter-spacing="-0.04em">Y</tspan><tspan y="0">:</tspan></text>
      <path id="Path_567" data-name="Path 567" d="M408.268,159.943c0,.088-3.432.153-7.661.153s-7.667-.065-7.667-.153,3.432-.153,7.667-.153S408.268,159.86,408.268,159.943Z" transform="translate(-369.347 -108.559)"/>
      <path id="Path_568" data-name="Path 568" d="M422.569,170.193c0,.088-5.279.153-11.8.153S399,170.281,399,170.193s5.279-.153,11.8-.153S422.569,170.11,422.569,170.193Z" transform="translate(-371.852 -112.796)"/>
    </g>
    <g id="Character" transform="translate(0 97.007)">
      <path id="Path_569" data-name="Path 569" d="M57.14,411.039H0l3.22-3.179h55.8Z" transform="translate(0 -265.618)" fill="#e0e0e0"/>
      <path id="Path_570" data-name="Path 570" d="M188.45,315.6a6.316,6.316,0,0,0,1.021-.622c.616-.411,1.455-.985,2.346-1.637l.463-.328-.17-.041c.493.862.933,1.619,1.261,2.153a4.627,4.627,0,0,0,.587.839,4.224,4.224,0,0,0-.428-.915c-.287-.557-.71-1.332-1.173-2.194l-.07-.117-.106.076-.469.328c-.915.651-1.76,1.249-2.346,1.7a5.514,5.514,0,0,0-.915.763Z" transform="translate(-83.314 -237.147)" fill="#263238"/>
      <circle id="Ellipse_61" data-name="Ellipse 61" cx="19.235" cy="19.235" r="19.235" transform="translate(132.997 159.779) rotate(-85.996)" fill="#263238"/>
      <path id="Path_571" data-name="Path 571" d="M236.819,425.23v.053a19.187,19.187,0,1,0,38.37.551s0-.035,0-.047Z" transform="translate(-103.309 -283.651)" fill="#263238"/>
      <path id="Path_572" data-name="Path 572" d="M246.559,416.1a13.492,13.492,0,1,0,13.662-13.275A13.492,13.492,0,0,0,246.559,416.1Z" transform="translate(-107.336 -274.39)" fill="#fafafa"/>
      <path id="Path_573" data-name="Path 573" d="M260.222,402.829A13.492,13.492,0,0,0,246.56,416.1l26.937.387A13.492,13.492,0,0,0,260.222,402.829Z" transform="translate(-107.337 -274.39)" fill="#e0e0e0"/>
      <path id="Path_574" data-name="Path 574" d="M255.529,419.889a8.212,8.212,0,1,0,8.324-8.089A8.212,8.212,0,0,0,255.529,419.889Z" transform="translate(-111.045 -278.098)" fill="#263238"/>
      <path id="Path_575" data-name="Path 575" d="M244.6,377.294s19.645-5.942,27.775,15.4L231.27,405.427Z" transform="translate(-101.016 -263.52)" fill="#455a64"/>
      <path id="Path_576" data-name="Path 576" d="M35,411.99a19.188,19.188,0,1,0,19.457-18.912A19.188,19.188,0,0,0,35,411.99Z" transform="translate(-19.876 -270.359)" fill="#263238"/>
      <path id="Path_577" data-name="Path 577" d="M35,425.23v.053a19.187,19.187,0,1,0,38.37.551s0-.035,0-.047Z" transform="translate(-19.876 -283.651)" fill="#263238"/>
      <path id="Path_578" data-name="Path 578" d="M44.739,416.1a13.492,13.492,0,1,0,13.644-13.275A13.492,13.492,0,0,0,44.739,416.1Z" transform="translate(-23.903 -274.39)" fill="#fafafa"/>
      <path id="Path_579" data-name="Path 579" d="M58.372,402.829A13.492,13.492,0,0,0,44.71,416.1l26.937.387A13.492,13.492,0,0,0,58.372,402.829Z" transform="translate(-23.892 -274.39)" fill="#e0e0e0"/>
      <path id="Path_580" data-name="Path 580" d="M53.709,419.889a8.212,8.212,0,1,0,8.324-8.089A8.212,8.212,0,0,0,53.709,419.889Z" transform="translate(-27.612 -278.098)" fill="#263238"/>
      <path id="Path_581" data-name="Path 581" d="M91.146,411.56c-.135.053-10.107-1.56-10.107-1.56h0a6.1,6.1,0,0,1-4.558,2.387c-4.311.205-8.535.4-12.189.587a6.183,6.183,0,0,0-5.9,6.411h0a6.2,6.2,0,0,0,5.942,5.93l21.247.833a14.205,14.205,0,0,0,10.324-4.693h0Z" transform="translate(-29.548 -277.355)" fill="#455a64"/>
      <path id="Path_582" data-name="Path 582" d="M25.234,362.371s-.915-18.695,16.659-22.6v-2.393h61.557V343.1s-9.034,10.881-6.083,19.915,3.872,9.972,3.872,9.972h35.037A23.98,23.98,0,0,0,140.7,359.7c.188-7.925-3.109-21.487-5.567-30.151-2.235-7.884-3.649-14.471-3.649-14.471l10.506-3.52s19.452,25.429,20.243,26.86,3.52,4.763,2.863,12.072-18.114,29.87-22.719,32.415-8.764,2.7-12.87,3.344c-3.59.551-30.11.182-37.049.076a13.568,13.568,0,0,1-6.851-1.9c-2.077-1.255-3.637-3.338-5.356-6.758L76.6,370.519Z" transform="translate(-15.837 -236.659)" fill="#455a64"/>
      <path id="Path_583" data-name="Path 583" d="M27.587,396l-7.755,12.125a1.889,1.889,0,0,0,2.317,2.775,8.8,8.8,0,0,0,2.6-1.76c3.549-3.379,9.872-12.266,9.872-12.266Z" transform="translate(-13.479 -271.567)" fill="#455a64"/>
      <path id="Path_584" data-name="Path 584" d="M90.659,384.778a1.062,1.062,0,0,1,.041-.176q.059-.182.158-.51a13.132,13.132,0,0,0,.4-2,14.119,14.119,0,0,0-1.173-7.332,15.469,15.469,0,0,0-2.857-4.294,18.83,18.83,0,0,0-4.693-3.6,23.7,23.7,0,0,0-6.148-2.288,32.262,32.262,0,0,0-7.039-.727,53.964,53.964,0,0,0-7.039.516c-2.27.311-4.452.686-6.505,1.173a38.387,38.387,0,0,0-10.441,3.86,26.02,26.02,0,0,0-5.966,4.552c-.622.639-1.062,1.173-1.361,1.537l-.334.416a.98.98,0,0,1-.117.135,15.643,15.643,0,0,1,1.76-2.153,25.29,25.29,0,0,1,5.954-4.634,37.9,37.9,0,0,1,10.477-3.936c2.059-.475,4.241-.856,6.517-1.173a53.419,53.419,0,0,1,7.1-.528,32.052,32.052,0,0,1,7.074.739,24.173,24.173,0,0,1,6.206,2.346,18.988,18.988,0,0,1,4.751,3.654,15.434,15.434,0,0,1,2.868,4.364,14.078,14.078,0,0,1,1.132,7.415,12.112,12.112,0,0,1-.452,2.006l-.182.5A1.607,1.607,0,0,1,90.659,384.778Z" transform="translate(-20.948 -258.181)" fill="#263238"/>
      <path id="Path_585" data-name="Path 585" d="M112.306,383.307c-.029,0,.1-.3.235-.833a6.1,6.1,0,0,0,.065-2.346,9.6,9.6,0,0,0-1.138-3.256,11.217,11.217,0,0,0-1.138-1.707,10.469,10.469,0,0,0-1.543-1.56,13.544,13.544,0,0,0-3.66-2.141,17.158,17.158,0,0,0-3.361-.915,22.754,22.754,0,0,0-2.346-.27,6.575,6.575,0,0,1-.868-.065.864.864,0,0,1,.229,0h.645a17.606,17.606,0,0,1,2.346.194,16.623,16.623,0,0,1,3.414.874,13.491,13.491,0,0,1,3.737,2.165,10.342,10.342,0,0,1,1.554,1.619,11.731,11.731,0,0,1,1.173,1.76,9.556,9.556,0,0,1,1.12,3.344,5.8,5.8,0,0,1-.153,2.376,3.125,3.125,0,0,1-.223.587A1.173,1.173,0,0,1,112.306,383.307Z" transform="translate(-46.149 -260.904)" fill="#f5f5f5"/>
      <g id="Group_4599" data-name="Group 4599" transform="translate(54.108 106.019)" opacity="0.4">
        <path id="Path_586" data-name="Path 586" d="M101.46,364.61a24.637,24.637,0,0,1,9.268,3.772,16.425,16.425,0,0,1,6.212,7.714,13.543,13.543,0,0,1-.252,9.972l4.353.358a15.967,15.967,0,0,0-3.649-14.7,21.61,21.61,0,0,0-15.932-7.115" transform="translate(-101.46 -364.61)"/>
      </g>
      <path id="Path_587" data-name="Path 587" d="M114.974,359.2c0,.07-13.838.123-30.9.123s-30.9-.053-30.9-.123,13.838-.123,30.9-.123S114.974,359.139,114.974,359.2Z" transform="translate(-27.389 -256.304)" fill="#263238"/>
      <path id="Path_588" data-name="Path 588" d="M138.389,351.181a5.356,5.356,0,0,0,1.115-2.757c.094-1.549-.587-3.484-2.27-3.484H115.976a6.236,6.236,0,0,0-6.236,6.241Z" transform="translate(-50.775 -250.459)" fill="#455a64"/>
      <path id="Path_589" data-name="Path 589" d="M203.45,302.839l-3.7-7.708a4.693,4.693,0,0,1,1.871-6.03l11.051-6.593a3.725,3.725,0,0,1,1.912-.528h2.387l.962,15.58L214.244,299l2.346,3.789Z" transform="translate(-87.803 -224.431)" fill="#455a64"/>
      <path id="Path_590" data-name="Path 590" d="M229.48,282.94s3.784.868,4.259,6.7-3.332,7.626-3.332,7.626Z" transform="translate(-100.276 -224.828)" fill="#fff"/>
      <path id="Path_591" data-name="Path 591" d="M229.479,282.928a1.326,1.326,0,0,1,.041.311c0,.223.041.5.07.839.059.763.141,1.795.241,3.062.2,2.581.463,6.13.722,10.125l-.217-.129a5.11,5.11,0,0,0,1.109-.821,6.775,6.775,0,0,0,1.666-2.6,9,9,0,0,0,.522-2.857,10.876,10.876,0,0,0-.933-4.828,6.271,6.271,0,0,0-2.129-2.528,6.817,6.817,0,0,0-1.091-.587,1.063,1.063,0,0,1,.317.07,4.594,4.594,0,0,1,.839.4,6.13,6.13,0,0,1,2.258,2.528,10.87,10.87,0,0,1,1.021,4.933,9.034,9.034,0,0,1-.522,2.933,7.039,7.039,0,0,1-1.76,2.716,5.31,5.31,0,0,1-1.173.88l-.205.106v-.235c-.258-4.065-.458-7.684-.587-10.26-.059-1.249-.111-2.27-.147-3.027a5.38,5.38,0,0,0-.035-.8A1.418,1.418,0,0,1,229.479,282.928Z" transform="translate(-100.275 -224.815)" fill="#263238"/>
      <path id="Path_592" data-name="Path 592" d="M197.475,299.009s-10.072,4.775-11.3,5.532a2.349,2.349,0,0,0-.915,3.173c1.144,2.851,5.866.17,5.866.17l9.386-4.693s3.6-1.707,2.27-3.83C201.265,297,197.475,299.009,197.475,299.009Z" transform="translate(-81.886 -231.142)" fill="#263238"/>
      <ellipse id="Ellipse_62" data-name="Ellipse 62" cx="2.986" cy="5.262" rx="2.986" ry="5.262" transform="translate(111.33 51.091)" fill="#263238"/>
      <path id="Path_593" data-name="Path 593" d="M204.93,285.371l1.642,5.684a1.467,1.467,0,0,0,.763-1.678c-.411-1.948-.645-3.332-1.1-5.039-.053-.17-1.308,1.032-1.308,1.032" transform="translate(-90.127 -225.399)" fill="#263238"/>
      <g id="Group_4600" data-name="Group 4600" transform="translate(80.147 75.857)" opacity="0.3">
        <path id="Path_594" data-name="Path 594" d="M148.044,366.113c-.164-.469-.328-.944-.487-1.437s-.317-.933-.44-1.39a14.862,14.862,0,0,1-.411-2.141c-2.769,11.269,1.455,19.205,8.717,19.762,10.6.815,23.528,1.408,28.743.035,9.532-2.5,13.028-10.447,13.861-11.732s8.418-15.169,3.772-28.509-12.741-27.511-12.747-27.511l-7.714,2.575s1.414,6.587,3.649,14.471c2.458,8.664,5.755,22.226,5.567,30.151a23.98,23.98,0,0,1-4.423,13.281H151.106s-.751-.751-3.062-7.532" transform="translate(-145.851 -313.19)"/>
      </g>
      <path id="Path_595" data-name="Path 595" d="M22.839,391.295l.246-2.675,63.939,7.368a6.324,6.324,0,0,1,5.485,7.379l-.287,1.619-66.174-9.62a3.766,3.766,0,0,1-3.209-4.071Z" transform="translate(-14.843 -268.516)" fill="#455a64"/>
      <g id="Group_4601" data-name="Group 4601" transform="translate(7.979 120.104)" opacity="0.3">
        <path id="Path_596" data-name="Path 596" d="M22.839,391.295l.246-2.675,63.939,7.368a6.324,6.324,0,0,1,5.485,7.379l-.287,1.619-66.174-9.62a3.766,3.766,0,0,1-3.209-4.071Z" transform="translate(-22.823 -388.62)"/>
      </g>
      <g id="Group_4602" data-name="Group 4602" transform="translate(132.336 113.011)" opacity="0.3">
        <path id="Path_597" data-name="Path 597" d="M234.82,404.188S248.9,388.707,251.8,376.53a27.713,27.713,0,0,1,4.358.323S247.831,399.483,234.82,404.188Z" transform="translate(-234.82 -376.529)"/>
      </g>
      <path id="Path_598" data-name="Path 598" d="M251.1,367.23a2.013,2.013,0,0,1,.076.393c.035.258.111.634.164,1.132a17.8,17.8,0,0,1-.111,4.2,21.394,21.394,0,0,1-1.859,5.954,66.721,66.721,0,0,1-3.725,6.658,88.981,88.981,0,0,1-8.242,11.145c-1.144,1.355-2.088,2.434-2.751,3.173l-.757.851a2.288,2.288,0,0,1-.282.287,2.192,2.192,0,0,1,.241-.317l.727-.88,2.692-3.226a96.078,96.078,0,0,0,8.16-11.145,71.32,71.32,0,0,0,3.737-6.629,21.862,21.862,0,0,0,1.889-5.866,18.283,18.283,0,0,0,.182-4.171c-.029-.493-.094-.874-.111-1.132A2.517,2.517,0,0,1,251.1,367.23Z" transform="translate(-101.983 -259.674)" fill="#263238"/>
      <path id="Path_599" data-name="Path 599" d="M218.875,420.5a37.674,37.674,0,0,1-4.335-4.247,19,19,0,0,1,2.253,2.035A18.569,18.569,0,0,1,218.875,420.5Z" transform="translate(-94.1 -279.939)" fill="#263238"/>
      <path id="Path_600" data-name="Path 600" d="M150.71,420.067a6.488,6.488,0,0,1,1.032-2.006,6.8,6.8,0,0,1,1.478-1.7c.059.047-.587.821-1.273,1.836S150.775,420.1,150.71,420.067Z" transform="translate(-67.712 -279.984)" fill="#263238"/>
      <path id="Path_601" data-name="Path 601" d="M99.879,427.859a9.491,9.491,0,0,0,1.918-2.44,8.441,8.441,0,0,0,.944-3.215,7.462,7.462,0,0,0-3.367-7.039,8.365,8.365,0,0,0-3.091-1.29,9.315,9.315,0,0,0-3.1-.041,1.642,1.642,0,0,1,.211-.065,4.105,4.105,0,0,1,.587-.117,7.25,7.25,0,0,1,2.311.053,8.377,8.377,0,0,1,3.179,1.273,7.561,7.561,0,0,1,3.467,7.268,8.341,8.341,0,0,1-1.015,3.273,7.414,7.414,0,0,1-1.408,1.83c-.194.194-.375.311-.481.4a.8.8,0,0,1-.153.106Z" transform="translate(-43.929 -278.836)" fill="#263238"/>
      <path id="Path_602" data-name="Path 602" d="M64.588,426.373a10.33,10.33,0,0,1-.229-2.253,11.052,11.052,0,0,1,0-2.27,10.354,10.354,0,0,1,.229,2.258A10.559,10.559,0,0,1,64.588,426.373Z" transform="translate(-31.99 -282.254)" fill="#263238"/>
      <path id="Path_603" data-name="Path 603" d="M67.268,426.374a10.981,10.981,0,0,1-.411-2.253,11.18,11.18,0,0,1-.17-2.282,10.435,10.435,0,0,1,.411,2.253A10.26,10.26,0,0,1,67.268,426.374Z" transform="translate(-32.975 -282.25)" fill="#263238"/>
      <path id="Path_604" data-name="Path 604" d="M88.162,355.493c0,.065-7.772.123-17.363.123s-17.369-.059-17.369-.123,7.778-.123,17.369-.123S88.162,355.423,88.162,355.493Z" transform="translate(-27.497 -254.771)" fill="#263238"/>
      <path id="Path_605" data-name="Path 605" d="M39.66,429.533a1.286,1.286,0,0,1-.205-.205c-.123-.141-.323-.346-.546-.634a18.184,18.184,0,0,1-1.76-2.54,19.463,19.463,0,0,1,.076-19.463,17.872,17.872,0,0,1,1.76-2.528c.223-.287.428-.487.551-.628a1.445,1.445,0,0,1,.211-.205,1.553,1.553,0,0,1-.17.235c-.117.152-.305.364-.516.657a20.076,20.076,0,0,0-1.76,21.845,20.462,20.462,0,0,0,1.66,2.569c.205.3.393.5.5.663A1.259,1.259,0,0,1,39.66,429.533Z" transform="translate(-19.704 -274.597)" fill="#455a64"/>
      <path id="Path_606" data-name="Path 606" d="M148.87,351" transform="translate(-66.952 -252.964)" fill="none" stroke="#263238" stroke-miterlimit="10" stroke-width="0.05"/>
      <path id="Path_607" data-name="Path 607" d="M118.07,318.91" transform="translate(-54.219 -239.698)" fill="#263238"/>
      <path id="Path_608" data-name="Path 608" d="M155,434.8s.54,12.547.551,13.152l2.663,2.018,6.388-1.59-.587-13.867Z" transform="translate(-69.486 -287.487)" fill="#ffbe9d"/>
      <path id="Path_609" data-name="Path 609" d="M181.139,243.575l6.681,3.572L198.995,239l3.25,5.608s-6.8,6.564-9.221,8.8-4,3.426-5.766,3.08-11.6-5.807-11.6-5.807S178.523,243.693,181.139,243.575Z" transform="translate(-78.027 -206.663)" fill="#ffbe9d"/>
      <path id="Path_610" data-name="Path 610" d="M196.33,255.365a.307.307,0,0,1,.065.111v.059h-.147v-.229a8.914,8.914,0,0,1-.065-1.009,3.637,3.637,0,0,1,.123-1.437,3.332,3.332,0,0,1,.182,1.431c0,.393,0,.751-.029,1.015v.229h-.153v-.065C196.289,255.406,196.312,255.365,196.33,255.365Z" transform="translate(-86.501 -212.393)" fill="#eb996e"/>
      <path id="Path_611" data-name="Path 611" d="M215.626,243.45c.223.07,2.305-2.176,2.305-2.176s3.9-.07,4.834-.587a11.592,11.592,0,0,0,2.346-2.44l-1.883-5.737a44.908,44.908,0,0,0-5.191.645c-1.244.346-4.218,3.461-4.218,3.461L212.54,238.6S212.141,242.377,215.626,243.45Z" transform="translate(-93.267 -203.98)" fill="#ffbe9d"/>
      <path id="Path_612" data-name="Path 612" d="M223.895,240.4a12.95,12.95,0,0,0,1.425-.182c.939-.158,1.906-.241,1.877-1.173a1.079,1.079,0,0,0-.358-.821s.692-.287.686-.809a.962.962,0,0,0-.4-.774s.956-.44.985-1.214a1.543,1.543,0,0,0-.833-1.39s2.933-.839,3.168-.933c.833-.34,2.423-1.1,1.76-1.719-.241-.229-.334-.481-2.012-.276-1.525.182-3.924.745-3.924.745s-2.053.1-3.132.211a23.392,23.392,0,0,0-3.96.71,8.02,8.02,0,0,0-2.593,2.458l3.044,5.432Z" transform="translate(-94.943 -203.368)" fill="#ffbe9d"/>
      <path id="Path_613" data-name="Path 613" d="M231.57,243.21a5.283,5.283,0,0,0-.827-.047h-.9a3.4,3.4,0,0,0-.534,0,.95.95,0,0,0-.54.258.587.587,0,0,0-.176.587.751.751,0,0,0,.358.428,2.305,2.305,0,0,0,.44.211l.387.147a5.9,5.9,0,0,0,.587.182c.147.035.217.053.217.041s-.293-.117-.763-.305a5.593,5.593,0,0,1-.8-.375.651.651,0,0,1-.3-.364.457.457,0,0,1,.147-.452.868.868,0,0,1,.463-.229,3.122,3.122,0,0,1,.516,0h.9A5.189,5.189,0,0,0,231.57,243.21Z" transform="translate(-99.903 -208.379)" fill="#eb996e"/>
      <path id="Path_614" data-name="Path 614" d="M228.219,235.436a2.077,2.077,0,0,0,.786-.587,1.971,1.971,0,0,0,.546-.809c-.029,0-.27.34-.639.721S228.2,235.407,228.219,235.436Z" transform="translate(-99.754 -204.613)" fill="#eb996e"/>
      <path id="Path_615" data-name="Path 615" d="M223.715,234.11a4.153,4.153,0,0,1,2.035,1.173,7.866,7.866,0,0,1,1.349,1.948,1.932,1.932,0,0,1,.223,1.807,1.355,1.355,0,0,1-1.76.375,3.156,3.156,0,0,1-1.267-1.449,8.06,8.06,0,0,0-.985-1.689" transform="translate(-97.725 -204.641)" fill="#ffbe9d"/>
      <path id="Path_616" data-name="Path 616" d="M223.38,236.277s.106.135.276.4q.322.572.587,1.173a5.382,5.382,0,0,0,.469.81,2.51,2.51,0,0,0,.786.739,1.625,1.625,0,0,0,1.173.17,1.261,1.261,0,0,0,.587-.311,1.079,1.079,0,0,0,.3-.587,2.235,2.235,0,0,0-.252-1.261,10.748,10.748,0,0,0-.587-1.032,6.024,6.024,0,0,0-1.314-1.5,3.96,3.96,0,0,0-1.173-.657,2.038,2.038,0,0,0-.358-.094h-.123s.17.047.463.158a4.311,4.311,0,0,1,1.138.68,6.024,6.024,0,0,1,1.273,1.5,11.2,11.2,0,0,1,.557,1.021,2.083,2.083,0,0,1,.24,1.173.98.98,0,0,1-.258.528,1.12,1.12,0,0,1-.51.276,1.484,1.484,0,0,1-1.091-.147,2.481,2.481,0,0,1-.757-.7,5.724,5.724,0,0,1-.475-.786,10.868,10.868,0,0,0-.651-1.173c-.088-.129-.17-.223-.223-.287A1.007,1.007,0,0,0,223.38,236.277Z" transform="translate(-97.754 -204.65)" fill="#eb996e"/>
      <path id="Path_617" data-name="Path 617" d="M229.983,242.113a35.186,35.186,0,0,0-3.6.188,1.936,1.936,0,0,1-1.021-.088c-.252-.123-.346-.757-.411-1.027l4.411-.686" transform="translate(-98.403 -207.283)" fill="#ffbe9d"/>
      <path id="Path_618" data-name="Path 618" d="M229.307,240.5a1.825,1.825,0,0,0-.34.029l-.939.129-3.144.463h-.065v.07c.047.2.088.422.158.639a1.132,1.132,0,0,0,.117.258.529.529,0,0,0,.088.111.47.47,0,0,0,.129.082,1.366,1.366,0,0,0,.522.094c.346,0,.663-.047.968-.07.587-.053,1.173-.1,1.619-.129s.833-.041,1.1-.053a2.694,2.694,0,0,0,.4,0,2.164,2.164,0,0,0-.4-.029h-1.1c-.463,0-1.015.053-1.625.1-.305,0-.628.065-.95.059a1.173,1.173,0,0,1-.475-.088c-.141-.047-.205-.211-.264-.37a6.179,6.179,0,0,1-.153-.628l-.053.076c1.244-.194,2.346-.375,3.132-.51l.933-.164A2.171,2.171,0,0,0,229.307,240.5Z" transform="translate(-98.35 -207.283)" fill="#eb996e"/>
      <path id="Path_619" data-name="Path 619" d="M230.141,238.443l-4.593.88a2.933,2.933,0,0,1-.985.076,1,1,0,0,1-.786-.528,1.027,1.027,0,0,1,.428-1.173,3.244,3.244,0,0,1,1.285-.434,27.528,27.528,0,0,0,4.106-1.144" transform="translate(-97.899 -205.472)" fill="#ffbe9d"/>
      <path id="Path_620" data-name="Path 620" d="M229.526,236.09a.586.586,0,0,0-.135.035l-.381.123c-.328.1-.8.252-1.4.411s-1.308.34-2.106.5a4.213,4.213,0,0,0-1.244.364,1.3,1.3,0,0,0-.51.481,1.038,1.038,0,0,0-.152.716.9.9,0,0,0,.446.587,1.4,1.4,0,0,0,.68.17,8.275,8.275,0,0,0,1.273-.194l2.129-.422,1.431-.293.387-.088.135-.041a.51.51,0,0,0-.141,0l-.393.065-1.437.252-2.135.4a7.818,7.818,0,0,1-1.249.182,1.244,1.244,0,0,1-.616-.153.763.763,0,0,1-.381-.5.9.9,0,0,1,.135-.622,1.2,1.2,0,0,1,.458-.434,4.136,4.136,0,0,1,1.208-.358c.8-.164,1.513-.352,2.106-.522s1.068-.34,1.39-.458l.37-.147Z" transform="translate(-97.841 -205.46)" fill="#eb996e"/>
      <path id="Path_621" data-name="Path 621" d="M219,242a1.068,1.068,0,0,0,.241.293,2.082,2.082,0,0,0,.81.417,2.03,2.03,0,0,0,.909.035c.229-.047.358-.111.352-.129a3.39,3.39,0,0,1-1.226-.029A3.191,3.191,0,0,1,219,242Z" transform="translate(-95.944 -207.903)" fill="#eb996e"/>
      <path id="Path_622" data-name="Path 622" d="M176.63,297.4s11.145,2.059,11.92,2.27,3.96,1.713,4.106,2.675a28.282,28.282,0,0,1,0,3.8s-.587.463-.927-.463a9.438,9.438,0,0,1-.3-2.763l-1.76-.68.962,1.713.158,4.012s-1.232-.111-1.472-1.073a9.457,9.457,0,0,1-.235-2.03l-1.29-1.091.968,1.308.323,2.886s-.939.3-1.238-.334a10.054,10.054,0,0,1-.317-2.552l-3.637-1.273-2.405,1.343-2.61-1.431a2.851,2.851,0,0,1-1.42-1.953Z" transform="translate(-78.428 -230.806)" fill="#ffbe9d"/>
      <path id="Path_623" data-name="Path 623" d="M138.686,196.663l.37,19.446a6.054,6.054,0,0,0,5.731,5.93h0a6.054,6.054,0,0,0,6.365-6.124c0-1.854-.059-3.367-.059-3.367s4.728-.487,5.033-5.174c.17-2.71,0-8.881-.135-13.609a6.159,6.159,0,0,0-5.866-5.948l-2.833-.147a8.7,8.7,0,0,0-8.605,8.993Z" transform="translate(-62.74 -185.443)" fill="#ffbe9d"/>
      <path id="Path_624" data-name="Path 624" d="M155.6,228.5a11.374,11.374,0,0,1-6.013-2.123s1.332,3.52,6.036,3.308Z" transform="translate(-67.249 -201.446)" fill="#eb996e"/>
      <path id="Path_625" data-name="Path 625" d="M164.42,205.026c-.082.088-.587-.317-1.3-.352s-1.267.3-1.337.205.053-.194.293-.352a1.877,1.877,0,0,1,1.079-.27,1.76,1.76,0,0,1,1.027.393C164.4,204.827,164.467,204.991,164.42,205.026Z" transform="translate(-72.283 -192.299)" fill="#263238"/>
      <path id="Path_626" data-name="Path 626" d="M153.513,207.749a.669.669,0,0,1-.68.645.651.651,0,0,1-.663-.639.669.669,0,0,1,.68-.645.645.645,0,0,1,.663.639Z" transform="translate(-68.316 -193.479)" fill="#263238"/>
      <path id="Path_627" data-name="Path 627" d="M164.7,207.749a.669.669,0,0,1-.68.645.645.645,0,0,1-.663-.639.669.669,0,0,1,.68-.645.645.645,0,0,1,.663.639Z" transform="translate(-72.942 -193.479)" fill="#263238"/>
      <path id="Path_628" data-name="Path 628" d="M152.545,204.582c-.088.082-.587-.323-1.3-.358s-1.267.3-1.343.205.059-.194.3-.346a1.818,1.818,0,0,1,1.079-.276,1.76,1.76,0,0,1,1.027.393C152.521,204.382,152.586,204.541,152.545,204.582Z" transform="translate(-67.371 -192.113)" fill="#263238"/>
      <path id="Path_629" data-name="Path 629" d="M158.275,210.664a4.8,4.8,0,0,1,1.173-.152c.182,0,.364-.035.4-.158a.98.98,0,0,0-.094-.551l-.481-1.431a24.2,24.2,0,0,1-1.032-3.731,24.264,24.264,0,0,1,1.332,3.637c.158.5.305.98.452,1.437a1.05,1.05,0,0,1,.053.727.463.463,0,0,1-.317.258,1.172,1.172,0,0,1-.311,0A4.8,4.8,0,0,1,158.275,210.664Z" transform="translate(-70.825 -192.458)" fill="#263238"/>
      <path id="Path_630" data-name="Path 630" d="M154.534,215.57c.123,0,.082.786.722,1.373s1.478.546,1.478.657-.194.141-.546.135a1.971,1.971,0,0,1-1.238-.5,1.76,1.76,0,0,1-.551-1.173C154.388,215.752,154.481,215.564,154.534,215.57Z" transform="translate(-69.237 -196.977)" fill="#263238"/>
      <path id="Path_631" data-name="Path 631" d="M152.24,200.231c-.082.188-.792.059-1.648.117s-1.543.252-1.648.07c-.047-.082.082-.264.37-.44a2.786,2.786,0,0,1,1.238-.364,2.746,2.746,0,0,1,1.273.217C152.129,199.973,152.275,200.138,152.24,200.231Z" transform="translate(-66.978 -190.379)" fill="#263238"/>
      <path id="Path_632" data-name="Path 632" d="M164.2,200.555c-.135.158-.622-.041-1.22-.076s-1.109.053-1.214-.129c-.047-.082.041-.24.27-.387a1.76,1.76,0,0,1,1.959.164C164.2,200.3,164.243,200.479,164.2,200.555Z" transform="translate(-72.276 -190.433)" fill="#263238"/>
      <path id="Path_633" data-name="Path 633" d="M138.8,208.954c-.076-.041-3.173-1.12-3.238,2.088s3.191,2.616,3.191,2.546S138.8,208.954,138.8,208.954Z" transform="translate(-61.449 -194.156)" fill="#ffbe9d"/>
      <path id="Path_634" data-name="Path 634" d="M138.38,213.05a.708.708,0,0,1-.153.082.587.587,0,0,1-.416,0,1.39,1.39,0,0,1-.587-1.255,1.918,1.918,0,0,1,.17-.8.651.651,0,0,1,.434-.422.282.282,0,0,1,.323.158c.041.094,0,.158.041.164s.07-.053.047-.188a.387.387,0,0,0-.123-.205.446.446,0,0,0-.311-.088.8.8,0,0,0-.587.487,1.836,1.836,0,0,0-.211.892,1.461,1.461,0,0,0,.786,1.408.633.633,0,0,0,.516-.076C138.374,213.138,138.391,213.056,138.38,213.05Z" transform="translate(-62.046 -194.88)" fill="#eb996e"/>
      <path id="Path_635" data-name="Path 635" d="M137.781,199.57a1.7,1.7,0,0,1,1.5.874c.182.469.205.991.387,1.461a1.132,1.132,0,0,0,1.126.815.991.991,0,0,0,.71-.7,2.769,2.769,0,0,0,.065-1.032c-.117-1.508-.352-3.009-.334-4.523a7.69,7.69,0,0,1,1.173-4.311,4.212,4.212,0,0,1,3.86-1.912c.991.129,1.877.7,2.863.892a3.924,3.924,0,0,0,3.285-.921c.117-.1.634-.4.634-.4a1.83,1.83,0,0,0-.287-1.009c-1.871-1.918-5.385-2.61-8.013-2.088a9.35,9.35,0,0,0-6.394,4.593c-1.244,2.376-1.085,5.778-.587,8.265" transform="translate(-62.21 -184.977)" fill="#263238"/>
      <path id="Path_636" data-name="Path 636" d="M156.79,191.223c-1.76.065-5.168.721-6.57,1.813-.164.129-.346.34-.235.522s.276.141.434.135a24.448,24.448,0,0,1,4.822.733,8.429,8.429,0,0,0,3.132.475,3.08,3.08,0,0,0,2.558-1.642l.452.17a5.227,5.227,0,0,0-4.593-2.206Z" transform="translate(-67.399 -186.908)" fill="#263238"/>
      <path id="Path_637" data-name="Path 637" d="M154.87,190.347a5.989,5.989,0,0,0-3.49-1.6,14.208,14.208,0,0,0-14.254,7.825,16.031,16.031,0,0,1-.716-3.719,9.1,9.1,0,0,1,6.453-8.4C142.874,184.458,151.708,181.132,154.87,190.347Z" transform="translate(-61.801 -183.874)" fill="#455a64"/>
      <g id="Group_4603" data-name="Group 4603" transform="translate(74.609)" opacity="0.3">
        <path id="Path_638" data-name="Path 638" d="M154.87,190.347a5.708,5.708,0,0,0-3.907-1.8,15.1,15.1,0,0,0-13.838,8.031,16.031,16.031,0,0,1-.716-3.719,9.1,9.1,0,0,1,6.453-8.4C142.874,184.458,151.708,181.132,154.87,190.347Z" transform="translate(-136.41 -183.874)"/>
      </g>
      <path id="Path_639" data-name="Path 639" d="M138.569,195.82a20.656,20.656,0,0,1,7.244-6.717,45.333,45.333,0,0,1,10.764-4.323,7.039,7.039,0,0,1,2.968-.293,2.669,2.669,0,0,1,2.188,1.807c.305,1.22-1.865,3.086-2.886,3.819a30.342,30.342,0,0,1-2.933,1.725s-.117-2.182-3.731-2.657C147.262,188.535,138.416,195.943,138.569,195.82Z" transform="translate(-62.692 -184.108)" fill="#455a64"/>
      <path id="Path_640" data-name="Path 640" d="M150,187.373a17.322,17.322,0,0,1,3.344-1.173,17.962,17.962,0,0,1,3.52-.194,3.12,3.12,0,0,0-1.032-.188,9.326,9.326,0,0,0-4.951.962,3.343,3.343,0,0,0-.88.592Z" transform="translate(-67.419 -184.665)" fill="#fff"/>
      <path id="Path_641" data-name="Path 641" d="M165.015,456.82l.035.551s9.972,3.326,10.2,5.092l-19.334.739-.117-6.177a11.486,11.486,0,0,0,9.215-.205Z" transform="translate(-69.817 -296.71)" fill="#455a64"/>
      <g id="Group_4604" data-name="Group 4604" transform="translate(86.071 164.838)" opacity="0.6">
        <path id="Path_642" data-name="Path 642" d="M155.979,466.534l-.029-1.484,18.525-.17s.88.328.821.915Z" transform="translate(-155.95 -464.88)" fill="#fff"/>
      </g>
      <path id="Path_643" data-name="Path 643" d="M170.49,457.8c0,.088-.463.147-.909.458s-.669.7-.763.669,0-.587.587-.927S170.507,457.713,170.49,457.8Z" transform="translate(-75.185 -297.087)" fill="#263238"/>
      <path id="Path_644" data-name="Path 644" d="M174.377,459.056c.029.088-.37.252-.669.651s-.364.8-.458.8-.188-.51.194-1S174.372,458.968,174.377,459.056Z" transform="translate(-76.996 -297.621)" fill="#263238"/>
      <path id="Path_645" data-name="Path 645" d="M177.341,461.879c-.088,0-.246-.428-.035-.933s.645-.716.686-.645-.211.352-.381.768S177.435,461.879,177.341,461.879Z" transform="translate(-78.664 -298.144)" fill="#263238"/>
      <path id="Path_646" data-name="Path 646" d="M150.644,356.628l-3.273-10.911-4.358-13.891.24-7.151-7.3-5.027c-4.769.082-18.666-.739-18.666-.739s.358,7.25,1.073,12.471a6.758,6.758,0,0,0,1.12,2.886l6.4,9.333,11,20.531s.733,7.332,1.038,13.668c.34,7.1,1.484,19.944,1.484,19.944l11.321.27.71-28.438C151.729,365.3,152.046,360.676,150.644,356.628Z" transform="translate(-53.896 -239.698)" fill="#263238"/>
      <path id="Path_647" data-name="Path 647" d="M186.1,382.62c1.3,1.056,2.47,15.41.323,14.366l2.552,2.411,6.828-1.173.944-15.081Z" transform="translate(-82.343 -266.036)" fill="#ffbe9d"/>
      <path id="Path_648" data-name="Path 648" d="M146.036,309.49s28.286,7.7,31.219,13.785a11.5,11.5,0,0,1,1.584,6.611c-.17,4.106-2.5,33.63-2.5,33.63l-10.682-.7-1.027-10.893-.176-16.489.745-1.877a5.245,5.245,0,0,1-2.481-.029c-1.214-.358-19.645-5.936-19.645-5.936l-7.2-11.345Z" transform="translate(-61.577 -235.804)" fill="#263238"/>
      <path id="Path_649" data-name="Path 649" d="M195.756,407.417V408s10.019,4.476,10.019,6.406l-20.185-.845.551-6.7a11.574,11.574,0,0,0,9.614.557Z" transform="translate(-82.132 -276.057)" fill="#455a64"/>
      <g id="Group_4605" data-name="Group 4605" transform="translate(103.476 135.895)" opacity="0.6">
        <path id="Path_650" data-name="Path 650" d="M185.62,417.153l.129-1.613,19.3,1.4s.88.428.751,1.056Z" transform="translate(-185.62 -415.54)" fill="#fff"/>
      </g>
      <path id="Path_651" data-name="Path 651" d="M201.67,408.862c0,.1-.5.123-1,.416s-.774.7-.862.657.082-.587.692-.95S201.7,408.769,201.67,408.862Z" transform="translate(-87.999 -276.839)" fill="#263238"/>
      <path id="Path_652" data-name="Path 652" d="M205.543,410.551c0,.1-.411.246-.768.651s-.463.839-.587.833-.135-.587.311-1.062S205.549,410.458,205.543,410.551Z" transform="translate(-89.79 -277.566)" fill="#263238"/>
      <path id="Path_653" data-name="Path 653" d="M208.348,413.822c-.088,0-.205-.481.07-1.009s.745-.727.786-.645-.258.364-.481.8S208.448,413.822,208.348,413.822Z" transform="translate(-91.498 -278.243)" fill="#263238"/>
      <path id="Path_654" data-name="Path 654" d="M190.4,341.17a3.631,3.631,0,0,0-.927.616,11.231,11.231,0,0,0-1.871,1.936,11.039,11.039,0,0,0-1.349,2.346,3.519,3.519,0,0,0-.34,1.062,22.293,22.293,0,0,1,1.889-3.238A22.019,22.019,0,0,1,190.4,341.17Z" transform="translate(-82.264 -248.9)" fill="#455a64"/>
      <path id="Path_655" data-name="Path 655" d="M188.128,337.35a4.447,4.447,0,0,0-.645,1.062,14.46,14.46,0,0,0-1.5,5.772,4.722,4.722,0,0,0,.053,1.238,8.744,8.744,0,0,0,.123-1.226,19.115,19.115,0,0,1,.5-2.933,18.772,18.772,0,0,1,.962-2.8A10.153,10.153,0,0,0,188.128,337.35Z" transform="translate(-82.288 -247.321)" fill="#455a64"/>
      <path id="Path_656" data-name="Path 656" d="M157.347,330.21c.076,0,1.355,3.52,2.851,7.86s2.646,7.931,2.563,7.96-1.355-3.49-2.851-7.86S157.265,330.239,157.347,330.21Z" transform="translate(-70.454 -244.369)" fill="#455a64"/>
      <path id="Path_657" data-name="Path 657" d="M155.48,221.914l4.617-1.854,12.043,6.541-4.916,11.251L156.63,232.59Z" transform="translate(-64.276 -187.981)" fill="#455a64"/>
      <path id="Path_658" data-name="Path 658" d="M149.527,235.331l-7.321-2.769s-1.6,3.385-5.1,2.346a26.4,26.4,0,0,1-7.362-4.159s-6.658,2.64-8.687,3.842-3.127,32.4-3.127,32.4l-.551,12.072-.329,2.276a26.6,26.6,0,0,0-.217,3.285c12.407,2.786,24.672-.164,31.248-3.813a2.138,2.138,0,0,0,.493-2.235c-.375-1.554-1.173-1.824-1.173-1.824l.164-13.644,1.22-13.955Z" transform="translate(-53.706 -203.252)" fill="#455a64"/>
      <path id="Path_659" data-name="Path 659" d="M158.539,277.988l-16.472-6.816-10.207-22.6-9.081,3.813s9.749,24.508,13.533,26.544S155.7,281.9,155.7,281.9Z" transform="translate(-56.166 -210.619)" fill="#ffbe9d"/>
      <path id="Path_660" data-name="Path 660" d="M121.586,236.978s-3.432,1.719-3.426,8.289c0,5.708,1.684,14.806,1.684,14.806l16.172-5.625-5-11.615C129.839,240.064,127.235,234.972,121.586,236.978Z" transform="translate(-54.256 -205.638)" fill="#455a64"/>
      <path id="Path_661" data-name="Path 661" d="M124.21,259.441a2.034,2.034,0,0,1,.27-.117l.792-.305,2.974-1.079,10.236-3.619-.088.188c-.51-1.537-1.068-3.179-1.678-4.851-.962-2.634-1.965-5.1-2.992-7.3a18.025,18.025,0,0,0-1.648-2.992,5.485,5.485,0,0,0-2.188-1.918,8.336,8.336,0,0,0-4.194-.71,3.849,3.849,0,0,0-1.12.305,2.735,2.735,0,0,1-.364.2s0-.029.082-.07a1.418,1.418,0,0,1,.252-.182,3.379,3.379,0,0,1,1.132-.37,8.212,8.212,0,0,1,4.3.628,5.714,5.714,0,0,1,2.305,1.971,17.668,17.668,0,0,1,1.7,3.021c1.05,2.2,2.059,4.693,3.027,7.315.587,1.678,1.173,3.32,1.666,4.863l.047.141-.135.047-10.271,3.52-3,1-.81.258A1.1,1.1,0,0,1,124.21,259.441Z" transform="translate(-56.757 -205.652)" fill="#263238"/>
      <path id="Path_662" data-name="Path 662" d="M150.181,310a6.726,6.726,0,0,1-.8.645,11.589,11.589,0,0,1-.991.686c-.4.246-.845.557-1.367.833s-1.091.587-1.73.892-1.32.587-2.053.874a27.571,27.571,0,0,1-10.013,1.76,17.866,17.866,0,0,1-2.229-.123,18.644,18.644,0,0,1-1.924-.246c-.587-.082-1.109-.217-1.572-.317s-.851-.211-1.173-.311a6.6,6.6,0,0,1-.974-.334,7.126,7.126,0,0,1,1,.217c.323.082.71.182,1.173.258s.98.205,1.566.27,1.226.176,1.918.211,1.425.076,2.206.094a31.053,31.053,0,0,0,5.033-.434,31.438,31.438,0,0,0,4.886-1.3c.722-.287,1.42-.54,2.041-.839s1.208-.587,1.76-.851.974-.551,1.379-.792a11.82,11.82,0,0,0,1.015-.639A6.37,6.37,0,0,1,150.181,310Z" transform="translate(-57.228 -236.015)" fill="#263238"/>
      <rect id="Rectangle_182" data-name="Rectangle 182" width="4.523" height="2.141" transform="translate(88.5 45.26)" fill="#fff"/>
      <path id="Path_663" data-name="Path 663" d="M171.418,249.7c.088,0-.082,3.308-.37,7.368s-.587,7.356-.675,7.35.082-3.308.37-7.368S171.318,249.694,171.418,249.7Z" transform="translate(-75.832 -211.086)" fill="#263238"/>
      <path id="Path_671" data-name="Path 671" d="M0,0H42.728V9.333H0Z" transform="translate(13.955 53.789)" fill="#fe9900"/>
      <path id="Path_670" data-name="Path 670" d="M0,0H48.459V37.372H0Z" transform="translate(11.104 63.221)" fill="#fe9900"/>
      <path id="Path_664" data-name="Path 664" d="M89.99,328.694c-.053,0-.1-8.33-.1-18.607s.047-18.607.1-18.607.094,8.33.094,18.607S90.043,328.694,89.99,328.694Z" transform="translate(-42.569 -228.358)" fill="#263238"/>
      <rect id="Rectangle_185" data-name="Rectangle 185" width="6.136" height="6.136" transform="translate(51.738 92.094)" fill="#f5f5f5"/>
      <rect id="Rectangle_186" data-name="Rectangle 186" width="5.502" height="7.978" transform="translate(25.857 63.221)" fill="#fff" opacity="0.3"/>
      <rect id="Rectangle_187" data-name="Rectangle 187" width="5.502" height="7.978" transform="translate(25.887 92.622)" fill="#fff" opacity="0.3"/>
      <path id="Path_672" data-name="Path 672" d="M0,0H12.143V37.577H0Z" transform="translate(47.421 63.122)" fill="#fb7712"/>
      <path id="Path_665" data-name="Path 665" d="M76.5,291.543c0,.088-10.793.152-24.1.152s-24.109-.065-24.109-.152,10.793-.153,24.109-.153S76.5,291.46,76.5,291.543Z" transform="translate(-17.104 -228.321)" fill="#263238"/>
      <path id="Path_673" data-name="Path 673" d="M0,0H11.961V9.268H0Z" transform="translate(44.722 53.789)" fill="#fb7712"/>
      <path id="Path_666" data-name="Path 666" d="M85.18,284.912a66.788,66.788,0,0,1,0-9.022,66.786,66.786,0,0,1,0,9.022Z" transform="translate(-40.551 -221.913)" fill="#263238"/>
      <rect id="Rectangle_190" data-name="Rectangle 190" width="6.013" height="2.827" transform="translate(26.502 53.789)" fill="#fff"/>
      <path id="Path_667" data-name="Path 667" d="M63.4,268.488a.4.4,0,0,1,0-.135l.041-.4c.047-.346.123-.862.264-1.525a15.691,15.691,0,0,1,2.118-5.279,11.556,11.556,0,0,1,1.173-1.5,6.206,6.206,0,0,1,1.549-1.379,1.854,1.854,0,0,1,1.109-.258,1.244,1.244,0,0,1,.933.733,3.936,3.936,0,0,1,.053,2.346,8.881,8.881,0,0,1-2.575,4.27,23.627,23.627,0,0,1-4.364,3.109l-.217.129-.088.053-.082-.059A36.58,36.58,0,0,1,59.2,265.2a14.225,14.225,0,0,1-2.933-4,4.588,4.588,0,0,1-.416-1.12,1.848,1.848,0,0,1,.1-1.173,1.285,1.285,0,0,1,.909-.751,1.6,1.6,0,0,1,1.1.293,4.57,4.57,0,0,1,.786.7c.235.246.452.5.663.745a17.506,17.506,0,0,1,1.126,1.5,18.278,18.278,0,0,1,2.423,5.08,14.207,14.207,0,0,1,.346,1.49,2.076,2.076,0,0,0,.059.393,1.171,1.171,0,0,1,0,.135.356.356,0,0,0-.041-.129l-.088-.387c-.076-.34-.2-.839-.4-1.466a19.181,19.181,0,0,0-2.458-4.986,17.5,17.5,0,0,0-1.126-1.466c-.211-.246-.428-.493-.663-.727a4.253,4.253,0,0,0-.751-.663,1.326,1.326,0,0,0-.909-.246.98.98,0,0,0-.71.587,2.529,2.529,0,0,0,.323,2.077,14.155,14.155,0,0,0,2.9,3.96,36.273,36.273,0,0,0,4.065,3.355h-.17l.217-.129A23.517,23.517,0,0,0,67.86,265.2a8.565,8.565,0,0,0,2.511-4.106,3.7,3.7,0,0,0,0-2.188.985.985,0,0,0-.745-.587,1.566,1.566,0,0,0-.944.223,6.311,6.311,0,0,0-1.5,1.308,12.32,12.32,0,0,0-1.173,1.472,16.137,16.137,0,0,0-2.188,5.174c-.153.651-.246,1.173-.311,1.508l-.07.393Z" transform="translate(-28.476 -214.517)" fill="#263238"/>
      <path id="Path_668" data-name="Path 668" d="M76.812,319.713c0,.082-10.864.153-24.256.153s-24.256-.07-24.256-.153,10.858-.153,24.256-.153S76.812,319.625,76.812,319.713Z" transform="translate(-17.108 -239.967)" fill="#263238"/>
      <path id="Path_669" data-name="Path 669" d="M68.8,322.743c-.082,0-.153-10.688-.153-23.869S68.72,275,68.8,275s.153,10.688.153,23.875S68.891,322.743,68.8,322.743Z" transform="translate(-33.789 -221.545)" fill="#263238"/>
    </g>
  </g>
</svg>
