<svg xmlns="http://www.w3.org/2000/svg" width="24.506" height="24.493" viewBox="0 0 24.506 24.493"><defs><style>.a{fill:#fff;}</style></defs><g transform="translate(-1.129 511.86)"><path class="a" d="M12.579-511.751a2.838,2.838,0,0,0-.456.24c-.1.067-2.524,2.472-5.394,5.341-4.2,4.214-5.236,5.269-5.337,5.471a2.253,2.253,0,0,0,.4,2.659,2.279,2.279,0,0,0,1.646.667h.326v3.839c0,2.6.019,3.916.053,4.089a2.763,2.763,0,0,0,1.761,1.968c.317.11.341.11,2.659.11,2.284,0,2.337,0,2.467-.1a1.309,1.309,0,0,0,.23-.23c.1-.13.1-.192.125-3.335l.024-3.206.144-.235a1.32,1.32,0,0,1,.907-.571c.134-.019.806-.024,1.493-.014l1.248.014.254.139a1.321,1.321,0,0,1,.542.557,24.129,24.129,0,0,1,.091,3.321c.024,3.139.024,3.2.125,3.331a1.309,1.309,0,0,0,.23.23c.13.1.182.1,2.467.1,2.318,0,2.342,0,2.659-.11A2.763,2.763,0,0,0,23-489.445c.034-.173.053-1.493.053-4.089v-3.839h.326a2.274,2.274,0,0,0,2.078-1.272c.163-.331.163-.341.163-.984,0-1.094.552-.446-5.61-6.6-6.124-6.129-5.509-5.6-6.556-5.625A1.692,1.692,0,0,0,12.579-511.751Zm1.185,1.373c.283.134,10.313,10.179,10.419,10.424a.764.764,0,0,1-.029.691c-.178.37-.326.422-1.253.451-.869.024-.931.043-1.161.355-.1.13-.1.182-.125,4.482l-.024,4.353-.134.226a1.326,1.326,0,0,1-.288.346c-.336.259-.437.269-2.27.269H17.2v-2.687c0-1.761-.019-2.769-.053-2.937A2.71,2.71,0,0,0,15.3-496.38a5.834,5.834,0,0,0-1.9-.106c-1.718,0-1.8.01-2.419.322a2.782,2.782,0,0,0-1.32,1.756c-.034.168-.053,1.176-.053,2.937v2.688h-1.7c-1.833,0-1.934-.01-2.27-.269a1.326,1.326,0,0,1-.288-.346l-.134-.226L5.2-493.976c-.024-4.3-.024-4.353-.125-4.482-.23-.312-.293-.331-1.161-.355-.926-.029-1.075-.082-1.253-.451a.764.764,0,0,1-.029-.691c.1-.24,10.136-10.284,10.414-10.424A.755.755,0,0,1,13.764-510.379Z" transform="translate(0 0)"/></g></svg>