<svg xmlns="http://www.w3.org/2000/svg" width="116.31" height="116.203" viewBox="0 0 116.31 116.203">
  <g id="location" transform="translate(-0.25 511.64)">
    <path id="Path_150" data-name="Path 150" d="M144.739-511.494a36.537,36.537,0,0,0-10.482,3.183,38.469,38.469,0,0,0-7.389,5.275A31.432,31.432,0,0,0,117-480.481a28.354,28.354,0,0,0,1.955,10.141c3.229,9.572,11.664,26.056,21.509,41.995,2.137,3.479,3.774,4.752,6.73,5.3a8.986,8.986,0,0,0,7.64-2.5c.409-.455,2.024-2.979,3.592-5.593,11.3-18.849,18.326-33.2,20.941-42.791.7-2.547.728-2.842.728-6.753a21.6,21.6,0,0,0-.614-6.48A31.77,31.77,0,0,0,170.2-503.15a31.356,31.356,0,0,0-15.188-7.89A41.447,41.447,0,0,0,144.739-511.494Zm6.8,16.939a12.778,12.778,0,0,1,9.731,13.1A12.552,12.552,0,0,1,148.6-469.545a12.552,12.552,0,0,1-12.664-11.914,12.661,12.661,0,0,1,9.754-13.1A14.055,14.055,0,0,1,151.537-494.555Z" transform="translate(-90.205)" fill="#ff7300"/>
    <path id="Path_151" data-name="Path 151" d="M101.211-169.979c-6.025,1.569-9.368,3.138-11.846,5.593C87.523-162.567,87-161.407,87-159.156c0,6.707,10.868,11.414,29.717,12.869a188.943,188.943,0,0,0,21.668-.341c16.893-2.137,25.465-6.344,25.465-12.528,0-2.251-.523-3.411-2.365-5.229a18.359,18.359,0,0,0-7.117-4.184c-2.3-.841-8.3-2.365-8.958-2.251-.341.045-.955.887-2.251,3.069-1.683,2.842-1.751,3.024-1.3,3.115.273.068,1.637.318,3,.591,5.139.978,10.618,2.979,11.823,4.32.432.477.432.5-.114.932-3.32,2.615-11.823,4.8-22.282,5.661a153.831,153.831,0,0,1-17.735,0C106.1-154,97.6-156.178,94.276-158.793c-.546-.432-.546-.455-.159-.887a16.961,16.961,0,0,1,4.57-2.433,65.947,65.947,0,0,1,8.322-2.16c2.774-.455,2.706-.068.682-3.479-1.569-2.66-1.842-3-2.41-3.047A24.853,24.853,0,0,0,101.211-169.979Z" transform="translate(-67.026 -263.323)" fill="#ff7300" opacity="0.3"/>
    <path id="Path_152" data-name="Path 152" d="M9.583-154.071c-3.479,1.819-6.8,4.934-8.163,7.708A10.131,10.131,0,0,0,1.4-136.95c.909,1.864,4.07,5.139,6.525,6.73,7.867,5.116,21.736,8.776,38.539,10.163,4.547.387,19.235.364,23.874,0,16.757-1.364,30.649-5.025,38.539-10.163,2.456-1.592,5.616-4.866,6.525-6.73,2.205-4.5,1.251-9.049-2.751-13.051a22.834,22.834,0,0,0-6.412-4.57,2.993,2.993,0,0,0-3.524.8,2.973,2.973,0,0,0-.773,3.57c.341.909.637,1.182,2.637,2.478,3.433,2.228,5.207,4.275,5.207,6.025,0,2.342-3.183,5.32-8.253,7.731-14.574,6.935-41.859,9.413-65.141,5.889-14.756-2.228-26.4-7.071-28.921-12.005-1.205-2.387.227-4.707,4.752-7.64,2-1.3,2.3-1.569,2.637-2.478a3.333,3.333,0,0,0-1.864-4.365C11.88-155.049,11.289-154.958,9.583-154.071Z" transform="translate(0 -275.662)" fill="#ff7300" opacity="0.3"/>
  </g>
</svg>
