<svg xmlns="http://www.w3.org/2000/svg" width="262.613" height="344.6" viewBox="0 0 262.613 344.6">
  <g id="meat" transform="translate(-0.007)">
    <g id="_1" data-name="1" transform="translate(0.007)">
      <path id="Path_231" data-name="Path 231" d="M90.884,373.87l48.99,28.352h41.383L218.735,301.65S88,374.844,90.884,373.87Z" transform="translate(-90.837 -57.622)" fill="#bda195"/>
      <path id="Path_232" data-name="Path 232" d="M212.716,352.148a14.463,14.463,0,0,0,.992,3.531c.581.938,7.58,5.166,8.625,6.114s2.2,2.494,2.181,3.817a5.846,5.846,0,0,1-2.2,4.129c-.939.769-3.513.331-6.006-.644s-8.044-6.632-8.044-6.632-2.771-.518-3.531-2.315a11.977,11.977,0,0,1-.5-4.7l.617-5.166Z" transform="translate(-102.873 -62.786)" fill="#31313a"/>
      <path id="Path_233" data-name="Path 233" d="M199.644,329.466s.188,2.378.751,6.981,2.976,15.767,2.976,15.767S204.4,354,208.9,353.456s4.308-2.681,4.308-2.681-.134-22.837-.947-26.171-12.978.59-13.094,1.734a10.994,10.994,0,0,0,.474,3.128Z" transform="translate(-102.341 -59.92)" fill="#063b4d"/>
      <path id="Path_234" data-name="Path 234" d="M180.612,358.465s1.609,5.917,1.9,7.91.965,5.175,1.082,6.042,3.075,5.417,3.075,5.417,1.233,4.585.295,5.363a10.824,10.824,0,0,1-6.257,1.671,7.654,7.654,0,0,1-6.418-3.826c-1.278-2.538-1.233-8.429-1.233-8.429a13.282,13.282,0,0,1-.974-4.38c-.277-2.985,1-4.29,1.18-6.927s.2-3.307.2-3.307Z" transform="translate(-99.461 -63.605)" fill="#31313a"/>
      <path id="Path_235" data-name="Path 235" d="M171.475,358.477a5.06,5.06,0,0,0,5.363,4.255c4.657-.259,5.711-3.432,5.711-3.432l2.681-26.948-14.882-1.511a30.121,30.121,0,0,0-1.35,9.591C169.258,344.935,171.1,353.793,171.475,358.477Z" transform="translate(-99.136 -60.721)" fill="#175264"/>
      <path id="Path_236" data-name="Path 236" d="M213.024,280.372s.644,12.9.286,22.864-1.341,15.061-1.913,17.429-11.11,3.942-12.907.894-3.531-18.859-4.013-21.451-2.2-14.784-1.573-19.709S213.024,280.372,213.024,280.372Z" transform="translate(-101.661 -55.132)" fill="#074559"/>
      <path id="Path_237" data-name="Path 237" d="M196.2,284a112.056,112.056,0,0,1-1.573,13.407c-.456,2.681-4.773,6.176-5.273,8.983-1.716,9.743-3.495,19.342-4.1,21.022-1.3,3.575-6.972,4.639-9.072,3.718s-5.676-3.289-5.81-5.229-1.931-34.1-1.618-36.914S196.2,284,196.2,284Z" transform="translate(-99.107 -55.747)" fill="#1a5e73"/>
      <path id="Path_238" data-name="Path 238" d="M200.431,198.608c2.431-.742,6.561.143,8.625,1.636,3.441,2.485,6.006,6.7,8.5,14.953a66.4,66.4,0,0,1,2.878,16.2c0,.992-1.975,10.288-6.257,8.16S197.643,199.448,200.431,198.608Z" transform="translate(-102.432 -46.651)" fill="#004a9f"/>
      <path id="Path_239" data-name="Path 239" d="M185.014,199.663a27.306,27.306,0,0,1,10.073-1.466c6.257.116,10.949,4.469,12.209,7.7s3,13.461,3.414,20.093-2.083,27.136-1.725,32.839a111.454,111.454,0,0,1-.536,14.417s-.465,6.695-6.73,9.358-11.718-.152-17.036,1.475-16,2.547-17.528-4.165c.125-6.882,1.922-18.3,1.654-21.451s-6.793-44.351-6.65-46.737S173.35,202.085,185.014,199.663Z" transform="translate(-98.411 -46.633)" fill="#1d77ed"/>
      <path id="Path_240" data-name="Path 240" d="M170.49,205.561l.089.232a9.662,9.662,0,0,1,5.157,1.385c2.413,1.394,5.676,5.014,7.49,14.3,3.629,18.7,1.671,26.055,1.645,26.126l-.536,1.895,17.152-4.076,7.338-2c.358-1.484,2.869-35.44-13.327-44.351-1.931-.456-.849,1.439-3.11,1.073,15.195,4.138,15.436,36.754,14.256,42.009l-19.119,4.165c.42-3.271.8-11.092-1.949-25.313-1.591-8.161-4.514-13.514-8.679-15.865a9.51,9.51,0,0,0-3.379-1.162A9.832,9.832,0,0,0,170.49,205.561Z" transform="translate(-99.296 -46.721)" fill="#004a9f"/>
      <path id="Path_241" data-name="Path 241" d="M195.982,195.89s-2.619,3.656-2.985,5.765,1.09,5.247-2.279,5.363-10.878-2.351-11.182-5.819c.366-3.513,2.807-6.713,1.6-11s-3.37-7.848-2.681-9.68,1.645-2.95,4.612-2.1S195.982,195.89,195.982,195.89Z" transform="translate(-100.127 -44.505)" fill="#f09f81"/>
      <path id="Path_242" data-name="Path 242" d="M171,205.161l.1.232a9.716,9.716,0,0,1,5.148,1.394c2.413,1.394,5.676,5.005,7.49,14.3,3.629,18.7,1.671,26.046,1.645,26.117l-.536,1.895L202,245.025l7.338-2c.366-1.484,2.869-35.44-13.318-44.351-1.931-.456-.849,1.439-3.119,1.073,15.195,4.138,15.436,36.754,14.256,42.009l-19.11,4.156c.42-3.271.8-11.092-1.949-25.313-1.6-8.16-4.469-13.514-8.688-15.865a9.653,9.653,0,0,0-3.379-1.153,10.028,10.028,0,0,0-3.03,1.582Z" transform="translate(-99.35 -46.679)" fill="#fff4d8"/>
      <path id="Path_243" data-name="Path 243" d="M182.137,235.878a60.781,60.781,0,0,0,13.738-.608c14.185-2.44,15.195-8.84,15.195-8.84s.474,10.484,1.046,19.887c.894,15.195-.572,36.789-.983,40.221-.661,5.515-15.6,8.724-24.437,9.43s-14.587-2.208-14.587-2.208l-2.467-16.187-2.762,10.27s-2.092-14.721-.894-25.554,6.507-27.655,6.507-27.655Z" transform="translate(-98.778 -49.634)" fill="#fffef9"/>
      <path id="Path_244" data-name="Path 244" d="M218.527,236.437s2.681-3.057,4.523-1.368,5.363,5.524,5.363,5.524,3.039,7.8,1.788,10.091-5.989,1.35-7.571,1.117-5.488-3.87-6.838-5.685S216.069,238.18,218.527,236.437Z" transform="translate(-104.054 -50.498)" fill="#9f0010"/>
      <path id="Path_245" data-name="Path 245" d="M163.638,211.525s5.64,1.09,8.044,13.756,2.431,26.162,1.421,28.441-5.309,5.551-8.411,1.43-4.174-13.219-5.291-24.133S161.287,210.148,163.638,211.525Z" transform="translate(-98.092 -48.038)" fill="#0059c9"/>
      <path id="Path_246" data-name="Path 246" d="M196.951,244.825a2.512,2.512,0,0,0-2.914,3.942,1.791,1.791,0,0,1,.161.206.894.894,0,0,1-.1.751,6,6,0,0,0-.6,2.565,2.681,2.681,0,0,0,1.216,2.235,3.789,3.789,0,0,0,.894.331,8.134,8.134,0,0,0,3.933.42,4.362,4.362,0,0,0,2.816-6.185,3.647,3.647,0,0,0-1.788-1.725C199.346,246.639,198.238,245.405,196.951,244.825Z" transform="translate(-101.731 -51.565)" fill="#fff"/>
      <path id="Path_247" data-name="Path 247" d="M198.682,168.8s1.984,2.288,2.1,8.044a53.423,53.423,0,0,1-1.394,14.533c-1.019,3.575-1.341,4.567-2.458,5.032s-3.057.179-4.326,0a21.994,21.994,0,0,1-3.575-.751l-1.788-.608a12.859,12.859,0,0,1-1.314-.5,4.809,4.809,0,0,1-2.261-1.734,12.576,12.576,0,0,1-.983-2.985,32.935,32.935,0,0,1-.626-3.62,5.363,5.363,0,0,0-.456-1.931,6.971,6.971,0,0,1-.724-1.788,12.757,12.757,0,0,0-.831-1.788,9.2,9.2,0,0,1-.831-4.853c.465-3.477,4.308-10.994,8.1-10.8S198.682,168.8,198.682,168.8Z" transform="translate(-100.217 -43.117)" fill="#fab8a0"/>
      <path id="Path_248" data-name="Path 248" d="M184.278,180.881l-.331,2.092-1.332.3s-.349-3.915-2.476-3.575.331,5.247.5,6.909l.17,1.671a22.112,22.112,0,0,1-3.709-5.265c-1.3-2.807-4.326-14.819,2.172-18.01,8.473-7.294,14.131-3.173,16.232-2.118s4.228,4.469,5.041,7.285-.161,7.15-.161,7.15-.581-5.747-1.242-6.069-1.466.545-4.719.313-5.265-1.117-6.328-.116-1.189,5.363-1.9,6.051S185.118,178.745,184.278,180.881Z" transform="translate(-99.801 -42.662)" fill="#7c4739"/>
      <path id="Path_249" data-name="Path 249" d="M181.717,182.827s-.894-1.966-2.529-1.332-1.073,2.941-.089,4.63,1.582,2.681,2.288,2.735,1.064-1.868.724-2.61S181.94,183.175,181.717,182.827Z" transform="translate(-100.109 -44.849)" fill="#fac4b0"/>
      <path id="Path_250" data-name="Path 250" d="M260.61,161.5s7.883-1.207,11.906,16.652c1.287,5.765,3.7,16.455,3.861,17.939s-4.782,8.715-9.671,6.847S260.61,161.5,260.61,161.5Z" transform="translate(-108.865 -42.737)" fill="#004a9f"/>
      <path id="Path_251" data-name="Path 251" d="M264.639,307.4a32.836,32.836,0,0,0,2.512,4.791c.778.894,7.758,3.763,8.509,4.97a29.6,29.6,0,0,1,2.476,4.326c.089.59-2.378,3.271-3.236,4.049s-5.9-1.028-6.82-1.35-2.681-3.441-2.681-3.441-4.809-1.868-6.257-2.4-1.233-1.7-1.654-2.36-.6-6.4-.6-6.4Z" transform="translate(-108.47 -58.232)" fill="#31313a"/>
      <path id="Path_252" data-name="Path 252" d="M264.89,277.79s.536,25.6.456,27.234-3.432,3.45-5.515,2.994a10.833,10.833,0,0,1-3.656-1.582s-3.227-15.195-3.834-17.116-2.208-8.536-2.181-8.393S264.89,277.79,264.89,277.79Z" transform="translate(-107.756 -55.088)" fill="#063b4d"/>
      <path id="Path_253" data-name="Path 253" d="M234.966,319.17s2.923,4.469,2.681,5.273a39.446,39.446,0,0,0-.25,5.238s3.209,8.214,3.039,9.26-3.361,3.218-3.361,3.218-5.363.089-6.543-1.135-2.226-4.666-2.226-4.666-1.555-6.382-1.4-7.079.393-5.068.894-6.605-1.537-5.443-1.537-5.443Z" transform="translate(-105.218 -59.276)" fill="#31313a"/>
      <path id="Path_254" data-name="Path 254" d="M238.973,288.9s-1.984,26.367-2.681,27.708-6.1,2.887-8.8.787-4.112-24.035-3.513-29.889S238.973,288.9,238.973,288.9Z" transform="translate(-104.961 -55.878)" fill="#175264"/>
      <path id="Path_255" data-name="Path 255" d="M264.33,238.024s1.126,32.892-.42,36.244-7.481,3.682-9.966,3.405a14.89,14.89,0,0,1-4.3-1.144s-4.049-25.42-5.193-30.622,4.2-15.829,7.481-16.089S264.33,238.024,264.33,238.024Z" transform="translate(-107.133 -49.993)" fill="#074559"/>
      <path id="Path_256" data-name="Path 256" d="M247.205,249.049a16.348,16.348,0,0,1-1.216,12.058c-3.253,6.069-4.469,16.446-6.882,22.39s-12.165,4.076-13.362,3.236-1.993-3.834-1.993-3.834-.608-16.214-.769-19.181-3.316-14.953-.724-20.281S247.205,249.049,247.205,249.049Z" transform="translate(-104.685 -51.285)" fill="#0059c9"/>
      <path id="Path_257" data-name="Path 257" d="M223.892,210.375c-.894,2.914-3.942,23.784-2.261,27.288s14.444,7.088,24.133,6.48,17.724-5.819,17.224-9.108-1.126-23.722,1.359-39.185,1.788-24.741-2.3-30.542a19.065,19.065,0,0,0-7.91-5.291,32.077,32.077,0,0,0-4.692-1.26c-4.97-.992-9.886,2.154-14.659,4.666a35.288,35.288,0,0,0-4.782,3.03,24.442,24.442,0,0,0-2.681,2.4c-3.763,3.826-4.335,7.061-4.335,7.061S224.84,207.461,223.892,210.375Z" transform="translate(-104.673 -42.428)" fill="#1d77ed"/>
      <path id="Path_258" data-name="Path 258" d="M227.48,169.244a8.3,8.3,0,0,1,5.7,1.671c3.808,2.681,6.489,8.339,7.74,16.375,3.271,20.79.894,28.852.894,28.933l-.706,2.306,18.118-5.461.188-.715c.447-1.671,9.457-38.067-4.389-48.8a32.18,32.18,0,0,0-4.7-1.26l-.429,1.466c16.348,4.97,8.5,41.705,7.15,47.274l-12.335,3.736c.572-3.727,1.171-12.335-1.251-27.86-1.412-8.938-4.38-15.034-8.858-18.135a11.816,11.816,0,0,0-4.469-1.922A24.438,24.438,0,0,0,227.48,169.244Z" transform="translate(-105.347 -42.823)" fill="#004a9f"/>
      <path id="Path_259" data-name="Path 259" d="M228,169.244a8.3,8.3,0,0,1,5.7,1.671c3.808,2.681,6.489,8.339,7.74,16.375,3.271,20.79.894,28.852.894,28.933l-.706,2.306,18.171-5.461.188-.715c.447-1.671,9.465-38.067-4.389-48.8a31.9,31.9,0,0,0-4.7-1.26l-.429,1.466c16.348,4.97,8.5,41.705,7.2,47.274l-12.406,3.736c.572-3.727,1.18-12.335-1.251-27.86-1.412-8.938-4.38-15.034-8.858-18.135a11.753,11.753,0,0,0-4.469-1.922A24.437,24.437,0,0,0,228,169.244Z" transform="translate(-105.402 -42.823)" fill="#fff4d8"/>
      <path id="Path_260" data-name="Path 260" d="M229.984,211.7s8.733,6.891,21.451,2.44c9.617-3.37,11.477-5.363,11.477-5.363s.644,44.592-.25,50.67-16.357,7.874-25.867,8.375-10.806.6-10.806.6l-2-15.946-3.843,7.15s-2.994-15.534-2.315-27.565c.894-16.482,4.952-26.09,4.952-26.09Z" transform="translate(-104.312 -47.462)" fill="#fffef9"/>
      <path id="Path_261" data-name="Path 261" d="M277.791,240.83h0Z" transform="translate(-110.655 -51.163)" fill="#fff"/>
      <path id="Path_262" data-name="Path 262" d="M289.353,238.327a.733.733,0,0,0,.34,0,.626.626,0,0,0,.2-.179l.429-.518a1.26,1.26,0,0,1-1.251.983,3.034,3.034,0,0,0-.4,0,.617.617,0,0,0-.527.635,1.307,1.307,0,0,0,.1.366,18.09,18.09,0,0,0,1.117,2.243,7.24,7.24,0,0,0-.938-1.341,2.843,2.843,0,0,1-.34-.572,4.377,4.377,0,0,0-.268-.456,2.279,2.279,0,0,0-.313.626,2.432,2.432,0,0,0-.089.509l-.107,1.019a2.681,2.681,0,0,1-.072-1.162,1.877,1.877,0,0,1,.313-.974c.1-.116.3-.215.34-.375s0-.232.045-.375C288.182,238.2,288.9,238.3,289.353,238.327Z" transform="translate(-111.688 -50.823)" fill="#faffff"/>
      <path id="Path_263" data-name="Path 263" d="M253.568,165.2s-1.645.152-1.788,3.843-1.654,5.211-5.631,3.808-8.348-4.38-8.849-7.633,1.636-4.746,2.243-6.078a11.227,11.227,0,0,0,.358-4.165s-1.385-5.971-.572-7.758,2.118-4.719,6.48-1.591S255.419,163.923,253.568,165.2Z" transform="translate(-106.382 -40.907)" fill="#f09f81"/>
      <path id="Path_264" data-name="Path 264" d="M229.116,173.154c.384.1,7.15,4.165,7.991,10.127s1.68,14.873,2.279,16.848,2.226,11.78,3.763,13.8-7.419,8.357-10.887,6.167-9.251-17.662-10-19.959-.7-14.2-.3-17.608S226.434,172.475,229.116,173.154Z" transform="translate(-104.731 -43.972)" fill="#0059c9"/>
      <path id="Path_265" data-name="Path 265" d="M261.475,140.469a9.742,9.742,0,0,1,.938,5.881c-.465,3.575-.706,4.818-1.216,5.72s-2.315,7.883-3.084,9.3-2.261,5.56-4.183,5.461-5.863-1.788-8.214-2.735-3.575-6.194-3.575-6.194-1.993-6.873-1.922-8.268,6.507-8.849,11.155-9.671A28.9,28.9,0,0,1,261.475,140.469Z" transform="translate(-106.7 -40.424)" fill="#fab8a0"/>
      <path id="Path_266" data-name="Path 266" d="M243.29,152.311l1.788.787s.965-4.1,2.628-4.657,2.681-4.246,3.423-5.148,1.314-2.27,2.556-1.394,4.058,2.467,6.257,2.181,2.19-.894,2.19-.894l.617,2.029.179-3.575a10.564,10.564,0,0,0,.072-3.4c-.125-.751-.974-4.1-2.154-4l1.609-.134a30.076,30.076,0,0,0-5.5-3.522.375.375,0,0,0,.241-.5,52.358,52.358,0,0,0-7.669-.295,1.207,1.207,0,0,0,1.117-1.055c-1.314.25-2.681.2-4,.527-.545.143-3.575.894-3.79,1.323a8.867,8.867,0,0,0,.644-2,11.056,11.056,0,0,0-3.495,3.638,17.876,17.876,0,0,0-1.9,3.888c-.894,3.4-.956,10.055-.554,11.351s2.4,5.846,2.4,5.846.483-6.158,1.689-5.756S244.452,149.513,243.29,152.311Z" transform="translate(-106.392 -39.244)" fill="#7c4739"/>
      <path id="Path_267" data-name="Path 267" d="M242.764,151.545s-.474-2.243-1.984-2.315-1.457,2.145-1.216,3.262a24.684,24.684,0,0,0,1.6,3.423c.116.4,1-.608,1.126-.778S242.764,151.545,242.764,151.545Z" transform="translate(-106.617 -41.436)" fill="#fac4b0"/>
      <path id="Path_268" data-name="Path 268" d="M168.926,169.924c-.268.769-.661,1.5-.894,2.3-.527,1.931,0,3.969.143,5.962a35.539,35.539,0,0,1-.349,5.81,12.391,12.391,0,0,0,0,2.681c.1.956.393,1.877.581,2.824a13.774,13.774,0,0,1,.241,3.879,30.576,30.576,0,0,0-.393,4.406c.072,1.385.536,2.681.742,4.085a5.077,5.077,0,0,1-.733,3.969c-1.251-2.789-.277-6.051-.67-9.081-.161-1.269-.572-2.494-.706-3.772a12.514,12.514,0,0,1,.465-4.469,2.681,2.681,0,0,0,.152-1.126,4.041,4.041,0,0,0-.626-1.3,6.757,6.757,0,0,1-.393-3.826q.769-8.411,1.868-16.795a13.406,13.406,0,0,0,.152-3.486,14.927,14.927,0,0,0-1.028-3.307,4.174,4.174,0,0,1,2.074,3.817C169.614,164.91,169.749,167.573,168.926,169.924Z" transform="translate(-98.858 -42.44)" fill="#ed0000"/>
      <path id="Path_269" data-name="Path 269" d="M166.565,166.6a2.476,2.476,0,0,0-.259,1.09c0,1.582,0,3.146-.045,4.728,0,1.108-.742,2.3-.411,3.405a1.725,1.725,0,0,0,3.048.384,6.614,6.614,0,0,0,1.055-3.575c.179-1.466,1.037-6.73-1.269-7.222A1.913,1.913,0,0,0,166.565,166.6Z" transform="translate(-98.794 -43.151)" fill="#f95352"/>
      <path id="Path_270" data-name="Path 270" d="M165.935,180.005a2.574,2.574,0,0,0-.259,1.09v3.933c0,1.108-.956,4.29.608,4.773a2.037,2.037,0,0,0,.617.063c2.226,0,2.226-2.154,2.431-3.826.188-1.457,1.037-6.721-1.26-7.222A1.94,1.94,0,0,0,165.935,180.005Z" transform="translate(-98.754 -44.575)" fill="#f95352"/>
      <path id="Path_271" data-name="Path 271" d="M169.07,193.156a2.6,2.6,0,0,1,.259,1.09v3.942c0,1.1.956,4.281-.608,4.773a2.038,2.038,0,0,1-.617.054c-2.226,0-2.226-2.154-2.431-3.817-.188-1.466-1.037-6.73,1.26-7.222A1.931,1.931,0,0,1,169.07,193.156Z" transform="translate(-98.751 -45.972)" fill="#f95352"/>
      <path id="Path_272" data-name="Path 272" d="M168.212,157.261a8.089,8.089,0,0,1,1.6,2.619,5.658,5.658,0,0,1,.4,3.575,1.269,1.269,0,0,1-2.235.384,8.857,8.857,0,0,1-.894-2.574,4.9,4.9,0,0,0-.679-1.43c-.313-.447-.76-.751-1.037-1.225a1.788,1.788,0,0,1,0-1.519,1.189,1.189,0,0,1,1.153-.733,1.412,1.412,0,0,1,1.242.447A5.432,5.432,0,0,1,168.212,157.261Z" transform="translate(-98.734 -42.192)" fill="#f95352"/>
      <path id="Path_273" data-name="Path 273" d="M166.565,206.315a2.476,2.476,0,0,0-.259,1.09c0,1.582,0,3.146-.045,4.728,0,1.108-.742,2.288-.411,3.405a1.725,1.725,0,0,0,3.048.384,6.613,6.613,0,0,0,1.055-3.575c.179-1.466,1.037-6.73-1.269-7.222A1.913,1.913,0,0,0,166.565,206.315Z" transform="translate(-98.794 -47.369)" fill="#f95352"/>
      <path id="Path_274" data-name="Path 274" d="M159.38,214.107a11.483,11.483,0,0,0-.143-1.662c-.1-.59-.277-1.171-.42-1.788a13.674,13.674,0,0,1-.358-2.628,26.913,26.913,0,0,1,.188-3.79q.349-3.817.715-7.642a35.02,35.02,0,0,0,.349-3.727c0-1.082.215-2.181.17-3.271a9.922,9.922,0,0,0-.313-1.788,14.068,14.068,0,0,1-.518-5.542c.1-.6.268-1.189.313-1.788a10.637,10.637,0,0,0-.134-2.127c-.143-1.233-.179-2.467-.215-3.7-.089-2.762-.17-5.524-.259-8.295a8.224,8.224,0,0,1,.331-3.173c.3-.778.894-1.448,1.18-2.208a5.083,5.083,0,0,1,1.233-2.342,18.459,18.459,0,0,1,1.511-1.314,2.306,2.306,0,0,1,.778-.188c.3-.054.6-.107.894-.179.17,0,.3-.1.42.063a.357.357,0,0,1-.054.411.274.274,0,0,0-.072.089c-.009.036,0,.3-.107.331-.268.08-.572.045-.849.1a3.182,3.182,0,0,0-1.68,1.412c-1.278,1.734-2.6,3.575-2.941,5.711a24.713,24.713,0,0,0,0,3.817c0,2.315-.527,4.684.1,6.909.349,1.242,1.064,2.44.894,3.718-.072.527-.286,1.019-.393,1.528a7.606,7.606,0,0,0-.089,1.788c0,.947.045,1.895.063,2.842a13.653,13.653,0,0,0,.134,1.788c.089.527.241,1.037.349,1.555a8.518,8.518,0,0,1,.125,2.333,12.434,12.434,0,0,0-.25,2.136,20.076,20.076,0,0,1-.286,5.014,16.14,16.14,0,0,0-.393,2.681c0,.894.206,1.788.188,2.681s-.259,1.788-.358,2.681a17.35,17.35,0,0,0,.17,3.906,13.609,13.609,0,0,0,.536,2.118,7.445,7.445,0,0,1,0,3.575,2.333,2.333,0,0,1-.652-1.4Z" transform="translate(-98.017 -42.254)" fill="#ff9898"/>
      <path id="Path_275" data-name="Path 275" d="M197.614,133.555c.661-.545,1.528-1.117,2.306-.778.635.277-36.414,22.461-36.351,23.15a1.93,1.93,0,0,1-.089.894,3.844,3.844,0,0,1-1,1.171c-1.332,1.394-1.269,3.575-1.591,5.452a1.984,1.984,0,0,1-.25.787,1.484,1.484,0,0,1-1.064.6c-2.306.313-2.5-2.074-2.243-3.781C157.669,158.886,195.9,134.968,197.614,133.555Z" transform="translate(-97.889 -39.679)" fill="#fc7c7c"/>
      <path id="Path_276" data-name="Path 276" d="M160.637,170.595a2.5,2.5,0,0,1,.259,1.09v4.728c.054,1.108.742,2.3.411,3.414a1.716,1.716,0,0,1-3.039.375,6.591,6.591,0,0,1-1.055-3.575c-.179-1.457-1.037-6.73,1.26-7.222A1.931,1.931,0,0,1,160.637,170.595Z" transform="translate(-97.853 -43.575)" fill="#fc7c7c"/>
      <path id="Path_277" data-name="Path 277" d="M161.289,184.006a2.592,2.592,0,0,1,.25,1.09v3.933c0,1.108.947,4.29-.608,4.773a2.037,2.037,0,0,1-.617.063c-2.226,0-2.226-2.154-2.431-3.817-.188-1.466-1.037-6.73,1.26-7.222a1.931,1.931,0,0,1,2.145,1.18Z" transform="translate(-97.924 -45)" fill="#fc7c7c"/>
      <path id="Path_278" data-name="Path 278" d="M158.165,197.165a2.449,2.449,0,0,0-.259,1.09v3.933c0,1.108-.956,4.29.608,4.773a2.011,2.011,0,0,0,.617.063c2.226,0,2.226-2.163,2.431-3.826.179-1.457,1.037-6.73-1.26-7.222A1.931,1.931,0,0,0,158.165,197.165Z" transform="translate(-97.928 -46.397)" fill="#fc7c7c"/>
      <path id="Path_279" data-name="Path 279" d="M160.637,210.315a2.476,2.476,0,0,1,.259,1.09c0,1.591,0,3.146,0,4.728.054,1.108.742,2.3.411,3.405a1.716,1.716,0,0,1-3.039.384,6.591,6.591,0,0,1-1.055-3.575c-.179-1.466-1.037-6.73,1.26-7.222a1.931,1.931,0,0,1,2.163,1.189Z" transform="translate(-97.853 -47.793)" fill="#fc7c7c"/>
      <path id="Path_280" data-name="Path 280" d="M97.008,374.191V298.833L62.06,278.66v75.357Z" transform="translate(-6.597 -29.591)" fill="#602000"/>
      <path id="Path_281" data-name="Path 281" d="M101.16,367.861V292.208L228.6,219.05V294.7Z" transform="translate(-10.749 -23.261)" fill="#902c0b"/>
      <path id="Path_282" data-name="Path 282" d="M62.06,290.79v12.594l27.056,15.356v23.695l7.892,6.391,11.056-6.391,26.653-14.721-41.955-19.2Z" transform="translate(-6.597 -30.879)" fill="#481304"/>
      <path id="Path_283" data-name="Path 283" d="M91.791,307.1v-7.177L52.91,277.48v7.177Z" transform="translate(-5.625 -29.465)" fill="#8e3b23"/>
      <path id="Path_284" data-name="Path 284" d="M96.41,311.822V292.837L233.976,213.86v18.985Z" transform="translate(-10.244 -22.71)" fill="#a93f21"/>
      <path id="Path_285" data-name="Path 285" d="M139.9,346.325v-7.177L277.475,259.84v7.177Z" transform="translate(-14.862 -27.592)" fill="#d97947"/>
      <path id="Path_286" data-name="Path 286" d="M229.357,211.2,91.782,290.51,52.91,268.058l53.9-31.114,44.3-25.456,12.665-7.311,5.676-3.28,21.04-12.147Z" transform="translate(-5.625 -20.043)" fill="#f49360"/>
      <path id="Path_287" data-name="Path 287" d="M241.9,254.374s3.093,4.326-1.609,6.739-11.941,6.882-14.578,7-6.847-2.681-6.847-2.681l-12.3,2.681,19.154-10.976S237.88,251.532,241.9,254.374Z" transform="translate(-103.127 -52.516)" fill="#ae522f"/>
      <path id="Path_288" data-name="Path 288" d="M135.282,336.481l137.575-79.308L233.976,234.73,96.41,314.038Z" transform="translate(-10.244 -24.926)" fill="#f49360"/>
      <path id="Path_289" data-name="Path 289" d="M237.071,356.5s-8.1-1.788-11.119-3.915-10.449-4.827-10.449-4.827L204,335.584l71.612-40.221s25.116-6.972,28.012-7.454,18.716,13.2,18.716,13.2-9.671-.894-10.35-.742c-3.629.894-8.822-.089-11.369,3.039s2.494,7.526-1.126,9.948c-1.385.894-13.076-.2-14.73,0-4.138.492-3.575,2.458-7.7,1.7-.116-.456-.241-.894-.358-1.368,1.189,1.332.617,3.4.894,5.166a24.129,24.129,0,0,0,1.144,3.575,9.573,9.573,0,0,1-.062,5.711,1.689,1.689,0,0,1-.411.742,1.859,1.859,0,0,1-.787.358c-4.8,1.35-9.716,2.681-14.7,2.476a44.33,44.33,0,0,1-9.626-1.841,33.234,33.234,0,0,1-6.444-2.27,13.765,13.765,0,0,1-2.78-1.841c-.661-.572-1.287-1.716-2.083-.67C239.368,328.336,237.071,356.5,237.071,356.5Z" transform="translate(-102.854 -56.161)" fill="#c4643e"/>
      <path id="Path_290" data-name="Path 290" d="M254.712,315.453c-.947.715-.831,7.436-.8,8.509a5.98,5.98,0,0,0,2.306,4.255c2.4,1.984,5.846,2.9,9.144,3.486a70.036,70.036,0,0,0,17.3.894c2.091-.152,4.308-.465,5.613-1.663a3.307,3.307,0,0,0,.992-1.68c.259-1.046,1.2-7.5.67-8.554-.849-1.7-3.575,2.118-5.113.733a38.558,38.558,0,0,0-11.039-7.419c-3.253-1.314-7.642-1.85-10.726-.617-1.144.456-1.966,1.484-1.582,2.521.447,1.171.939,1.788-.3,2.681C259.53,319.913,256.348,314.22,254.712,315.453Z" transform="translate(-108.152 -58.795)" fill="#de3d3a"/>
      <path id="Path_291" data-name="Path 291" d="M255.843,313.162c-2.261,1.7-1.421,5.05.983,7.034s5.846,2.9,9.144,3.486a70.549,70.549,0,0,0,17.3.894c2.083-.152,4.3-.465,5.6-1.662a4.185,4.185,0,0,0,.518-4.961,16.5,16.5,0,0,0-3.96-4.541,38.682,38.682,0,0,0-11.039-7.419c-3.262-1.314-7.651-1.85-10.726-.626-1.144.456-1.975,1.493-1.582,2.529.438,1.171.894,1.734-.313,2.681C260.187,311.884,257.514,311.92,255.843,313.162Z" transform="translate(-108.218 -57.944)" fill="#faffff"/>
      <path id="Path_292" data-name="Path 292" d="M287.88,319.17c.134.286.787,1.734-.089,2.538s-3.361,1.055-4.389,1.126a67.734,67.734,0,0,1-16.795-.894c-2.681-.474-6.042-1.251-8.205-3.048a4.782,4.782,0,0,1-1.251-1.546c-.286-.59-.652-1.671.188-2.306a7.956,7.956,0,0,1,2.306-.894,18.028,18.028,0,0,0,2.243-.787,4.827,4.827,0,0,1,1.868-.715,5.185,5.185,0,0,1,1.278.223,41.185,41.185,0,0,0,5.3,1.055,33.321,33.321,0,0,1-4.988-3.039c-1.126-.84-.608-1.94-.992-3.11a1.261,1.261,0,0,1,.313-.188c2.333-.894,6.051-.67,9.251.617a36.818,36.818,0,0,1,10.449,7.052,15.105,15.105,0,0,1,3.5,3.942Z" transform="translate(-108.463 -58.195)" fill="#f1615c"/>
      <path id="Path_293" data-name="Path 293" d="M273.443,316.813a1.841,1.841,0,0,0,.206,2.074,4.853,4.853,0,0,0,4.228,2.065,3.96,3.96,0,0,0,2.315-.679c.947-.983-.161-2.19-.956-2.815a6.668,6.668,0,0,0-3.718-1.618,2.243,2.243,0,0,0-2.074.974Z" transform="translate(-110.204 -59.127)" fill="#faffff"/>
      <path id="Path_294" data-name="Path 294" d="M284.472,257.687,245.6,216.59v18.654Z" transform="translate(-26.086 -22.999)" fill="#8e3b23"/>
      <path id="Path_295" data-name="Path 295" d="M237.566,338.932c-5.184-2.78-11.378-3.137-17.17-2.154-4.585.787-12.379-4.2-16.714-2.476-1.126.447,1.126,7.472,0,7.937,5.13,3.441,11.307,4.853,17.134,6.9s11.763,5.122,14.739,10.529c.366.652.76,1.4,1.484,1.6a2.547,2.547,0,0,0,1.484-.232,74.525,74.525,0,0,0,12.513-6.078,19.929,19.929,0,0,0,6.936-6.087,18.671,18.671,0,0,1,1.582-2.467c1.323-1.511,4.63-2.538,4.63-6.2v-7.4C257.274,335.258,244.064,342.408,237.566,338.932Z" transform="translate(-102.786 -60.929)" fill="#ca2b1a"/>
      <path id="Path_296" data-name="Path 296" d="M355.789,292.014c2.449-1.3,3.352-2.726,3.271-4.12-.188-3.343.322-8.044,0-8.6-3.441-5.685-22.059.813-28.37,1.6s-13.666-2.458-18.225,2.038c-.894.894-.429,7.24-.322,8.464.152,1.689,2.011,2.681,3.682,2.95,3.718.652,7.919-.384,11.047,1.725.956.644,1.725,1.537,2.681,2.235a10.386,10.386,0,0,0,7.6,1.645,27.394,27.394,0,0,0,7.544-2.485Q350.31,294.937,355.789,292.014Z" transform="translate(-114.315 -55.003)" fill="#ca2b1a"/>
      <path id="Path_297" data-name="Path 297" d="M237.6,330.465c-5.184-2.771-11.378-3.137-17.17-2.154s-11.28,3.236-16.714,5.461c5.13,3.441,11.307,4.853,17.134,6.9s11.763,5.122,14.739,10.529c.366.661.76,1.412,1.484,1.6a2.548,2.548,0,0,0,1.484-.232,74.525,74.525,0,0,0,12.513-6.078c2.681-1.609,5.282-3.45,6.936-6.087a19.269,19.269,0,0,1,1.582-2.467c1.323-1.511,6.427-4.022,3.977-6.748-1.546-1.716-5.917-.063-7.714.581C248.947,334.237,244.1,333.942,237.6,330.465Z" transform="translate(-102.824 -60.4)" fill="#f6685d"/>
      <path id="Path_298" data-name="Path 298" d="M243.774,339.8c2.681.644,5.479-.143,7.973-1.3s4.827-2.681,7.41-3.575a17.35,17.35,0,0,1,4.407-.965q-3.066,1.323-6.051,2.851a2.994,2.994,0,0,0-1.189.894,8.937,8.937,0,0,0-.509,1.2,5.077,5.077,0,0,1-2.252,2.029l-4.1,2.4c-1.788,1.037-3.682,2.118-5.747,2.118l.769.572a10.512,10.512,0,0,0-2.065,4.156c-.894-1.046-.742-2.538-.84-3.888-.089-1.189-.724-1.734-1.135-2.681-.34-.831-.366-.215.143-1.037a6.106,6.106,0,0,0,.8-1.645C241.808,339.564,242.389,339.466,243.774,339.8Z" transform="translate(-106.697 -61.053)" fill="#faffff"/>
      <path id="Path_299" data-name="Path 299" d="M224.41,329.985a42.261,42.261,0,0,0-12.79,3.182l7.088-.581a1.135,1.135,0,0,1,.769.125c.349.25.295.769.206,1.18-.179.894-.393,1.689-.617,2.521a8.16,8.16,0,0,0,3.423-2.2,3.619,3.619,0,0,0-1.323-.375,8.518,8.518,0,0,1,7.651-1.591.536.536,0,0,1,.384.241.581.581,0,0,1,0,.483c-.322.831-.644,1.671-.956,2.5,1,.8,2.458.331,3.674-.089a27.1,27.1,0,0,1,10.949-1.359,7.147,7.147,0,0,0,2.226,0,32.275,32.275,0,0,0-8.455-.259c-2.065.206-5.515.822-5.211-2.2-.894-.358-1.788-.992-2.681-1.341A10.18,10.18,0,0,0,224.41,329.985Z" transform="translate(-103.663 -60.617)" fill="#faffff"/>
      <path id="Path_300" data-name="Path 300" d="M228.5,341.287a2.752,2.752,0,0,1,1.171.313c.715.456.947,1.5,1.734,1.788a7,7,0,0,1,.965.268c.518.277.635.939.8,1.493a4.746,4.746,0,0,0,1.689,2.386,2.789,2.789,0,0,1-1.788-.563c-1.618-.965-3.2-1.984-4.844-2.923-1.466-.84-3.495-1.385-4.782-2.387C224.451,340.581,227.2,341.144,228.5,341.287Z" transform="translate(-104.919 -61.802)" fill="#faffff"/>
      <path id="Path_301" data-name="Path 301" d="M355.815,283.445c8.33-4.469-1.207-10.216-6.507-11.62-6.427-1.671-12.272-.3-18.582.474s-12.379,2.842-16.929,7.329a4.249,4.249,0,0,0-1.618,3.173c.152,1.689,2.011,2.681,3.682,2.95,3.718.652,7.919-.384,11.048,1.725.956.644,1.725,1.537,2.681,2.235a10.43,10.43,0,0,0,7.6,1.654,27.709,27.709,0,0,0,7.544-2.494Q350.336,286.368,355.815,283.445Z" transform="translate(-114.34 -54.37)" fill="#f6685d"/>
      <path id="Path_302" data-name="Path 302" d="M342.781,279.068c1.287-.474,2.118-1.671,3.048-2.681A12.656,12.656,0,0,1,350,273.41q-1.421,1.582-2.726,3.271c-.232.313-.465.742-.232,1.046a.894.894,0,0,0,.3.223,6.9,6.9,0,0,0,1.966.822,14.554,14.554,0,0,0,1.788.107,6.543,6.543,0,0,1,4.567,2.342l-3.682-.241a14.532,14.532,0,0,1-1.975-.223c-.8-.17-1.555-.483-2.333-.706-3.4-.983-7.079-.268-10.359,1.046.2-.08.59-.84.831-1.037a3.683,3.683,0,0,1,1.314-.679C340.609,279.032,341.664,279.47,342.781,279.068Z" transform="translate(-117.011 -54.623)" fill="#faffff"/>
      <path id="Path_303" data-name="Path 303" d="M329.369,276.5a12.022,12.022,0,0,1-2.681,1.734,34.424,34.424,0,0,1-7.15,3.066c-1.376.358-2.878.59-3.9,1.582l4.666-1.412a13.13,13.13,0,0,1,3.307-.688c2.735-.08,5.256,1.582,7.07,3.629-.358-1.9-2.226-3.066-3.924-4l2.61-3c.393-.456,1.949-2.127,1.546-2.824-.286-.483-.536.509-.626.679A5,5,0,0,1,329.369,276.5Z" transform="translate(-114.709 -54.733)" fill="#faffff"/>
      <path id="Path_304" data-name="Path 304" d="M340.9,287.657a10.725,10.725,0,0,1-1.591,1.886,3.852,3.852,0,0,1-2.869.822c1.671.322,3.62.563,4.889-.572a24.141,24.141,0,0,0,1.627-2.226,6.6,6.6,0,0,1,2.824-1.662,36.4,36.4,0,0,1,6.418-1.725,1.993,1.993,0,0,0-1.448-.644,8.858,8.858,0,0,0-5.622.635A12.639,12.639,0,0,0,340.9,287.657Z" transform="translate(-116.918 -55.677)" fill="#faffff"/>
      <path id="Path_305" data-name="Path 305" d="M338.942,272.963a3.906,3.906,0,0,0-1.207.34c-1.207.67-1.278,2.413-2.2,3.432-.751.84-2,1.1-2.726,1.966a12.122,12.122,0,0,0,2.878-.652,4.335,4.335,0,0,0,2.234-1.859,7.541,7.541,0,0,1,.76-1.43,3.745,3.745,0,0,1,1.975-.894,18.172,18.172,0,0,0,3.772-1.385c-.733-.5-1.7-.125-2.476,0Z" transform="translate(-116.532 -54.497)" fill="#faffff"/>
      <path id="Path_306" data-name="Path 306" d="M326.134,285.038c-2.967-1.144-6.31,0-9.474-.384a22.347,22.347,0,0,0,5.694,1.359c1.788.188,3.638.188,5.139,1.126.626.393,1.153.894,1.788,1.35,1.984,1.421,4.585,1.555,7.025,1.573a53.625,53.625,0,0,1-5.551-2.217C329.155,286.977,327.833,285.681,326.134,285.038Z" transform="translate(-114.817 -55.802)" fill="#faffff"/>
      <path id="Path_307" data-name="Path 307" d="M63.818,261.925l-4.228,2.431V131.84l4.228-2.44Z" transform="translate(-6.334 -13.741)" fill="#a93f21"/>
      <path id="Path_308" data-name="Path 308" d="M54.87,261.925l4.219,2.431V131.84L54.87,129.4Z" transform="translate(-5.833 -13.741)" fill="#7c2700"/>
      <path id="Path_309" data-name="Path 309" d="M212.129,178.966l-4.219,2.44V48.89l4.219-2.44Z" transform="translate(-22.084 -4.932)" fill="#a93f21"/>
      <path id="Path_310" data-name="Path 310" d="M203.18,178.966l4.228,2.44V48.89l-4.228-2.44Z" transform="translate(-21.582 -4.932)" fill="#7c2700"/>
      <path id="Path_311" data-name="Path 311" d="M135.282,350.865v-7.177L96.41,302.59v25.831Z" transform="translate(-10.244 -32.132)" fill="#8e3b23"/>
      <path id="Path_312" data-name="Path 312" d="M139.5,340.957l-4.219,2.44L96.41,302.3l4.219-2.44Z" transform="translate(-10.244 -31.842)" fill="#f7b38f"/>
      <path id="Path_313" data-name="Path 313" d="M288.7,254.957l-4.228,2.44L245.6,216.3l4.219-2.44Z" transform="translate(-26.086 -22.71)" fill="#f7b38f"/>
      <path id="Path_314" data-name="Path 314" d="M297.039,95.2c-.268.778-.661,1.511-.894,2.3-.527,1.931,0,3.969.143,5.962a35.48,35.48,0,0,1-.349,5.837,12.388,12.388,0,0,0-.063,2.681c.1.956.393,1.886.581,2.824a14.128,14.128,0,0,1,.241,3.879,32.034,32.034,0,0,0-.4,4.415c.08,1.385.545,2.681.751,4.085a5.077,5.077,0,0,1-.733,3.969c-1.251-2.8-.277-6.051-.67-9.09-.161-1.269-.572-2.494-.706-3.763a12.514,12.514,0,0,1,.465-4.469,2.753,2.753,0,0,0,.152-1.135,4.228,4.228,0,0,0-.626-1.3,6.73,6.73,0,0,1-.393-3.817q.76-8.42,1.868-16.795a13.406,13.406,0,0,0,.152-3.486,14.356,14.356,0,0,0-1.037-3.307,4.147,4.147,0,0,1,2.1,3.754A19.394,19.394,0,0,1,297.039,95.2Z" transform="translate(-112.455 -34.509)" fill="#ed0000"/>
      <path id="Path_315" data-name="Path 315" d="M294.685,91.856a2.5,2.5,0,0,0-.259,1.09c0,1.591,0,3.146-.045,4.728-.045,1.117-.742,2.3-.411,3.414a1.725,1.725,0,0,0,3.048.384,6.636,6.636,0,0,0,1.055-3.575c.179-1.457,1.028-6.73-1.269-7.222A1.922,1.922,0,0,0,294.685,91.856Z" transform="translate(-112.398 -35.216)" fill="#f95352"/>
      <path id="Path_316" data-name="Path 316" d="M294.065,105.276a2.6,2.6,0,0,0-.259,1.09v3.942c0,1.1-.956,4.281.608,4.773a2.368,2.368,0,0,0,.617.054c2.226,0,2.226-2.154,2.431-3.817.188-1.466,1.037-6.73-1.26-7.222A1.931,1.931,0,0,0,294.065,105.276Z" transform="translate(-112.359 -36.64)" fill="#f95352"/>
      <path id="Path_317" data-name="Path 317" d="M297.19,118.435a2.574,2.574,0,0,1,.259,1.09v3.933c0,1.108.956,4.29-.608,4.773a2.038,2.038,0,0,1-.617.063c-2.226,0-2.226-2.154-2.431-3.826-.188-1.457-1.037-6.721,1.26-7.222A1.94,1.94,0,0,1,297.19,118.435Z" transform="translate(-112.356 -38.037)" fill="#f95352"/>
      <path id="Path_318" data-name="Path 318" d="M296.332,82.531a8.134,8.134,0,0,1,1.6,2.628,5.578,5.578,0,0,1,.393,3.575,1.269,1.269,0,0,1-2.226.384,9,9,0,0,1-.894-2.583,5,5,0,0,0-.679-1.43,13.638,13.638,0,0,1-1.037-1.225,1.788,1.788,0,0,1,0-1.519,1.2,1.2,0,0,1,1.153-.733,1.368,1.368,0,0,1,1.233.456C296.028,82.218,296.189,82.379,296.332,82.531Z" transform="translate(-112.339 -34.256)" fill="#f95352"/>
      <path id="Path_319" data-name="Path 319" d="M294.685,131.585a2.476,2.476,0,0,0-.259,1.09c0,1.591,0,3.146-.045,4.728-.045,1.108-.742,2.3-.411,3.405a1.725,1.725,0,0,0,3.048.384,6.591,6.591,0,0,0,1.055-3.575c.179-1.466,1.028-6.73-1.269-7.222a1.913,1.913,0,0,0-2.118,1.189Z" transform="translate(-112.398 -39.433)" fill="#f95352"/>
      <path id="Path_320" data-name="Path 320" d="M287.5,139.374a11.615,11.615,0,0,0-.143-1.662c-.1-.59-.286-1.171-.42-1.788a13.1,13.1,0,0,1-.357-2.628,26.982,26.982,0,0,1,.188-3.8c.232-2.547.474-5.086.715-7.633a35.179,35.179,0,0,0,.349-3.736c0-1.082.214-2.181.17-3.271a9.826,9.826,0,0,0-.313-1.788,14.113,14.113,0,0,1-.518-5.551c.1-.6.268-1.189.313-1.788a11.386,11.386,0,0,0-.134-2.136c-.143-1.225-.179-2.458-.214-3.691-.089-2.771-.17-5.533-.259-8.295a8.269,8.269,0,0,1,.331-3.182c.3-.778.894-1.439,1.18-2.208a5.04,5.04,0,0,1,1.233-2.342,18.456,18.456,0,0,1,1.511-1.314,2.547,2.547,0,0,1,.769-.188c.313-.054.608-.107.894-.179.17,0,.3-.089.42.063a.358.358,0,0,1-.054.411.274.274,0,0,0-.071.089c-.009.036,0,.3-.107.331-.268.08-.572,0-.849.107a3.164,3.164,0,0,0-1.663,1.5c-1.278,1.788-2.6,3.575-2.941,5.711a23.644,23.644,0,0,0,0,3.817c0,2.315-.536,4.684.1,6.909.349,1.242,1.064,2.449.894,3.727-.071.518-.286,1.01-.393,1.528a8.043,8.043,0,0,0-.1,1.788c0,.947.054,1.895.071,2.842a12.3,12.3,0,0,0,.134,1.788c.089.527.241,1.037.34,1.555a8.223,8.223,0,0,1,.134,2.342,12.318,12.318,0,0,0-.25,2.127,20.075,20.075,0,0,1-.286,5.014,16.274,16.274,0,0,0-.393,2.681c0,.894.2,1.788.188,2.681s-.259,1.788-.358,2.681a17.419,17.419,0,0,0,.17,3.915,13.509,13.509,0,0,0,.536,2.109,7.445,7.445,0,0,1,0,3.575,2.333,2.333,0,0,1-.652-1.394Z" transform="translate(-111.622 -34.315)" fill="#ff9898"/>
      <path id="Path_321" data-name="Path 321" d="M288.429,82.795c.661-.554,1.52-1.126,2.306-.778a1.984,1.984,0,0,1,.956,1.761,2.092,2.092,0,0,1-.089.894,4.049,4.049,0,0,1-1,1.18c-1.332,1.4-1.269,3.575-1.591,5.461a2.19,2.19,0,0,1-.25.787,1.484,1.484,0,0,1-1.037.617c-2.306.3-2.512-2.083-2.243-3.79C285.792,86.746,286.713,84.207,288.429,82.795Z" transform="translate(-111.496 -34.288)" fill="#fc7c7c"/>
      <path id="Path_322" data-name="Path 322" d="M288.757,95.856a2.449,2.449,0,0,1,.259,1.09v4.728c.054,1.108.742,2.288.411,3.405a1.716,1.716,0,0,1-3.039.384,6.538,6.538,0,0,1-1.055-3.575c-.179-1.457-1.037-6.721,1.26-7.213a1.931,1.931,0,0,1,2.163,1.18Z" transform="translate(-111.458 -35.64)" fill="#fc7c7c"/>
      <path id="Path_323" data-name="Path 323" d="M289.409,109.276a2.628,2.628,0,0,1,.25,1.09q0,1.971,0,3.942c0,1.1.947,4.29-.608,4.773a2.039,2.039,0,0,1-.617.063c-2.234,0-2.226-2.163-2.44-3.826-.179-1.457-1.028-6.73,1.269-7.222a1.94,1.94,0,0,1,2.145,1.18Z" transform="translate(-111.529 -37.065)" fill="#fc7c7c"/>
      <path id="Path_324" data-name="Path 324" d="M286.285,122.436a2.476,2.476,0,0,0-.259,1.09v3.933c0,1.108-.956,4.29.608,4.773a2.011,2.011,0,0,0,.617.063c2.226,0,2.226-2.154,2.431-3.817.179-1.466,1.037-6.73-1.26-7.222A1.931,1.931,0,0,0,286.285,122.436Z" transform="translate(-111.533 -38.463)" fill="#fc7c7c"/>
      <path id="Path_325" data-name="Path 325" d="M288.757,135.586a2.512,2.512,0,0,1,.259,1.1V141.4c.054,1.117.742,2.3.411,3.414a1.716,1.716,0,0,1-3.039.384,6.56,6.56,0,0,1-1.055-3.575c-.179-1.457-1.037-6.73,1.26-7.222A1.94,1.94,0,0,1,288.757,135.586Z" transform="translate(-111.458 -39.859)" fill="#fc7c7c"/>
      <path id="Path_326" data-name="Path 326" d="M281.688,85.788c-.277.778-.661,1.511-.894,2.3-.527,1.931,0,3.969.143,5.962a36.482,36.482,0,0,1-.349,5.837,13.014,13.014,0,0,0-.072,2.681c.107.956.4,1.886.59,2.833a13.711,13.711,0,0,1,.232,3.87,33.483,33.483,0,0,0-.393,4.415c.08,1.385.536,2.681.751,4.085a5.113,5.113,0,0,1-.733,3.969c-1.26-2.8-.277-6.051-.67-9.09-.17-1.269-.572-2.494-.706-3.763a12.308,12.308,0,0,1,.465-4.469,2.753,2.753,0,0,0,.152-1.135,4.227,4.227,0,0,0-.626-1.3,6.73,6.73,0,0,1-.4-3.817q.778-8.42,1.868-16.795a13.406,13.406,0,0,0,.161-3.486,14.354,14.354,0,0,0-1.037-3.307,4.147,4.147,0,0,1,2.083,3.817A18.651,18.651,0,0,1,281.688,85.788Z" transform="translate(-110.825 -33.509)" fill="#ed0000"/>
      <path id="Path_327" data-name="Path 327" d="M279.341,82.456a2.681,2.681,0,0,0-.25,1.1v4.719c-.054,1.117-.742,2.3-.411,3.414a1.716,1.716,0,0,0,3.039.384,6.561,6.561,0,0,0,1.055-3.575c.188-1.457,1.037-6.73-1.26-7.222A1.94,1.94,0,0,0,279.341,82.456Z" transform="translate(-110.775 -34.217)" fill="#f95352"/>
      <path id="Path_328" data-name="Path 328" d="M278.725,95.856a2.476,2.476,0,0,0-.259,1.09q0,1.971,0,3.942c0,1.1-.956,4.29.608,4.773a1.788,1.788,0,0,0,.617.054c2.226,0,2.226-2.154,2.431-3.817.179-1.466,1.037-6.73-1.26-7.222A1.931,1.931,0,0,0,278.725,95.856Z" transform="translate(-110.731 -35.64)" fill="#f95352"/>
      <path id="Path_329" data-name="Path 329" d="M281.849,109.026a2.566,2.566,0,0,1,.25,1.09v3.933c0,1.108.947,4.29-.608,4.773a2.037,2.037,0,0,1-.617.063c-2.235,0-2.226-2.154-2.44-3.826-.179-1.457-1.028-6.721,1.269-7.213A1.931,1.931,0,0,1,281.849,109.026Z" transform="translate(-110.726 -37.038)" fill="#f95352"/>
      <path id="Path_330" data-name="Path 330" d="M280.993,73.13a8.044,8.044,0,0,1,1.6,2.619,5.586,5.586,0,0,1,.393,3.575,1.269,1.269,0,0,1-2.226.384,9.019,9.019,0,0,1-.894-2.583,4.576,4.576,0,0,0-.679-1.43,15.188,15.188,0,0,1-1.028-1.225,1.788,1.788,0,0,1,0-1.519,1.189,1.189,0,0,1,1.153-.733,1.368,1.368,0,0,1,1.233.456C280.68,72.808,280.841,72.969,280.993,73.13Z" transform="translate(-110.711 -33.257)" fill="#f95352"/>
      <path id="Path_331" data-name="Path 331" d="M279.341,122.174a2.628,2.628,0,0,0-.25,1.09v4.728c-.054,1.108-.742,2.3-.411,3.414a1.716,1.716,0,0,0,3.039.375,6.517,6.517,0,0,0,1.055-3.575c.188-1.457,1.037-6.73-1.26-7.222A1.931,1.931,0,0,0,279.341,122.174Z" transform="translate(-110.775 -38.433)" fill="#f95352"/>
      <path id="Path_332" data-name="Path 332" d="M272.159,129.963a14.564,14.564,0,0,0-.143-1.654c-.1-.6-.286-1.171-.42-1.788a13.1,13.1,0,0,1-.366-2.628,29.817,29.817,0,0,1,.188-3.79c.241-2.556.483-5.095.724-7.642a35.179,35.179,0,0,0,.349-3.736c0-1.082.215-2.181.17-3.271a9.1,9.1,0,0,0-.322-1.788,14.1,14.1,0,0,1-.51-5.551c.1-.6.268-1.189.313-1.788A11.392,11.392,0,0,0,272,94.192c-.134-1.225-.17-2.458-.215-3.691-.08-2.771-.17-5.533-.25-8.295a7.875,7.875,0,0,1,.331-3.173c.3-.787.84-1.448,1.18-2.217s.518-1.788,1.225-2.342c.518-.393.983-.992,1.52-1.314a2.485,2.485,0,0,1,.769-.188,4.27,4.27,0,0,0,.894-.17c.286-.063.3-.1.42.054a.358.358,0,0,1-.054.411.274.274,0,0,0-.071.089c-.009.036,0,.3-.107.331-.268.08-.572,0-.849.107a3.173,3.173,0,0,0-1.68,1.4c-1.287,1.788-2.61,3.575-2.941,5.711a24.827,24.827,0,0,0,0,3.826c0,2.306-.527,4.675.107,6.9.349,1.242,1.055,2.449.894,3.727-.071.518-.286,1.01-.393,1.528a8.044,8.044,0,0,0-.1,1.788c0,.956.045,1.9.072,2.851a12.393,12.393,0,0,0,.134,1.788c.08.518.241,1.028.34,1.546a8.224,8.224,0,0,1,.125,2.342,14.371,14.371,0,0,0-.25,2.127,19.664,19.664,0,0,1-.277,5.014,16.28,16.28,0,0,0-.393,2.681c0,.894.2,1.788.179,2.681a26.982,26.982,0,0,1-.349,2.681,16.911,16.911,0,0,0,.17,3.915,12.576,12.576,0,0,0,.536,2.109,7.445,7.445,0,0,1,0,3.575,2.422,2.422,0,0,1-.652-1.394Z" transform="translate(-109.993 -33.315)" fill="#ff9898"/>
      <path id="Path_333" data-name="Path 333" d="M273.085,73.385c.661-.545,1.52-1.126,2.306-.778a1.957,1.957,0,0,1,.947,1.725,2.092,2.092,0,0,1-.08.894,3.933,3.933,0,0,1-1,1.18c-1.332,1.4-1.278,3.575-1.591,5.461a2.047,2.047,0,0,1-.259.787,1.466,1.466,0,0,1-1.055.6c-2.315.3-2.512-2.074-2.243-3.79C270.449,77.336,271.369,74.8,273.085,73.385Z" transform="translate(-109.864 -33.289)" fill="#fc7c7c"/>
      <path id="Path_334" data-name="Path 334" d="M273.417,86.465a2.6,2.6,0,0,1,.259,1.09v4.728c.054,1.108.742,2.288.411,3.405a1.716,1.716,0,0,1-3.039.384,6.538,6.538,0,0,1-1.055-3.575c-.188-1.466-1.037-6.73,1.26-7.222A1.931,1.931,0,0,1,273.417,86.465Z" transform="translate(-109.829 -34.641)" fill="#fc7c7c"/>
      <path id="Path_335" data-name="Path 335" d="M274.06,99.855a2.449,2.449,0,0,1,.259,1.09v3.933c0,1.1.956,4.29-.608,4.773a2.011,2.011,0,0,1-.617.063c-2.226,0-2.226-2.163-2.431-3.826-.179-1.457-1.037-6.73,1.26-7.222a1.931,1.931,0,0,1,2.136,1.189Z" transform="translate(-109.901 -36.064)" fill="#fc7c7c"/>
      <path id="Path_336" data-name="Path 336" d="M270.935,113.026a2.476,2.476,0,0,0-.259,1.09v3.942c0,1.1-.947,4.281.608,4.764a2.073,2.073,0,0,0,.617.063c2.235,0,2.235-2.154,2.44-3.817.179-1.466,1.028-6.73-1.269-7.222a1.913,1.913,0,0,0-2.136,1.18Z" transform="translate(-109.904 -37.463)" fill="#fc7c7c"/>
      <path id="Path_337" data-name="Path 337" d="M273.417,126.185a2.574,2.574,0,0,1,.259,1.09v4.719c.054,1.117.742,2.3.411,3.414a1.716,1.716,0,0,1-3.039.384,6.561,6.561,0,0,1-1.055-3.575c-.188-1.457-1.037-6.721,1.26-7.222a1.931,1.931,0,0,1,2.163,1.189Z" transform="translate(-109.829 -38.859)" fill="#fc7c7c"/>
      <path id="Path_338" data-name="Path 338" d="M50.15,134.871l4.219,2.431V99.11L50.15,96.67Z" transform="translate(-5.332 -10.265)" fill="#8e3b23"/>
      <path id="Path_339" data-name="Path 339" d="M50.15,86.4l4.219,2.44L204.234,2.44,200.015,0Z" transform="translate(-5.332)" fill="#c56139"/>
      <path id="Path_340" data-name="Path 340" d="M204.735,40.923,54.87,127.327V89.135L204.735,2.73Z" transform="translate(-5.833 -0.29)" fill="#d97947"/>
      <path id="Path_341" data-name="Path 341" d="M180.374,115.755l2.941-1.689a1.6,1.6,0,0,1,2.243.7l1.85,3.861a1.6,1.6,0,0,0,2.976-.223l2.976-9.689a1.591,1.591,0,0,1,.724-.894l2.288-1.314a1.6,1.6,0,0,1,2.4,1.385v20.1a1.6,1.6,0,0,1-.8,1.385l-2.056,1.18a1.591,1.591,0,0,1-2.4-1.394v-4.129l.313-4.943-.17.063-2.512,9.117a1.654,1.654,0,0,1-.742.956l-1.466.84a1.609,1.609,0,0,1-2.279-.76l-2.074-4.9-.143.116.349,4.549v5.989a1.618,1.618,0,0,1-.8,1.394l-2.038,1.171a1.6,1.6,0,0,1-2.4-1.385V117.15A1.627,1.627,0,0,1,180.374,115.755Z" transform="translate(-100.26 -36.876)" fill="#fff"/>
      <path id="Path_342" data-name="Path 342" d="M217.275,104.118l3.575-2.074a1.6,1.6,0,0,1,2.4,1.385v1.511a1.609,1.609,0,0,1-.787,1.368l-6.793,3.924a1.591,1.591,0,0,0-.8,1.385V114.3l6.73-3.879a1.6,1.6,0,0,1,2.4,1.385v1.984a1.609,1.609,0,0,1-.8,1.385l-11.226,6.48a1.609,1.609,0,0,1-2.4-1.394v-20.12a1.609,1.609,0,0,1,.8-1.385l11.2-6.48a1.609,1.609,0,0,1,2.4,1.394v1.913a1.627,1.627,0,0,1-.8,1.394l-7.526,4.344a1.591,1.591,0,0,0-.8,1.385h0a1.6,1.6,0,0,0,2.431,1.412Z" transform="translate(-103.445 -35.366)" fill="#fff"/>
      <path id="Path_343" data-name="Path 343" d="M251.163,98.831l-2.744,1.582a1.6,1.6,0,0,1-2.315-.894l-.1-.286a1.591,1.591,0,0,0-2.315-.894l-3.236,1.868a1.573,1.573,0,0,0-.76,1.019l-.974,4.165a1.573,1.573,0,0,1-.76,1.019l-1.707.992a1.6,1.6,0,0,1-2.351-1.788l6.1-23.632a1.6,1.6,0,0,1,.751-.983l2.547-1.475a1.609,1.609,0,0,1,2.306.822l6.248,16.562A1.609,1.609,0,0,1,251.163,98.831Zm-8.044-5.461a1.609,1.609,0,0,0,.76-1.788L242.717,86.6l-.143.089-1.528,7.839Z" transform="translate(-106.024 -34.012)" fill="#fff"/>
      <path id="Path_344" data-name="Path 344" d="M267.947,71.358V87.626a1.618,1.618,0,0,1-.8,1.394l-2.092,1.207a1.6,1.6,0,0,1-2.4-1.385V76.265a1.6,1.6,0,0,0-2.4-1.385l-.7.4a1.6,1.6,0,0,1-2.4-1.385V71.912a1.591,1.591,0,0,1,.8-1.385l13.085-7.553a1.6,1.6,0,0,1,2.4,1.385v2.02a1.6,1.6,0,0,1-.8,1.385l-3.9,2.252a1.591,1.591,0,0,0-.8,1.341Z" transform="translate(-108.498 -32.254)" fill="#fff"/>
      <path id="Path_345" data-name="Path 345" d="M210.793,200.5,72.86,279.6l1.609.921,137.584-79.3Z" transform="translate(-7.743 -21.291)" fill="#cd6545"/>
      <path id="Path_346" data-name="Path 346" d="M212.244,201.31,228.4,212.527,95.182,288.8,74.66,280.609,94.1,291.835l137.566-79.308Z" transform="translate(-7.935 -21.377)" fill="#f7b38f"/>
      <path id="Path_347" data-name="Path 347" d="M263.728,256.23l5.2,5.667L142.67,334.483l1.743,1.841L273.542,261.9Z" transform="translate(-15.156 -27.209)" fill="#f7b38f"/>
      <path id="Path_348" data-name="Path 348" d="M209.921,281.493a8.3,8.3,0,0,1-.715,4.12l-2.985,7.356q-2.842,7.025-5.694,14.042c-.67,1.636-1.332,3.28-1.993,4.916,0,0-3.942,1.984-14.212-2.109s-20.191-9.153-18.985-10.386,6.257-11.834,11.137-12.013c3.066-.107,6.337-1.645,9.162-2.681,4.237-1.564,8.429-3.262,12.6-5.005l4.63-1.948c1.09-.474,2.842-1.68,3.9-.679.313.295.536.67.894.956.179.161.366.295.554.438A4.541,4.541,0,0,1,209.921,281.493Z" transform="translate(-98.738 -54.974)" fill="#c4643e"/>
      <path id="Path_349" data-name="Path 349" d="M304.984,291.538a15.6,15.6,0,0,1-1.3-1.117c-1.5-1.108-3.575-.438-5.452-.447-1.439,0-2.923-.456-4.308-.063a6.024,6.024,0,0,0-1.984,1.1,26.243,26.243,0,0,0-6.355,7.714c-.778,1.3-1.591,2.2-1.3,3.8a6.471,6.471,0,0,0,2.556,3.87,18,18,0,0,0,6.346,2.5,31.813,31.813,0,0,1,5.917,2,26.81,26.81,0,0,0,2.851,1.359c1.3.456,1.448,1.216,2.815,1.3s3.736-.5,4.979-.411a5.978,5.978,0,0,0,1.788-.063,5.237,5.237,0,0,0,1.788-.894c3.915-2.815,8.286-6.149,9.421-10.833.2-.8-1.189-2.6-1.627-3.289a3.182,3.182,0,0,0-.894-.813,16.749,16.749,0,0,0-3.2-2.011c-2.181-.956-4.782-.894-6.82-2.19A5.006,5.006,0,0,0,307.907,292C306.915,291.842,305.878,292.047,304.984,291.538Z" transform="translate(-111.374 -56.358)" fill="#f26764"/>
      <path id="Path_350" data-name="Path 350" d="M309.383,295.143a19.439,19.439,0,0,1-2.4-.08,12.2,12.2,0,0,1-1.5-.349l-2.681-.724a20.242,20.242,0,0,0-2.681-.6,9.9,9.9,0,0,0-4.6.536,5.231,5.231,0,0,0-1.341.67,7.026,7.026,0,0,0-1.26,1.314,6.918,6.918,0,0,0-1.287,2.083,2.315,2.315,0,0,0,.384,2.315,3.04,3.04,0,0,0,1.171.661,21.3,21.3,0,0,0,3.9.831,103.4,103.4,0,0,0,11.119,1.233,7.15,7.15,0,0,0,1.743-.08,14.7,14.7,0,0,0,2.681-1.081c.965-.4,1.993-.617,2.959-1.01a4.237,4.237,0,0,0,2.342-1.957c.384-.8.34-1.332-.429-1.689a24.226,24.226,0,0,0-2.583-1.082A17.974,17.974,0,0,0,309.383,295.143Z" transform="translate(-112.143 -56.737)" fill="#f47e7b"/>
      <path id="Path_351" data-name="Path 351" d="M291.979,293.451a5.233,5.233,0,0,0,.3-.429,5.247,5.247,0,0,1,3.28-2.261,13.192,13.192,0,0,1,5.443.107,5.033,5.033,0,0,1,2.217.751,2.914,2.914,0,0,0,2.208.894c1.019,0,2.029.393,3.066.429l1.716.063a5.005,5.005,0,0,0-2.306-1.055c-.965-.134-2,.071-2.9-.438a15.612,15.612,0,0,1-1.323-1.091c-1.5-1.108-3.575-.438-5.452-.447-1.439,0-2.923-.456-4.308-.063a6.024,6.024,0,0,0-1.984,1.1,26.243,26.243,0,0,0-6.355,7.714c-.778,1.3-1.591,2.2-1.3,3.8a6.471,6.471,0,0,0,2.556,3.87,18,18,0,0,0,6.346,2.5,31.813,31.813,0,0,1,5.917,2,26.81,26.81,0,0,0,2.851,1.359c1.3.456,1.448,1.216,2.815,1.3a8.752,8.752,0,0,0,1.52-.089,4.941,4.941,0,0,0,.375-1.251c.054-.375-.054-.956.2-1.242-1.18-.8-1.895-.894-1.993-2.538-.063-.965.116-2.163-.7-2.681a2.324,2.324,0,0,0-1.1-.268l-6.73-.447a7.445,7.445,0,0,1-4.228-1.43,7.285,7.285,0,0,0-1.922-.894,3.057,3.057,0,0,1-1.645-1.269,3.146,3.146,0,0,1-.268-1.4,5.8,5.8,0,0,1,1.01-3.638C290.094,295.336,291.175,294.514,291.979,293.451Z" transform="translate(-111.374 -56.358)" fill="#de3d3a"/>
      <path id="Path_352" data-name="Path 352" d="M301.876,305.3c-.545,1.09-1.269,2.869-.983,4.138s2.226,2.762,3.191,3.495a6.078,6.078,0,0,0,2.8,1.537c1.868.42,3.388-.393,5.3-.411,3.808,0,7.383-1.788,10.592-3.87a5.247,5.247,0,0,0,1.448-1.207,4.317,4.317,0,0,0,.706-1.922c.6-3.5-.581-6.793-3.817-8.491A12.45,12.45,0,0,0,315,297.417a24.365,24.365,0,0,0-6.748,1.126,7.821,7.821,0,0,0-2.681,1.332,7.616,7.616,0,0,0-1.314,1.519A29.887,29.887,0,0,0,301.876,305.3Z" transform="translate(-113.136 -57.169)" fill="#ec2720"/>
      <path id="Path_353" data-name="Path 353" d="M314.8,301.582a3.191,3.191,0,0,1-1.117,1.144c-.813.456-1.859.331-2.681.778a7.508,7.508,0,0,0-1.788,1.868,5.237,5.237,0,0,1-2.1,1.439,7.338,7.338,0,0,0,2.235-1.368c.223-.223.42-.483.644-.706a3.691,3.691,0,0,1,2.226-1.055c.626-.063,1.341,0,1.788-.438.286-.286.393-.733.724-.974s.5-.206.661-.411a1.368,1.368,0,0,0,.161-.813,2.86,2.86,0,0,1,1.788-2.306,3.692,3.692,0,0,0-1.654.894A14.489,14.489,0,0,0,314.8,301.582Z" transform="translate(-113.803 -57.313)" fill="#faffff"/>
      <path id="Path_354" data-name="Path 354" d="M318.83,309.85c-.384,0-.76-.063-1.171-.063h-1.832a.313.313,0,0,1-.241-.071c-.063-.063-.054-.161-.089-.232a.723.723,0,0,0-.518-.134c-2.976.483-5.935,1.368-8.938,1.233a12.05,12.05,0,0,0,2.467.206,14.106,14.106,0,0,0,2.029-.331c1.189-.25,2.387-.465,3.575-.644a1.367,1.367,0,0,1,.8.054c.125.071.232.179.349.259a2.262,2.262,0,0,0,1.242.322,7.391,7.391,0,0,0,2.038-.152,3.825,3.825,0,0,1,1.01,0c.259,0,.894-.152,1.09-.054a4.181,4.181,0,0,0-1.046-.268Z" transform="translate(-113.689 -58.439)" fill="#faffff"/>
      <path id="Path_355" data-name="Path 355" d="M324.092,303.3a.84.84,0,0,1-.42-.071.893.893,0,0,1-.241-.241l-.5-.67a1.582,1.582,0,0,0,1.511,1.314,3.227,3.227,0,0,1,.509,0,.787.787,0,0,1,.617.831,1.4,1.4,0,0,1-.152.447,21.232,21.232,0,0,1-1.528,2.753,8.494,8.494,0,0,1,1.269-1.627,6.26,6.26,0,0,0,.465-.7,4.086,4.086,0,0,1,.357-.563,3.4,3.4,0,0,1,.358.8,3.243,3.243,0,0,1,.071.652c0,.429.054.894.072,1.287a3.343,3.343,0,0,0,.17-1.457,2.4,2.4,0,0,0-.34-1.242c-.116-.152-.366-.286-.4-.483s.063-.295,0-.483C325.576,303.223,324.673,303.312,324.092,303.3Z" transform="translate(-115.483 -57.693)" fill="#faffff"/>
      <path id="Path_356" data-name="Path 356" d="M303.13,307.793a2.1,2.1,0,0,1-.349.84,9.7,9.7,0,0,1-1.081,1.412,3.451,3.451,0,0,0,1-1,5.72,5.72,0,0,0,.751-1.216c.107-.25.125-.518.223-.76a1.609,1.609,0,0,1,.331-.447l1.341-1.4a8.141,8.141,0,0,1-1.108.8,2.4,2.4,0,0,0-.831.894c.063-.429,0-.894.1-1.278a7.151,7.151,0,0,1,.483-.983,10.723,10.723,0,0,1,.8-1.716,18.367,18.367,0,0,0-1.314,2.342,4.326,4.326,0,0,0-.42.956C302.924,306.757,303.184,307.257,303.13,307.793Z" transform="translate(-113.229 -57.759)" fill="#faffff"/>
      <path id="Path_357" data-name="Path 357" d="M211.71,285.729c.8-1.117,2.529-2.78,2.681-4.469s1.18-7.374.125-7.83c-2.351-1.019-8.938,7.669-11.092,8.464-5.908,2.181-9.01,6.31-14.962,8.447-3.575,1.278-7.9,1.734-11.539,2.958-2.807.947-5.542-4.648-7.079-2.985-.241.259-.072,7.526-.125,7.83-.107.715.822,1.35,1.689,1.886l8.893,5.506a11.414,11.414,0,0,0,5.291,2.029,13.079,13.079,0,0,1,2.547.206A5.05,5.05,0,0,1,190,309.022c1.43,1.144,3.808,1.743,6.06,2.288a8.582,8.582,0,0,0,2.038.322,5.685,5.685,0,0,0,2.681-.7c1.788-.965,2.815-2.369,4.469-3.423,1.475-.939,3.575-1.671,4.112-2.9a36.947,36.947,0,0,0,.277-8.545c-.59-1.52-1.707,3.155-2.3,1.645s-1.3-2.9-.894-4.469c.313-1.225,1.734-2.279,2.476-3.414C209.78,288.491,210.718,287.105,211.71,285.729Z" transform="translate(-99.213 -54.616)" fill="#ec2720"/>
      <path id="Path_358" data-name="Path 358" d="M206.538,285.363c-.411,1.555.295,2.959.894,4.469l1.788,4.549a3.021,3.021,0,0,1,.259,2.324c-.59,1.26-2.681,1.957-4.1,2.923-1.7,1.037-2.681,2.44-4.469,3.4a5.426,5.426,0,0,1-2.681.706,7.83,7.83,0,0,1-2.038-.331c-2.252-.518-4.621-1.108-6.06-2.252a4.469,4.469,0,0,0-1.85-1.26,13.853,13.853,0,0,0-2.547-.223,11.369,11.369,0,0,1-5.291-2.029c-2.959-1.788-5.908-3.665-8.938-5.515-.894-.518-1.788-1.144-1.671-1.886a1.528,1.528,0,0,1,.518-.813,16.008,16.008,0,0,1,6.695-4.031,22.208,22.208,0,0,1,2.217-.626l1.3-.331a74.53,74.53,0,0,0,8.044-1.993c5.953-2.145,9.027-6.257,14.936-8.429a25.84,25.84,0,0,1,7.15-1.484c1.216-.071,3.218.072,3.808.849,1.037,1.3-1.85,3.289-2.628,4.4-1,1.412-1.957,2.78-2.842,4.183C208.272,283.111,206.833,284.148,206.538,285.363Z" transform="translate(-99.224 -54.528)" fill="#f26764"/>
      <path id="Path_359" data-name="Path 359" d="M185.032,293.9c-.349.331-.661.7-1.019,1.019s-.983.411-1.162.652a34.016,34.016,0,0,0,2.512-3.763c.259-.447.456-1.126,0-1.385a1.4,1.4,0,0,0-.581-.116,1.707,1.707,0,0,1-1.242-.778,4.673,4.673,0,0,0-.509-.84c-.465-.447-1.216-.295-1.841-.116L176.2,290.02a16.3,16.3,0,0,1-4.281.366,38.176,38.176,0,0,1,6.534-2.61c.59-.17,6.632-1.341,6.632-.661a2.869,2.869,0,0,0,.438,1.716,1.484,1.484,0,0,0,1.555.644c.751-.223,1.064-1.09,1.323-1.832a5.711,5.711,0,0,1,1.788-2.681,8.2,8.2,0,0,1,2.27-1.046c3.575-1.332,6.766-3.575,10.082-5.479a32.18,32.18,0,0,1,5-2.422,4.782,4.782,0,0,1,2.485-.456c.715.116,1.323.813,2.127.429l-8.938,4.317-4.532,2.19a5.2,5.2,0,0,0-1.475.8c-.5.483-.679,1.081-1.368,1.394a10.065,10.065,0,0,0-1.743.679,6.024,6.024,0,0,0-1.788,1.743,16.09,16.09,0,0,0-1.35,2.753c-.742,1.788-1.493,3.62-2.235,5.434a8.413,8.413,0,0,0-.5,1.448,5.426,5.426,0,0,0,.545,3.575,32.054,32.054,0,0,1-4.031-.393,41.759,41.759,0,0,0,2.681-8.706,30.667,30.667,0,0,1-2.387,2.681Z" transform="translate(-99.447 -54.849)" fill="#faffff"/>
      <path id="Path_360" data-name="Path 360" d="M206.561,295.337a1.555,1.555,0,0,0-.17-1.707c-.366-.375-.992-.474-1.242-.894s.134-1.242.518-1.788c1.314-1.788,1.707-4.04,3.048-5.729l3.575-4.469a11.208,11.208,0,0,0-4.469,2.86l-3.486,3.119a.894.894,0,0,0-.295.393c-.063.286.161.536.322.778a2.681,2.681,0,0,1,.179,2.333,5.809,5.809,0,0,1-1.367,1.984,15.106,15.106,0,0,1-5.193,3.468,13.032,13.032,0,0,0,6.489-1.359,11.494,11.494,0,0,0-3.182,2.547,19.774,19.774,0,0,0-1.788,3.37,4.907,4.907,0,0,1-2.61,2.628c2.467.5,4.326,0,5.863-2.181a40.981,40.981,0,0,1,2.449-3.674,8.265,8.265,0,0,0,1.251-1.5S206.543,295.373,206.561,295.337Z" transform="translate(-102.099 -55.402)" fill="#faffff"/>
      <path id="Path_361" data-name="Path 361" d="M54.87,109.5l2.109-19.673L204.735,2.73,54.87,89.135Z" transform="translate(-5.833 -0.29)" fill="#f7b38f"/>
      <path id="Path_362" data-name="Path 362" d="M54.87,112.643,204.735,25.13V42.148L203.859,28.2Z" transform="translate(-5.833 -2.669)" fill="#f7b38f"/>
      <path id="Path_363" data-name="Path 363" d="M204.735,23.79,54.87,111.741v.76L204.735,24.988Z" transform="translate(-5.833 -2.526)" fill="#cd593b"/>
      <path id="Path_364" data-name="Path 364" d="M286.038,237.823a22.1,22.1,0,0,0-3.656,3.575,15.025,15.025,0,0,1-.947,1.368.894.894,0,0,1-.358.241,6.637,6.637,0,0,1-2.2-.894c-1.993-.84-3.414-2.681-4.585-4.523-.581-.947-3.146-3.933-3.763-4.88l5.676-3.28C278.619,231.727,282.57,237.582,286.038,237.823Z" transform="translate(-109.919 -49.953)" fill="#ae522f"/>
      <path id="Path_365" data-name="Path 365" d="M314.449,242.575c-.295.822-8.125,3.173-12.049,4.415-1.618.509-2.083,2.5-3.861,3.262a13.255,13.255,0,0,1-1.385.465c-.894.223-1.788.375-2.583.6-3.575.956-6.891,3.057-10.547,3.808-1.582.331-3.4.474-4.469,1.671-1.278,1.412-2.815,1.564-4.469,2.529a9.232,9.232,0,0,1-1.332.769,10.825,10.825,0,0,1-3.8.974,7.579,7.579,0,0,1-2.5.107c-2.771-.456-5.1-3.316-6.489-5.586a1.216,1.216,0,0,1-.179-.6c.17-.644,1.064-.679,1.037-1.457s-1.153-1.26-1.788-1.448c-1.993-.688-4.1-1.126-5.9-2.261-1.359-.894-6.838-3-8.044-4.281l9.171-5.193c3.057,2.047,7.973,6.2,11.342,7.821,3.11,1.484,7.588-.474,10.064-2.681a14.034,14.034,0,0,0,1.886-2.145l.277-.295,5.139-4.97h-.536a28.2,28.2,0,0,1,2.485-1.94,12.038,12.038,0,0,1,3.2-1.788,18.332,18.332,0,0,1,5.184-.357,25.92,25.92,0,0,0,5.81-.751c1.743-.429,2.86-1.2,4.746-1.046,3.37.268,7.151,1.788,9.224,4.585C316.433,239.965,314.77,241.761,314.449,242.575Z" transform="translate(-107.323 -50.245)" fill="#ae522f"/>
      <path id="Path_366" data-name="Path 366" d="M301.682,229.64c.411-.215.715-.59,1.1-.84,1.233-.822,2.86-.206,4.344-.143a12.2,12.2,0,0,1,3.432.116,4.926,4.926,0,0,1,1.528.947,21.023,21.023,0,0,1,4.755,6.382c.563,1.073,1.18,1.788.894,3.075a5.157,5.157,0,0,1-2.181,2.976,14.355,14.355,0,0,1-5.139,1.788,25.189,25.189,0,0,0-4.782,1.359,21.8,21.8,0,0,1-2.315.965c-1.055.3-1.2.894-2.288.894s-2.95-.545-3.942-.527a4.675,4.675,0,0,1-1.412-.116,3.96,3.96,0,0,1-1.376-.8c-3-2.386-6.346-5.211-7.07-8.938-.116-.635,1.055-2.02,1.43-2.547a2.546,2.546,0,0,1,.724-.617A13,13,0,0,1,292,232.143c1.788-.679,3.835-.536,5.506-1.484a4.013,4.013,0,0,1,1.877-.742,6.113,6.113,0,0,0,2.3-.277Z" transform="translate(-111.691 -49.841)" fill="#f26764"/>
      <path id="Path_367" data-name="Path 367" d="M299.16,232.371a16.91,16.91,0,0,0,1.9,0c.4-.045.8-.134,1.207-.215l2.127-.474a15.125,15.125,0,0,1,2.172-.375,7.99,7.99,0,0,1,3.656.572,4.229,4.229,0,0,1,1.037.581,5.6,5.6,0,0,1,.947,1.1,5.363,5.363,0,0,1,.939,1.707,1.841,1.841,0,0,1-.393,1.788,2.3,2.3,0,0,1-.956.474,15.983,15.983,0,0,1-3.128.509,82.163,82.163,0,0,1-8.884.554,5.9,5.9,0,0,1-1.376-.134,12.039,12.039,0,0,1-2.065-.965c-.751-.358-1.555-.572-2.306-.894a3.361,3.361,0,0,1-1.788-1.645c-.277-.652-.223-1.073.411-1.323a19.4,19.4,0,0,1,2.083-.769,14.693,14.693,0,0,1,4.415-.492Z" transform="translate(-112.208 -50.149)" fill="#f47e7b"/>
      <path id="Path_368" data-name="Path 368" d="M313.163,231.672c-.08-.116-.152-.232-.223-.358a4.228,4.228,0,0,0-2.521-1.931,10.583,10.583,0,0,0-4.308-.1,3.87,3.87,0,0,0-1.788.509,2.333,2.333,0,0,1-1.788.626c-.813,0-1.636.232-2.458.223H298.71a4.013,4.013,0,0,1,1.877-.742,6.114,6.114,0,0,0,2.315-.232c.411-.215.715-.59,1.1-.84,1.233-.822,2.86-.206,4.344-.143a12.2,12.2,0,0,1,3.432.116,4.926,4.926,0,0,1,1.528.947,21.022,21.022,0,0,1,4.755,6.382c.563,1.073,1.18,1.788.894,3.075a5.157,5.157,0,0,1-2.181,2.976,14.355,14.355,0,0,1-5.139,1.788,25.19,25.19,0,0,0-4.782,1.359,21.8,21.8,0,0,1-2.315.965c-1.055.3-1.2.894-2.288.894a7.5,7.5,0,0,1-1.207-.134,3.913,3.913,0,0,1-.25-1c0-.3.081-.769-.107-1,.974-.581,1.537-.644,1.689-1.949.08-.76,0-1.716.652-2.1a1.842,1.842,0,0,1,.894-.17l5.363-.1a5.81,5.81,0,0,0,3.405-.974,5.989,5.989,0,0,1,1.564-.635,2.377,2.377,0,0,0,1.359-.947,2.476,2.476,0,0,0,.268-1.108,4.585,4.585,0,0,0-.661-2.923C314.584,233.218,313.762,232.512,313.163,231.672Z" transform="translate(-112.911 -49.844)" fill="#de3d3a"/>
      <path id="Path_369" data-name="Path 369" d="M304.957,240.7a5.765,5.765,0,0,1,.626,3.325c-.286,1.046-1.877,2.109-2.681,2.681a4.791,4.791,0,0,1-2.288,1.117c-1.5.259-2.681-.447-4.2-.536-3.021-.179-5.792-1.734-8.259-3.486a4.307,4.307,0,0,1-1.108-1.019,3.486,3.486,0,0,1-.483-1.555,6.053,6.053,0,0,1,3.37-6.6,9.912,9.912,0,0,1,4.9-.679,19.4,19.4,0,0,1,5.318,1.162,6.168,6.168,0,0,1,2.092,1.162,6.667,6.667,0,0,1,.983,1.251,24.538,24.538,0,0,1,1.734,3.173Z" transform="translate(-111.615 -50.426)" fill="#ec2720"/>
      <path id="Path_370" data-name="Path 370" d="M296.211,237.273a2.6,2.6,0,0,0,.84.947c.635.393,1.466.34,2.1.724a5.935,5.935,0,0,1,1.341,1.555,4.183,4.183,0,0,0,1.609,1.225,6.007,6.007,0,0,1-1.725-1.171c-.17-.188-.313-.4-.483-.59a2.968,2.968,0,0,0-1.725-.894c-.492-.072-1.064-.045-1.4-.411s-.277-.608-.536-.8-.393-.179-.509-.349a1.064,1.064,0,0,1-.1-.652,2.27,2.27,0,0,0-1.341-1.913,2.923,2.923,0,0,1,1.278.813,12.1,12.1,0,0,1,.652,1.519Z" transform="translate(-112.441 -50.538)" fill="#faffff"/>
      <path id="Path_371" data-name="Path 371" d="M292.259,243.688a8.042,8.042,0,0,1,.894,0l1.466.054a.223.223,0,0,0,.2-.045c.045-.045.045-.125.08-.179a.575.575,0,0,1,.411-.089c2.351.5,4.657,1.314,7.061,1.332a9.654,9.654,0,0,1-1.966.063,10.83,10.83,0,0,1-1.6-.34c-.939-.241-1.877-.465-2.824-.652a1.055,1.055,0,0,0-.644,0,2.609,2.609,0,0,0-.286.188,1.734,1.734,0,0,1-1,.206,5.676,5.676,0,0,1-1.609-.2,3.477,3.477,0,0,0-.8-.045,3.782,3.782,0,0,0-.894-.08,3.047,3.047,0,0,1,.849-.17Z" transform="translate(-112.065 -51.439)" fill="#faffff"/>
      <path id="Path_372" data-name="Path 372" d="M305.852,242.69a1.635,1.635,0,0,0,.241.67,7.029,7.029,0,0,0,.813,1.171,2.815,2.815,0,0,1-.76-.831,4.588,4.588,0,0,1-.554-1c-.071-.2-.071-.411-.143-.608a1.163,1.163,0,0,0-.25-.366c-.34-.393-.67-.787-1.01-1.171a6.438,6.438,0,0,0,.894.688,1.832,1.832,0,0,1,.617.706v-1.019a4.471,4.471,0,0,0-.34-.8,9.581,9.581,0,0,0-.563-1.4,15.966,15.966,0,0,1,.947,1.922,3.03,3.03,0,0,1,.295.778C306.058,241.867,305.808,242.252,305.852,242.69Z" transform="translate(-113.493 -50.94)" fill="#faffff"/>
      <path id="Path_373" data-name="Path 373" d="M280.636,224.83s.429,3.289,1.082,4.21a5.014,5.014,0,0,0,2.44,1.832c.465,0,2.342,2.217,2.4,2.61s.17,1.216.232,1.573,0,2.681-.831,3.423a7.836,7.836,0,0,1-2.851,1.064,16.7,16.7,0,0,1-3.808.518,2.1,2.1,0,0,1-1.421-1.082,14.163,14.163,0,0,0-.652-2.681,10.367,10.367,0,0,1-1.376-2.011l-.161-.635a43.473,43.473,0,0,0-.831-4.594c-.358-.724-.393-2.27.545-2.36a44.479,44.479,0,0,0,5.229-1.868Z" transform="translate(-110.354 -49.464)" fill="#fab8a0"/>
      <path id="Path_374" data-name="Path 374" d="M273,201.3s3.423-1.7,4.174-1.117,2.681,4.952,3.245,8.527,1.064,14.775,1.171,15.731c-3.2-1.394-4.353-1.323-5.586-.277s-2.27,4.889-2.27,4.889-2.315-6.811-2.914-8.867-2.565-7.356-2.681-9.546S268.478,202.947,273,201.3Z" transform="translate(-109.663 -46.834)" fill="#0059c9"/>
      <path id="Path_375" data-name="Path 375" d="M278.3,235.14c.384.089,7.8.375,7.8.375s.358,3.736-.465,3.96-7.15,0-7.15,0a1.126,1.126,0,0,1-1.01,0c-.572-.232-1.207-2.592-.536-3.343A4.532,4.532,0,0,1,278.3,235.14Z" transform="translate(-110.569 -50.559)" fill="#4d424a"/>
      <path id="Path_376" data-name="Path 376" d="M286.5,235.879a25.087,25.087,0,0,1,5.363-.313c2.208.223,10.1.483,10.1.483a11.745,11.745,0,0,1-4.621,3.754c-2.78,1.108-7.3.438-7.883.4s-2.44.143-2.44.143a7.151,7.151,0,0,0-.661-1.868l-.3-.286-.08-2.3Z" transform="translate(-111.558 -50.601)" fill="#bbc6c4"/>
      <path id="Path_377" data-name="Path 377" d="M279.115,230.281a10.874,10.874,0,0,1,3.146,1.788c.286.518,2.431,2.065,2.628,2.815a1.207,1.207,0,0,1-1.4,1.528,4.872,4.872,0,0,1-2.27-1.278,3.316,3.316,0,0,1-1.886.331,2.6,2.6,0,0,1-2.261-2.306C276.683,231.327,276.683,229.852,279.115,230.281Z" transform="translate(-110.593 -50.035)" fill="#fac4b0"/>
      <path id="Path_378" data-name="Path 378" d="M285.719,239.4s-2.235-1.233-2.592-1.019a3.387,3.387,0,0,0-.787.894,15.556,15.556,0,0,0-1.591-1.01c-.295-.1-1.055.259-1.055.259s-.456-1.082-.644-1.09-.831.277-.813.59-.509.089-.706.179-.384.742-.072,1.412a2.682,2.682,0,0,0,2.681,1.788,31.5,31.5,0,0,0,4.961-.992,1.126,1.126,0,0,0,.617-1.01Z" transform="translate(-110.637 -50.802)" fill="#fac4b0"/>
      <path id="Path_379" data-name="Path 379" d="M258.364,255.24c.08.956,1.421,1.922,2.065,2.44,2.3,1.94,3.977,4.961,7.553,3.826.608-.206,1.135-.492,1.734-.688,1.493-.545,16.884-8.42,18.395-8.938.84-.241,1.609-.7,2.413-.965,1.788-.635,4.21-.384,5.81-1.511,1.1-.8.563-2.574.2-3.933a7.148,7.148,0,0,1-.241-.894,5.772,5.772,0,0,0-.152-.626,12.254,12.254,0,0,0-.393-1.385,5.015,5.015,0,0,0-2.681-2.369,7.579,7.579,0,0,0-1.788-.6,32.687,32.687,0,0,0-5.256-.849,7.73,7.73,0,0,0-.8-.089c-.947-.072-1.528-.259-2.226.322s-1.108,1.135-1.788,1.645c-2.592,1.957-19.5,10.994-22.024,13.076a2.575,2.575,0,0,0-.822,1.019A.733.733,0,0,0,258.364,255.24Z" transform="translate(-108.622 -50.924)" fill="#f26764"/>
      <path id="Path_380" data-name="Path 380" d="M258.469,256.086a1.044,1.044,0,0,0,0,.3c.08.831,1.412,1.645,1.993,2.109,2.3,1.94,3.977,4.961,7.553,3.826.608-.206,1.135-.492,1.734-.688,1.493-.545,16.884-8.42,18.395-8.938.84-.241,1.609-.7,2.413-.965,1.788-.635,4.21-.384,5.81-1.511,1.1-.8.563-2.574.2-3.933-1.591.366-3.28,1.233-4.791,1.645-2.583.706-18.922,9.233-21.568,9.635-.992.152-2.467.652-3.37.072s-1.457-1.5-2.4-2.047c-.358-.206-1.618-.76-1.993-.894a9.6,9.6,0,0,0-2.36-.518,10.388,10.388,0,0,1-.8,1.2C258.942,255.7,258.567,255.738,258.469,256.086Z" transform="translate(-108.637 -51.743)" fill="#de3d3a"/>
      <path id="Path_381" data-name="Path 381" d="M262.1,241.05s2.44,2.619,3.933,3.218,5.309,0,5.881.295a50.333,50.333,0,0,1,5.568,3.075,36.653,36.653,0,0,1,2.02,4.067l.268,2.932v.894a13.091,13.091,0,0,1-1.037,1.645c-.286.277-.509.268-.635.438s-.411,1.09-1.117,1.055-.938-.983-.938-.983-1.233,1.457-2.127.6-4.549-3.727-5.711-3.9-4.916-.894-7.061-2.449-2.467-4.389-4.12-5.229-3.209-2.431-3.075-2.681S262.1,241.05,262.1,241.05Z" transform="translate(-108.157 -51.187)" fill="#fab8a0"/>
      <path id="Path_382" data-name="Path 382" d="M237.436,216.169s4.281-1.314,5.935.661,12.3,15.338,12.808,16.089,6.257,7.544,7.151,8.044c-2.932-.456-5.184,1.073-5.461,1.993s-.76,3.986-.331,5.041a5.712,5.712,0,0,1,.456,1.734s-9.769-6.051-14.5-10.52S232.77,224.07,232.77,224.07,231.689,217.76,237.436,216.169Z" transform="translate(-105.9 -48.499)" fill="#0e66d7"/>
      <path id="Path_383" data-name="Path 383" d="M280.33,244.288l2.681,2.092a2.208,2.208,0,0,0,.831.474,2.457,2.457,0,0,0,.894-.089c4.549-.983,9.144-1.886,13.738-2.681a12.253,12.253,0,0,0-.393-1.385,5.015,5.015,0,0,0-2.681-2.369,7.579,7.579,0,0,0-1.788-.6,32.688,32.688,0,0,0-5.256-.849c-1.081.563-1.841,1.841-2.753,2.592A13.81,13.81,0,0,1,280.33,244.288Z" transform="translate(-110.959 -50.956)" fill="#f47e7b"/>
      <path id="Path_384" data-name="Path 384" d="M228.608,241.364a27.628,27.628,0,0,0,.277,4.836,7.052,7.052,0,0,0,1.046,2.681,6.194,6.194,0,0,0,1.877,1.18,26.866,26.866,0,0,1,3.128.063c.894.125,5.774.974,6.73,1.055s.983-1.037.751-1.3a11.388,11.388,0,0,0-2.1-.938l-2.3-.769s3.236.331,4.058.313,1.591-.072,1.6-.6.161-1.189-.8-1.207a17.2,17.2,0,0,1-2.932-.554.492.492,0,0,1-.358-.438l3.906.107,1.064-.447s.063-1.654-.465-1.627-3.8-.268-3.933-.286.706-.831.974-.831,3.218-.268,3.495-.894.1-1.788-.733-1.895a50.112,50.112,0,0,0-5.059.1,26.686,26.686,0,0,1-3.012.045c-.366-.107-.626-.4-.34-1.3a6.525,6.525,0,0,1,.894-2,4.229,4.229,0,0,0,1.94-2.941c.063-1.654-.527-1.931-1.3-1.448a20.037,20.037,0,0,0-2.19,2.288,21.355,21.355,0,0,0-2.9,2.619c-.375.581-1.94,3-2.217,3.459a2.547,2.547,0,0,1-1.108.733Z" transform="translate(-105.466 -50.231)" fill="#fab8a0"/>
      <path id="Path_385" data-name="Path 385" d="M203.824,241.353c-1.975.8-3.575,1.082-4.174,3.906-.447,2.056-1.368,7.025.223,8.8a4.129,4.129,0,0,0,1.484.894,47.183,47.183,0,0,0,10.9,3.638c1.519.268,3.048.5,4.558.76s2.816-.232,4.255-.268,2.521.358,3.915-.295a11.718,11.718,0,0,0,3.575-3.119l3.227-3.709a7.776,7.776,0,0,0,1.609-2.4c.232-.679.25-1.376.465-2.056a13.961,13.961,0,0,1,1.287-2.378,18.537,18.537,0,0,0,1.895-7.15,6.623,6.623,0,0,0-.2-3.575c-.661-1.35-2.02-2.047-2.681-3.441a12.317,12.317,0,0,0-2.753-3.682c-1.287-1.26-4.308,0-6.194.465-1.743.411-4.371,1.064-5.792,2.19-2.628,2.074-4.031,5.282-6.775,7.15-2.3,1.6-5.184,2.324-7.642,3.629a12.243,12.243,0,0,1-1.18.643Z" transform="translate(-102.32 -49.666)" fill="#f88177"/>
      <path id="Path_386" data-name="Path 386" d="M231.183,226.651c3.146-.831,5,.536,5.926,3.4a26.812,26.812,0,0,0,1.788,3.575,24.83,24.83,0,0,1,2.413,8.625,14.06,14.06,0,0,1-.393,5.461c-1.144,3.834-3.87,6.48-7.025,8.733a20.046,20.046,0,0,1-2.574,2,13.025,13.025,0,0,1-2.851.947,7.078,7.078,0,0,1-2.628.3c-1.788-.268-2.9-1.94-3.718-3.575-2.681-5.265-4.21-11.62-2.681-18.1a13.193,13.193,0,0,1,1.233-3.388,12.387,12.387,0,0,1,1.368-1.957,18.386,18.386,0,0,1,9.144-6.024Z" transform="translate(-104.429 -49.632)" fill="#fff"/>
      <path id="Path_387" data-name="Path 387" d="M221.089,239.037c.438-1.85,1.725-4.9,4.281-4.031a7.184,7.184,0,0,1,3.2,2.4l-.8-1.788c-.518-1.153-1.341-3.021-.652-4.281s2.878-1.734,4.04-2.047c2.681-.715,4.281.456,5.077,2.914a23.384,23.384,0,0,0,1.537,3.066,21.12,21.12,0,0,1,2.065,7.392,12.129,12.129,0,0,1-.331,4.684,2.78,2.78,0,0,1-3.754,1.9,12.612,12.612,0,0,1-.322,2.681,8.473,8.473,0,0,1-4.147,4.639,11.5,11.5,0,0,1-2.44.813,6.016,6.016,0,0,1-2.261.25c-1.555-.223-2.485-1.654-3.182-3.048C221.134,250.031,219.784,244.623,221.089,239.037Z" transform="translate(-104.614 -49.915)" fill="#f1615c"/>
      <path id="Path_388" data-name="Path 388" d="M236.988,242.6a2.44,2.44,0,0,1-.232,1.725c-.527.813-1.788,1.064-2.056,1.984-.188.608.125,1.242.134,1.877a2.056,2.056,0,0,1-2.369,1.949,3.933,3.933,0,0,1-2.029-1.555,6.257,6.257,0,0,1-1.913-5.363,5.014,5.014,0,0,1,.527-2.681c.822-1.3,3.414-1.957,4.9-1.788C235.692,238.97,236.747,241.044,236.988,242.6Z" transform="translate(-105.452 -50.939)" fill="#fff"/>
      <path id="Path_389" data-name="Path 389" d="M197.57,253.373a20.13,20.13,0,0,0,1.511-3.522c.25-1.189,1.788-3.942,2.36-4.022a1.18,1.18,0,0,1,1.269,1.144,13.613,13.613,0,0,1-.241,2.279,6.641,6.641,0,0,0-.1,2.083c.152.894,1.68,1.671,1.68,1.671s-.474.411,1.225,0,4.085-.974,4.085-.974a12.041,12.041,0,0,1,2.681.054c.456.206.483.894.474,1.242s-2.637,1.064-2.637,1.064l-3.763,1.654s6.257-1.788,6.382-1.832,2.529-.813,3.289-.474a1.019,1.019,0,0,1,.161,1.725c-.527.259-6.024,1.975-6.024,1.975l3.79-.894a12.426,12.426,0,0,1,2.619-.608c.232.134,1.511.849.241,1.627a29.33,29.33,0,0,1-5.488,1.716l2.5.215s2.592-.554,3.048-.215.787.778-.679,1.278a10.653,10.653,0,0,1-3.718.7c-1.493,0-3.834-.572-4.755-.59s-5.81-.4-7.383-1.189S197.57,253.373,197.57,253.373Z" transform="translate(-102.171 -51.694)" fill="#fab8a0"/>
      <path id="Path_390" data-name="Path 390" d="M168.3,252.768s3.414-4.612,6.185-3.325,6.176,3.039,9.171,3.093,11.128-.322,11.128-.322a17.643,17.643,0,0,0,2.092,6.042,6.7,6.7,0,0,0,4.183,2.681s-12.04,2.163-18.77,2.923-14.6-.223-15.838-3.674S168.3,252.768,168.3,252.768Z" transform="translate(-98.835 -52.054)" fill="#0e66d7"/>
    </g>
  </g>
</svg>
