<?xml version="1.0" encoding="utf-8"?>
<!-- Generator: Adobe Illustrator 24.3.0, SVG Export Plug-In . SVG Version: 6.00 Build 0)  -->
<svg version="1.1" id="Layer_1" xmlns="http://www.w3.org/2000/svg" xmlns:xlink="http://www.w3.org/1999/xlink" x="0px" y="0px"
	 viewBox="0 0 52 52" style="enable-background:new 0 0 52 52;" xml:space="preserve">
<style type="text/css">
	.st0{fill:#F47721;}
</style>
<g>
	<g>
		<path class="st0" d="M26,52.01c-14.33,0-25.98-11.65-26-25.99C-0.02,11.67,11.7-0.05,26.04-0.01C40.39,0.03,52.02,11.69,52,26.02
			C51.98,40.36,40.33,52.01,26,52.01z M25.93,27.64c3.64,0,7.29,0,10.93,0c1.41,0,2.17-0.58,2.16-1.65
			c-0.01-1.06-0.76-1.62-2.19-1.62c-7.22,0-14.43,0-21.65,0c-0.26,0-0.52-0.01-0.77,0.02c-0.78,0.11-1.33,0.68-1.41,1.45
			c-0.11,1.04,0.65,1.79,1.86,1.79C18.55,27.64,22.24,27.64,25.93,27.64z"/>
	</g>
</g>
</svg>
