<svg xmlns="http://www.w3.org/2000/svg" width="13.512" height="17.191" viewBox="0 0 13.512 17.191"><defs><style>.a{fill:#fff;}</style></defs><g transform="translate(-79.9 479.7)"><path class="a" d="M83.3-479.677a1.293,1.293,0,0,0-.825.676,1.394,1.394,0,0,0-.107.66l-.015.472h-.38a3.71,3.71,0,0,0-.58.042,1.921,1.921,0,0,0-1.447,1.447c-.061.288-.061,12.089,0,12.377a1.921,1.921,0,0,0,1.447,1.447c.288.061,10.246.061,10.534,0a1.9,1.9,0,0,0,1.432-1.4,38.875,38.875,0,0,0,.05-4.115c-.012-3.85-.012-3.881-.092-3.985a.542.542,0,0,0-.514-.265.542.542,0,0,0-.514.265c-.081.1-.081.142-.1,3.989l-.019,3.885-.088.142a.646.646,0,0,1-.253.219c-.161.081-.184.081-5.175.081h-5.01l-.165-.088a.6.6,0,0,1-.257-.257l-.088-.165V-476.13l.088-.165c.134-.257.334-.346.775-.346h.357l.027.18a1.178,1.178,0,0,0,.641.9l.242.131h6.795l.2-.1a2.091,2.091,0,0,0,.311-.2,1.479,1.479,0,0,0,.376-.726l.027-.18h.349c.418,0,.63.081.764.3.088.138.088.165.107,1.57.019,1.367.023,1.432.1,1.532a.542.542,0,0,0,.514.265.542.542,0,0,0,.514-.265c.077-.1.081-.161.092-1.493a15.5,15.5,0,0,0-.031-1.62,1.915,1.915,0,0,0-1.451-1.474,3.71,3.71,0,0,0-.58-.042h-.38l-.015-.472a1.164,1.164,0,0,0-.146-.71,1.17,1.17,0,0,0-.576-.553l-.173-.088-3.321-.008C84.91-479.7,83.367-479.692,83.3-479.677Zm6.43,2.115v.921H83.589v-1.843h6.142Z" transform="translate(0)"/><path class="a" d="M144.472-335.724a.631.631,0,0,0-.349.695.657.657,0,0,0,.4.441c.1.031.8.038,2.127.031,1.935-.012,1.985-.015,2.088-.092a.542.542,0,0,0,.265-.514.542.542,0,0,0-.265-.514c-.1-.081-.154-.081-2.127-.088A13.576,13.576,0,0,0,144.472-335.724Z" transform="translate(-61.746 -138.406)"/><path class="a" d="M144.472-271.724a.631.631,0,0,0-.349.695.657.657,0,0,0,.4.441c.1.031,1.355.038,3.969.031,3.8-.012,3.827-.012,3.931-.092a.542.542,0,0,0,.265-.514.542.542,0,0,0-.265-.514c-.1-.081-.134-.081-3.969-.088C145.3-271.774,144.564-271.766,144.472-271.724Z" transform="translate(-61.746 -199.949)"/><path class="a" d="M144.472-207.724a.631.631,0,0,0-.349.695.657.657,0,0,0,.4.441c.1.031,1.355.038,3.969.031,3.8-.012,3.827-.012,3.931-.092a.542.542,0,0,0,.265-.514.542.542,0,0,0-.265-.514c-.1-.081-.134-.081-3.969-.088C145.3-207.774,144.564-207.766,144.472-207.724Z" transform="translate(-61.746 -261.492)"/><path class="a" d="M144.472-143.724a.631.631,0,0,0-.349.695.657.657,0,0,0,.4.441c.1.031,1.355.038,3.969.031,3.8-.012,3.827-.012,3.931-.092a.542.542,0,0,0,.265-.514.542.542,0,0,0-.265-.514c-.1-.081-.134-.081-3.969-.088C145.3-143.774,144.564-143.766,144.472-143.724Z" transform="translate(-61.746 -323.035)"/></g></svg>