<svg xmlns="http://www.w3.org/2000/svg" width="26.004" height="25.987" viewBox="0 0 26.004 25.987">
  <g id="shopping-bag" transform="translate(0.001 511.649)">
    <path id="Path_442" data-name="Path 442" d="M12.123-511.591a5.136,5.136,0,0,0-4.058,3.809,6.621,6.621,0,0,0-.127,1.585l-.025,1.183H2.158l-1.082,8.086C.482-492.479-.006-488.731,0-488.6a3.665,3.665,0,0,0,.366,1.331,3.738,3.738,0,0,0,1.244,1.244,3.848,3.848,0,0,0,.706.264c.386.1.6.1,10.656.1,11.372,0,10.625.02,11.356-.335A3.165,3.165,0,0,0,26-488.634c.005-.112-.483-3.845-1.077-8.294l-1.082-8.086H18.08V-506a5.487,5.487,0,0,0-.538-2.839,5.11,5.11,0,0,0-3.347-2.682A6.064,6.064,0,0,0,12.123-511.591Zm1.61,2.057a2.764,2.764,0,0,1,1.4.813,2.765,2.765,0,0,1,.813,1.4,4.955,4.955,0,0,1,.1,1.351v.955H9.954v-.955a3.772,3.772,0,0,1,.366-2.057,3.737,3.737,0,0,1,1.244-1.244A3.051,3.051,0,0,1,13.733-509.534Zm-5.81,8.1v1.549H9.954v-3.1h6.095v3.1H18.08v-3.1h3.987l.96,7.171c1.072,8.025,1.021,7.43.64,7.811a1.123,1.123,0,0,1-.391.249c-.269.076-20.28.076-20.549,0A1.123,1.123,0,0,1,2.336-488c-.381-.381-.432.213.64-7.811l.96-7.171H7.922Z" transform="translate(0 0)" fill="#fff"/>
  </g>
</svg>
