<svg xmlns="http://www.w3.org/2000/svg" width="23.691" height="23.688" viewBox="0 0 23.691 23.688"><defs><style>.a{fill:#bdbaba;}</style></defs><g transform="translate(0 512)"><path class="a" d="M1.547-511.884c-.116.111-.116.12-.116.967v.851l-.652,2.4c-.717,2.642-.759,2.873-.625,3.456a2.467,2.467,0,0,0,.722,1.277,2.467,2.467,0,0,0,1.989.773,2.593,2.593,0,0,0,1.883-.962,1.138,1.138,0,0,1,.2-.227.594.594,0,0,1,.116.171,2.821,2.821,0,0,0,1.6,1.147,3.1,3.1,0,0,0,1.5-.065,2.747,2.747,0,0,0,1.314-.99c.13-.2.176-.213.217-.074a1.949,1.949,0,0,0,.342.407,2.621,2.621,0,0,0,1.906.791,2.622,2.622,0,0,0,1.9-.791,2.366,2.366,0,0,0,.342-.412c.042-.13.093-.116.2.065a3.179,3.179,0,0,0,.985.856,2.635,2.635,0,0,0,2.429-.023,2.727,2.727,0,0,0,1.009-.911.594.594,0,0,1,.116-.171.952.952,0,0,1,.19.213,3.161,3.161,0,0,0,.888.722,3.412,3.412,0,0,0,1.138.268,2.569,2.569,0,0,0,1.855-.786,2.4,2.4,0,0,0,.717-1.282c.143-.662.153-.6-.694-3.715l-.578-2.133v-.856c0-.847,0-.856-.116-.967L22.209-512H1.658ZM21.7-510.8v.463H2.172v-.925H21.7Zm-16.3,1.328c-.014.074-.2,1.231-.421,2.582s-.421,2.54-.449,2.651a1.8,1.8,0,0,1-.222.463,1.868,1.868,0,0,1-3.1.116,1.614,1.614,0,0,1-.347-1.1,10.227,10.227,0,0,1,.588-2.568c.324-1.184.6-2.179.611-2.211a7.769,7.769,0,0,1,1.689-.056H5.42Zm4.113.116c-.014.134-.079,1.263-.139,2.512S9.227-504.45,9.2-504.3a1.919,1.919,0,0,1-1.1,1.425,1.335,1.335,0,0,1-.8.148,1.315,1.315,0,0,1-.837-.171,1.855,1.855,0,0,1-1.036-1.337,1.867,1.867,0,0,1-.042-.551c.014-.116.194-1.231.4-2.48s.365-2.285.365-2.3.759-.028,1.689-.028H9.528Zm4.113.046c.014.162.083,1.3.148,2.549a16.757,16.757,0,0,1,.065,2.521,1.939,1.939,0,0,1-3.331.907,2.087,2.087,0,0,1-.486-1.013c-.028-.222.185-4.9.236-5.149l.019-.1H13.59Zm4.1-.254c0,.018.167,1.05.365,2.3s.384,2.364.4,2.48a1.867,1.867,0,0,1-.042.551A1.855,1.855,0,0,1,17.4-502.9a1.315,1.315,0,0,1-.837.171,1.335,1.335,0,0,1-.8-.148,1.919,1.919,0,0,1-1.1-1.425c-.023-.153-.1-1.309-.162-2.568s-.125-2.387-.139-2.512l-.028-.217h1.693C16.958-509.594,17.717-509.58,17.717-509.562ZM22.4-507.4a10.657,10.657,0,0,1,.6,2.614,1.6,1.6,0,0,1-.093.685,1.9,1.9,0,0,1-1.92,1.2,1.916,1.916,0,0,1-1.652-1.351c-.023-.1-.227-1.291-.444-2.637s-.407-2.508-.421-2.582l-.028-.125,1.679.009,1.675.014Z" transform="translate(-0.09)"/><path class="a" d="M1.443-288.97l-.1.106v10.752H.786c-.532,0-.564,0-.671.116S0-277.885,0-276.909s0,.976.116,1.087l.111.116H23.461l.111-.116c.116-.111.116-.111.116-1.087s0-.976-.116-1.087-.139-.116-.671-.116h-.555v-10.766l-.106-.1a.371.371,0,0,0-.537.019c-.1.125-.1.13-.1,5.482v5.362H20.356v-4.552c0-2.5-.014-4.589-.028-4.631-.079-.2-.157-.208-2.725-.208s-2.646,0-2.725.208c-.014.042-.028,2.128-.028,4.631v4.552H2.082l-.009-5.394L2.059-288.9l-.111-.088A.38.38,0,0,0,1.443-288.97Zm18.173,6.533v4.326H15.591v-8.651h4.025Zm3.331,5.529v.463H.74v-.925H22.947Z" transform="translate(0 -212.607)"/><path class="a" d="M83.143-254.88l-.143.12v2.767c0,1.522.014,2.8.028,2.845.083.213.019.208,4.687.208h4.4l.13-.111.13-.111.014-2.711c.014-2.956.009-2.984-.245-3.081-.079-.028-1.707-.046-4.488-.046H83.287Zm8.485,2.91v2.267l-3.942.014-3.946.009v-4.58l3.946.009,3.942.014Z" transform="translate(-79.16 -245.11)"/></g></svg>