<svg xmlns="http://www.w3.org/2000/svg" width="28.075" height="28.075" viewBox="0 0 28.075 28.075"><defs><style>.a{fill:#bdbaba;}</style></defs><g transform="translate(0 0)"><path class="a" d="M12.843-511.506a14.117,14.117,0,0,0-10.58,6.571,14.084,14.084,0,0,0-.412,14.163,14.358,14.358,0,0,0,4.617,5.016,15.02,15.02,0,0,0,4.81,2.011,11.609,11.609,0,0,0,2.91.28,11.8,11.8,0,0,0,2.921-.28A14.12,14.12,0,0,0,27.53-493.1a12.672,12.672,0,0,0,.686-4.406,12.748,12.748,0,0,0-.637-4.258,13.863,13.863,0,0,0-3.415-5.626,13.911,13.911,0,0,0-8.027-4.049A21.311,21.311,0,0,0,12.843-511.506Zm2.213,10.059-.016.621-.533.115c-.3.066-.626.137-.73.154l-.2.038.016-.621.016-.621.659-.143c.362-.082.692-.148.73-.154C15.056-502.062,15.067-501.919,15.056-501.447Zm-6.138.758v.659h1.153v1.264H8.918v1.176a9.182,9.182,0,0,0,.055,1.319c.1.258.505.374.922.258l.176-.055v1.209l-.2.093a2.034,2.034,0,0,1-.785.093,1.419,1.419,0,0,1-.8-.121,1.707,1.707,0,0,1-.7-.7c-.121-.22-.121-.258-.137-2.9l-.016-2.67.648-.137C9.011-501.4,8.918-501.458,8.918-500.688Zm-2.443.7.329.1.016.7c.011.654.005.7-.082.676-.055-.016-.247-.088-.428-.154a2.936,2.936,0,0,0-.8-.148c-.428-.022-.489-.011-.593.093-.258.258-.088.44.681.725,1.186.445,1.51.813,1.51,1.7A1.615,1.615,0,0,1,6.013-494.8a2.319,2.319,0,0,1-1.049.121,2.968,2.968,0,0,1-1.153-.137l-.412-.137-.016-.725-.016-.725.313.137a3.257,3.257,0,0,0,1.3.3c.417,0,.593-.1.593-.324s-.187-.363-.829-.615c-.966-.374-1.3-.659-1.422-1.231a1.7,1.7,0,0,1,.373-1.417,2.173,2.173,0,0,1,.878-.511A5.1,5.1,0,0,1,6.474-499.991Zm6.594-.093H13.2v1.417l-.242-.028a1.08,1.08,0,0,0-.769.209l-.143.11v3.62H10.51v-5.28l.67.017.67.017.049.192c.038.154.055.17.1.1a1.059,1.059,0,0,1,.862-.4A1.061,1.061,0,0,0,13.068-500.084Zm6,.137A2.658,2.658,0,0,1,20.3-497.42a2.639,2.639,0,0,1-1.268,2.6,1.437,1.437,0,0,1-.78.148,1.241,1.241,0,0,1-.752-.154,3.153,3.153,0,0,0-.313-.148,5.573,5.573,0,0,0-.044.835l-.016.841-.533.115c-.3.066-.626.137-.73.154l-.192.038v-7.092h1.307l.049.2.044.2.154-.121A1.809,1.809,0,0,1,19.064-499.947Zm4.689-.044a2.21,2.21,0,0,1,1.142,1.368,4.97,4.97,0,0,1,.2,1.582l-.038.2H22.133l.033.187c.071.428.406.676.994.731a3.628,3.628,0,0,0,1.411-.236.805.805,0,0,1,.187-.077,3.247,3.247,0,0,1,.027.6v.61l-.258.11a3.734,3.734,0,0,1-1.34.269,2.406,2.406,0,0,1-2.575-2.7,3.03,3.03,0,0,1,.3-1.5,2.206,2.206,0,0,1,1.323-1.2A2.826,2.826,0,0,1,23.752-499.991Zm-8.686,2.6v2.637H13.584v-5.274h1.482Z" transform="translate(-0.141 511.541)"/><path class="a" d="M310.546-279.744a1.423,1.423,0,0,0-.359.173l-.187.117v2.874l.228.138c.981.594,1.845-.145,1.845-1.575C312.073-279.274,311.423-280.013,310.546-279.744Z" transform="translate(-293.262 292.162)"/><path class="a" d="M400.533-281.776a1.1,1.1,0,0,0-.58.656c-.166.511-.193.5.912.477l.981-.021-.021-.242a1.109,1.109,0,0,0-.5-.808A.733.733,0,0,0,400.533-281.776Z" transform="translate(-378.258 294.364)"/></g></svg>