<svg xmlns="http://www.w3.org/2000/svg" width="43" height="33.225" viewBox="0 0 43 33.225">
  <g id="tap" transform="translate(-0.26 453.661)">
    <path id="Path_433" data-name="Path 433" d="M7.928-453.6a9.494,9.494,0,0,0-4.387,1.874,8.775,8.775,0,0,0-.647,13.112A7.046,7.046,0,0,0,5.785-436.8a.965.965,0,0,0,.908-1.387c-.092-.2-.4-.42-1.269-.916a7.439,7.439,0,0,1-2.589-2.959,7.274,7.274,0,0,1-.471-4.337A6.83,6.83,0,0,1,9-451.681a6.085,6.085,0,0,1,3.135.748,6.836,6.836,0,0,1,3.026,3.026c.294.538.6.773,1,.773a.988.988,0,0,0,.975-.95,6.768,6.768,0,0,0-1.084-2.084,9.32,9.32,0,0,0-3.522-2.774A9.4,9.4,0,0,0,7.928-453.6Z" transform="translate(0 0)" fill="#fb7712"/>
    <path id="Path_434" data-name="Path 434" d="M84.962-417.744a3.917,3.917,0,0,0-2.673,2.051,2.742,2.742,0,0,1-.3.555,1.423,1.423,0,0,1-.269-.16,4,4,0,0,0-3.8-.059,4.07,4.07,0,0,0-1.631,1.916c-.034.134-.076.235-.1.235s-.319-.134-.672-.3a3.743,3.743,0,0,0-4.942,1.689c-.134.277-.252.521-.269.538s-.908-.832-1.984-1.908c-2.16-2.143-2.48-2.37-3.589-2.53A3.639,3.639,0,0,0,61.52-414.6a3.705,3.705,0,0,0-.639,4.253c.235.5.824,1.118,7.119,7.413,3.765,3.782,6.833,6.875,6.8,6.875-.134,0-7.64,1.194-8.052,1.278a4.409,4.409,0,0,0-2.648,1.689,4.109,4.109,0,0,0-.765,3.253,3.041,3.041,0,0,0,1.942,2.11c.462.16,20.1.177,21.021.017a11.644,11.644,0,0,0,4.656-1.967,53.673,53.673,0,0,0,4.589-4.429,10.961,10.961,0,0,0,2.261-3.7,10.769,10.769,0,0,0-2.051-10.683c-.857-.992-6.657-7.354-7.262-7.976a3.752,3.752,0,0,0-2.051-1.236A3.153,3.153,0,0,0,84.962-417.744Zm1.555,2.126c.336.2,7.439,7.968,8.195,8.951a8.917,8.917,0,0,1,1.446,7.59,10.773,10.773,0,0,1-1.311,2.757,59.908,59.908,0,0,1-4.665,4.766,9.063,9.063,0,0,1-3.488,1.757c-1.067.269-2.555.3-11.75.277-8.3-.025-9.094-.034-9.271-.168a.947.947,0,0,1-.454-.975,2.371,2.371,0,0,1,1.4-2.042c.2-.092,2.32-.462,5.447-.95,2.807-.445,5.211-.857,5.346-.933a1.008,1.008,0,0,0,.429-1.059c-.067-.219-1.916-2.126-7.64-7.85-8.1-8.111-7.775-7.75-7.758-8.6a1.864,1.864,0,0,1,.756-1.4,1.906,1.906,0,0,1,1.706-.177c.16.076,2.572,2.429,5.371,5.211,5.379,5.362,5.329,5.32,5.926,5.161a1,1,0,0,0,.672-1.152,20.38,20.38,0,0,0-2.227-2.412c-2.311-2.32-2.522-2.6-2.522-3.32a1.778,1.778,0,0,1,2.421-1.631,21.5,21.5,0,0,1,2.538,2.345c1.933,1.916,2.278,2.219,2.555,2.269a.961.961,0,0,0,1.143-.756c.05-.488-.017-.58-1.244-1.841-1.4-1.42-1.58-1.723-1.513-2.513a1.691,1.691,0,0,1,1.631-1.555c.74-.05,1.051.143,2.48,1.547,1.21,1.194,1.236,1.21,1.6,1.21a.874.874,0,0,0,.883-.521c.193-.37.1-.756-.286-1.269a1.607,1.607,0,0,1-.454-1.236A1.766,1.766,0,0,1,86.517-415.617Z" transform="translate(-55.164 -32.836)" fill="#0aae1b"/>
  </g>
</svg>
