<svg xmlns="http://www.w3.org/2000/svg" width="17.498" height="17.493" viewBox="0 0 17.498 17.493"><defs><style>.a{fill:#fff;}</style></defs><g transform="translate(-16.129 495.769)"><path class="a" d="M16.47-495.726a.588.588,0,0,0-.215.9c.168.2.179.2,1.291.219l1.036.018,1.014,4.3c.558,2.367,1.017,4.336,1.021,4.372.011.058-.026.077-.211.117a1.742,1.742,0,0,0-1.353,1.82,1.7,1.7,0,0,0,.54,1.141,1.992,1.992,0,0,0,.842.441c.135.029,1.739.036,5.342.033,5.134-.011,5.149-.011,5.247-.088a.515.515,0,0,0,.252-.489.515.515,0,0,0-.252-.489c-.1-.077-.12-.077-5.273-.095s-5.174-.018-5.273-.095a.515.515,0,0,1-.252-.489.515.515,0,0,1,.252-.489c.1-.077.12-.077,5.32-.095l5.222-.018.19-.08a1.873,1.873,0,0,0,1-.893c.131-.273,1.415-5.736,1.415-6.013a1.774,1.774,0,0,0-.485-1.192,1.743,1.743,0,0,0-.693-.456l-.19-.08-6.108-.018-6.1-.018-.23-.985c-.233-.992-.27-1.094-.463-1.236-.095-.073-.15-.077-1.437-.084A7.073,7.073,0,0,0,16.47-495.726Zm15.68,3.533a.694.694,0,0,1,.31.489c0,.179-1.28,5.5-1.342,5.586a.9.9,0,0,1-.168.164c-.1.077-.113.077-4.609.077H21.831l-.7-2.972c-.383-1.634-.722-3.074-.751-3.2l-.055-.226H32Z"/><path class="a" d="M145.383-111.91a1.766,1.766,0,0,0-1.262,2.111,1.761,1.761,0,0,0,2.115,1.276,1.757,1.757,0,0,0,1.276-2.108A1.761,1.761,0,0,0,145.383-111.91Zm.664,1.16a.573.573,0,0,1,.175.937.55.55,0,0,1-.81,0A.576.576,0,0,1,146.047-110.75Z" transform="translate(-123.276 -369.807)"/><path class="a" d="M321.383-111.91a1.766,1.766,0,0,0-1.262,2.111,1.761,1.761,0,0,0,2.115,1.276,1.757,1.757,0,0,0,1.276-2.108A1.761,1.761,0,0,0,321.383-111.91Zm.664,1.16a.573.573,0,0,1,.175.937.55.55,0,0,1-.809,0A.576.576,0,0,1,322.047-110.75Z" transform="translate(-292.858 -369.807)"/></g></svg>