<svg xmlns="http://www.w3.org/2000/svg" width="17.198" height="17.191" viewBox="0 0 17.198 17.191"><defs><style>.a{fill:#fff;}</style></defs><g transform="translate(-0.042 511.732)"><path class="a" d="M8.137-511.721a5.206,5.206,0,0,0-2.173.773A5,5,0,0,0,3.75-507.66a6.322,6.322,0,0,0,0,1.78,5.075,5.075,0,0,0,1.6,2.822,1.969,1.969,0,0,1,.239.222.58.58,0,0,1-.191.064A9.912,9.912,0,0,0,1.737-501.1a4.2,4.2,0,0,0-1.6,2.422,11.9,11.9,0,0,0-.044,2.536,1.9,1.9,0,0,0,.551.991,1.852,1.852,0,0,0,.931.538c.255.067.4.067,7.068.067s6.813,0,7.068-.067a1.852,1.852,0,0,0,.931-.538,1.9,1.9,0,0,0,.551-.991,11.684,11.684,0,0,0-.044-2.536,4.9,4.9,0,0,0-3.007-3.279c-.457-.225-.578-.252-.8-.175a.6.6,0,0,0-.386.343.579.579,0,0,0,0,.581c.1.2.138.228.655.484a7.293,7.293,0,0,1,1.3.843,2.7,2.7,0,0,1,.82,1.162,3.9,3.9,0,0,1,.158,1.569c-.01.779-.013.81-.091.934a.884.884,0,0,1-.215.218l-.138.091H1.835l-.138-.091a.884.884,0,0,1-.215-.218c-.077-.124-.081-.155-.091-.934a3.936,3.936,0,0,1,.148-1.535,2.713,2.713,0,0,1,.759-1.139,8.523,8.523,0,0,1,3.756-1.723,12.986,12.986,0,0,1,2.4-.255,5.111,5.111,0,0,0,1.834-.289,4.99,4.99,0,0,0,3.242-3.793,6.322,6.322,0,0,0,0-1.78,4.991,4.991,0,0,0-3.914-3.984A7.7,7.7,0,0,0,8.137-511.721Zm1.394,1.438a3.746,3.746,0,0,1,2,1.327,4.5,4.5,0,0,1,.625,1.3,2.731,2.731,0,0,1,.087.89,2.732,2.732,0,0,1-.087.89,4.5,4.5,0,0,1-.625,1.3,4.075,4.075,0,0,1-.847.8,4.3,4.3,0,0,1-1.162.527,2.675,2.675,0,0,1-.884.087,2.675,2.675,0,0,1-.884-.087A4.3,4.3,0,0,1,6.6-503.78a4.075,4.075,0,0,1-.847-.8,4.5,4.5,0,0,1-.625-1.3,2.732,2.732,0,0,1-.087-.89,2.731,2.731,0,0,1,.087-.89,4.5,4.5,0,0,1,.625-1.3,3.759,3.759,0,0,1,2.375-1.408A4.563,4.563,0,0,1,9.531-510.283Z" transform="translate(0)"/></g></svg>